<svg width="32" height="32" viewBox="0 0 32 32" fill="none" xmlns="http://www.w3.org/2000/svg">
<rect width="32" height="32" rx="16" fill="#FF9300"/>
<path d="M15.4301 7.19995C14.1935 7.19995 13.1996 8.24764 13.1996 9.50933C13.1996 10.056 13.4596 10.5699 13.802 11.064C14.1443 11.5581 14.5853 12.0329 15.0223 12.4539C15.8962 13.2957 16.7652 13.9242 16.7652 13.9242C16.8336 13.9735 16.9158 14.0001 17.0001 13.9999C17.0845 13.9998 17.1666 13.973 17.2348 13.9234C17.2348 13.9234 18.1041 13.2924 18.9777 12.4492C19.4146 12.0275 19.855 11.5526 20.1973 11.0593C20.5395 10.5661 20.7996 10.0539 20.7996 9.50933C20.7996 8.24764 19.8058 7.19995 18.5691 7.19995C17.9256 7.19995 17.4329 7.49746 17.0012 7.88823C16.5775 7.49194 16.0672 7.19995 15.4301 7.19995ZM15.4301 7.99995C15.9774 7.99995 16.3403 8.21648 16.6871 8.64995C16.7233 8.69536 16.769 8.73233 16.821 8.75829C16.873 8.78426 16.93 8.7986 16.988 8.80031C17.0461 8.80202 17.1038 8.79106 17.1572 8.7682C17.2106 8.74533 17.2584 8.71112 17.2973 8.66792C17.7114 8.20778 18.0218 7.99995 18.5691 7.99995C19.3549 7.99995 19.9996 8.66221 19.9996 9.50933C19.9996 9.77374 19.8347 10.1776 19.5395 10.6031C19.2442 11.0285 18.8347 11.4746 18.4215 11.8734C17.7122 12.558 17.1874 12.9379 16.9996 13.0781C16.8122 12.9389 16.2862 12.5614 15.577 11.8781C15.1639 11.4802 14.7549 11.0344 14.4598 10.6085C14.1647 10.1827 13.9996 9.77804 13.9996 9.50933C13.9996 8.66221 14.6443 7.99995 15.4301 7.99995ZM18.5996 14.4C18.4632 14.4 18.3247 14.4193 18.1879 14.4617C17.4499 14.6889 17.0341 15.4737 17.2613 16.2117L17.7551 17.814L15.9035 19.0484C16.1711 19.154 16.4794 19.2762 16.809 19.4062L18.4465 18.314C18.5937 18.2156 18.6586 18.032 18.6066 17.8632L18.0262 15.9757C17.929 15.6597 18.107 15.3233 18.423 15.2257C18.7394 15.1281 19.0754 15.3074 19.173 15.6234L19.973 18.2234C20.0506 18.475 19.9508 18.7524 19.7316 18.8984L18.1668 19.9421C18.4756 20.0641 18.7811 20.1852 19.0723 20.3L20.1762 19.564C20.6874 19.2232 20.9183 18.5754 20.7379 17.9882L19.9379 15.3882C19.7531 14.7878 19.1964 14.4008 18.5996 14.4ZM15.6684 14.407C15.5747 14.4153 15.4808 14.4332 15.3879 14.4617L10.4262 15.9882C10.4156 15.9914 10.4052 15.9951 10.3949 15.9992C10.1906 16.0811 9.98727 16.163 9.78321 16.2445C9.77848 16.2462 9.7738 16.248 9.76914 16.25L6.63789 17.6343C6.58803 17.6543 6.54271 17.6841 6.50463 17.722C6.46655 17.7599 6.43648 17.8051 6.41623 17.8548C6.39598 17.9046 6.38596 17.9579 6.38676 18.0116C6.38757 18.0653 6.39918 18.1183 6.42091 18.1675C6.44264 18.2166 6.47404 18.2608 6.51324 18.2976C6.55244 18.3343 6.59863 18.3627 6.64906 18.3812C6.6995 18.3997 6.75314 18.4079 6.80679 18.4052C6.86044 18.4025 6.913 18.389 6.96133 18.3656L10.0793 16.9875L10.0887 16.9835L10.0926 16.982C10.2881 16.9039 10.4832 16.826 10.6785 16.7476L15.6223 15.2265C15.9473 15.1269 16.2841 15.3022 16.3785 15.6437C16.4523 15.9125 16.2954 16.2228 16.0176 16.3617L13.4637 17.6382C13.0572 17.8414 12.8096 18.2531 12.8012 18.689C12.7988 18.8225 12.8188 18.9591 12.8629 19.0914L12.8613 19.089L12.8676 19.107C12.8678 19.1078 12.8681 19.1085 12.8684 19.1093C12.984 19.4561 13.2516 19.7308 13.5918 19.8562C13.5926 19.8565 13.5934 19.8567 13.5941 19.857C13.6129 19.8638 18.9496 21.9718 18.9496 21.9718C19.0097 21.9956 19.0746 22.0044 19.1388 21.9976C19.203 21.9908 19.2646 21.9686 19.3184 21.9328L23.8668 18.9007C24.1789 18.6928 24.5977 18.7967 24.7566 19.1757C24.8641 19.432 24.7525 19.7525 24.4996 19.921L18.5324 23.8992C18.3811 24.0001 18.1913 24.0264 18.0191 23.9718L18.0246 23.9742L10.9254 21.6203C10.8249 21.587 10.7154 21.5948 10.6207 21.6421L6.62071 23.6421C6.52581 23.6896 6.45365 23.7728 6.4201 23.8734C6.38654 23.9741 6.39435 24.084 6.4418 24.1789C6.48925 24.2738 6.57245 24.3459 6.67311 24.3795C6.77376 24.413 6.88362 24.4052 6.97852 24.3578L10.8309 22.432L17.7723 24.7335C17.7741 24.7341 17.7759 24.7346 17.7777 24.7351C18.1815 24.863 18.6227 24.8006 18.9762 24.5648L24.9434 20.5867C25.496 20.2184 25.7611 19.5029 25.4941 18.8664C25.1499 18.0454 24.1374 17.7591 23.423 18.2351L19.0488 21.1507C18.6874 21.008 13.8909 19.1137 13.8684 19.1054C13.755 19.0636 13.6665 18.9734 13.6277 18.857L13.6223 18.8406C13.622 18.8398 13.6217 18.839 13.6215 18.8382C13.6064 18.7928 13.5996 18.7488 13.6004 18.7039C13.6032 18.5591 13.6835 18.4227 13.8215 18.3539L16.3754 17.0773C16.9709 16.7795 17.3353 16.1023 17.1496 15.4304C16.9913 14.8579 16.4977 14.4715 15.9473 14.4101C15.8555 14.3999 15.7621 14.3986 15.6684 14.407Z" fill="white"/>
</svg>
