<svg width="24" height="24" viewBox="0 0 24 24" fill="none" xmlns="http://www.w3.org/2000/svg">
<path d="M11.3169 1.43994C9.83293 1.43994 8.64032 2.69717 8.64032 4.21119C8.64032 4.86722 8.95226 5.48394 9.36313 6.07682C9.77399 6.66969 10.3032 7.23951 10.8275 7.74463C11.8762 8.75486 12.9191 9.509 12.9191 9.509C13.0011 9.56825 13.0997 9.60006 13.2009 9.59989C13.3021 9.59972 13.4007 9.56759 13.4825 9.50807C13.4825 9.50807 14.5257 8.75092 15.5741 7.739C16.0982 7.23305 16.6268 6.66308 17.0375 6.07119C17.4482 5.47932 17.7603 4.8647 17.7603 4.21119C17.7603 2.69717 16.5677 1.43994 15.0838 1.43994C14.3115 1.43994 13.7202 1.79695 13.2022 2.26588C12.6938 1.79033 12.0815 1.43994 11.3169 1.43994ZM11.3169 2.39994C11.9736 2.39994 12.4092 2.65978 12.8253 3.17994C12.8688 3.23443 12.9236 3.2788 12.986 3.30995C13.0483 3.34111 13.1167 3.35831 13.1864 3.36037C13.2561 3.36242 13.3254 3.34927 13.3895 3.32184C13.4536 3.2944 13.5109 3.25334 13.5575 3.2015C14.0545 2.64934 14.427 2.39994 15.0838 2.39994C16.0267 2.39994 16.8003 3.19465 16.8003 4.21119C16.8003 4.52848 16.6024 5.01313 16.2481 5.52369C15.8938 6.03426 15.4024 6.56948 14.9066 7.04807C14.0555 7.86959 13.4256 8.32554 13.2003 8.49369C12.9754 8.32666 12.3443 7.87363 11.4931 7.05369C10.9975 6.57619 10.5066 6.04127 10.1525 5.53025C9.79837 5.01924 9.60032 4.53364 9.60032 4.21119C9.60032 3.19465 10.3739 2.39994 11.3169 2.39994ZM15.1203 10.0799C14.9566 10.0799 14.7904 10.1031 14.6263 10.154C13.7407 10.4266 13.2417 11.3684 13.5144 12.254L14.1069 14.1768L11.885 15.6581C12.2061 15.7848 12.576 15.9314 12.9716 16.0874L14.9366 14.7768C15.1132 14.6587 15.1912 14.4384 15.1288 14.2359L14.4322 11.9709C14.3155 11.5917 14.5292 11.188 14.9084 11.0709C15.2881 10.9538 15.6913 11.1689 15.8084 11.5481L16.7684 14.6681C16.8616 14.97 16.7418 15.3029 16.4788 15.4781L14.6009 16.7306C14.9715 16.877 15.3381 17.0222 15.6875 17.1599L17.0122 16.2768C17.6256 15.8679 17.9027 15.0905 17.6863 14.3859L16.7263 11.2659C16.5045 10.5454 15.8365 10.0809 15.1203 10.0799ZM11.6028 10.0884C11.4904 10.0984 11.3777 10.1199 11.2663 10.154L5.31219 11.9859C5.29952 11.9897 5.287 11.9941 5.27469 11.999C5.02951 12.0974 4.78551 12.1956 4.54063 12.2934C4.53496 12.2955 4.52934 12.2976 4.52375 12.2999L0.766254 13.9612C0.706423 13.9852 0.652036 14.021 0.606336 14.0664C0.560636 14.1119 0.524561 14.1661 0.50026 14.2258C0.47596 14.2855 0.463934 14.3495 0.464897 14.4139C0.465861 14.4784 0.479796 14.542 0.505871 14.6009C0.531946 14.6599 0.569626 14.713 0.616665 14.7571C0.663703 14.8011 0.719137 14.8353 0.779658 14.8575C0.84018 14.8797 0.90455 14.8894 0.96893 14.8862C1.03331 14.883 1.09638 14.8668 1.15438 14.8387L4.89594 13.1849L4.90719 13.1803L4.91188 13.1784C5.14656 13.0847 5.3806 12.9912 5.615 12.8971L11.5475 11.0718C11.9375 10.9523 12.3417 11.1627 12.455 11.5724C12.5436 11.895 12.3552 12.2673 12.0219 12.434L8.95719 13.9659C8.4694 14.2097 8.17228 14.7038 8.16219 15.2268C8.15931 15.387 8.18337 15.551 8.23625 15.7096L8.23438 15.7068L8.24188 15.7284C8.24219 15.7293 8.2425 15.7303 8.24282 15.7312C8.38154 16.1474 8.70266 16.4769 9.11094 16.6274C9.11188 16.6278 9.11281 16.6281 9.11375 16.6284C9.13631 16.6365 15.5403 19.1662 15.5403 19.1662C15.6124 19.1947 15.6903 19.2053 15.7673 19.1971C15.8444 19.189 15.9183 19.1623 15.9828 19.1193L21.4409 15.4809C21.8154 15.2313 22.318 15.356 22.5088 15.8109C22.6377 16.1184 22.5038 16.503 22.2003 16.7053L15.0397 21.479C14.8581 21.6002 14.6304 21.6316 14.4238 21.5662L14.4303 21.569L5.91125 18.7443C5.7907 18.7044 5.65923 18.7138 5.54563 18.7706L0.745629 21.1706C0.631752 21.2275 0.545157 21.3273 0.504896 21.4481C0.464634 21.5689 0.474003 21.7008 0.530942 21.8146C0.58788 21.9285 0.687725 22.0151 0.80851 22.0554C0.929295 22.0956 1.06113 22.0863 1.175 22.0293L5.79782 19.7184L14.1275 22.4803C14.1297 22.4809 14.1319 22.4815 14.1341 22.4821C14.6186 22.6356 15.148 22.5607 15.5722 22.2778L22.7328 17.504C23.396 17.0621 23.7141 16.2034 23.3938 15.4396C22.9806 14.4545 21.7656 14.1109 20.9084 14.6821L15.6594 18.1809C15.2256 18.0096 9.46981 15.7364 9.44282 15.7265C9.30677 15.6764 9.20062 15.568 9.15407 15.4284L9.1475 15.4087C9.14719 15.4078 9.14688 15.4068 9.14657 15.4059C9.12841 15.3514 9.12028 15.2985 9.12125 15.2446C9.12461 15.071 9.22098 14.9073 9.38657 14.8246L12.4513 13.2928C13.1659 12.9354 13.6031 12.1227 13.3803 11.3165C13.1903 10.6295 12.598 10.1658 11.9375 10.0921C11.8274 10.0799 11.7152 10.0784 11.6028 10.0884Z" fill="black"/>
</svg>
