<svg width="300" height="169" viewBox="0 0 300 169" fill="none" xmlns="http://www.w3.org/2000/svg">
<g clip-path="url(#clip0_1343_2699)">
<path d="M40.627 80.2462H102.654L97.7457 162.969H45.5357L40.627 80.2462Z" fill="#00BE1E"/>
<path d="M40.766 79.0625H102.515C104.253 79.0625 105.57 80.1814 105.27 81.4025L103.525 88.4838C103.29 89.4375 102.128 90.1331 100.77 90.1331H42.5109C41.1532 90.1331 39.9916 89.4375 39.7566 88.4838L38.0117 81.4025C37.7108 80.1814 39.028 79.0625 40.766 79.0625Z" fill="#00BE1E"/>
<path d="M101.514 90.6019H41.7678C41.6434 90.6019 41.5241 90.5525 41.4362 90.4645C41.3482 90.3766 41.2988 90.2573 41.2988 90.1329C41.2988 90.0085 41.3482 89.8892 41.4362 89.8013C41.5241 89.7133 41.6434 89.6639 41.7678 89.6639H101.514C101.638 89.6639 101.758 89.7133 101.846 89.8013C101.933 89.8892 101.983 90.0085 101.983 90.1329C101.983 90.2573 101.933 90.3766 101.846 90.4645C101.758 90.5525 101.638 90.6019 101.514 90.6019Z" fill="black"/>
</g>
<g clip-path="url(#clip1_1343_2699)">
<path d="M63.9804 130.393H59.5643C59.3349 130.393 59.2116 130.263 59.1487 130.153C59.0858 130.044 59.0347 129.872 59.1503 129.675L63.0077 123.075L64.6883 124.008L64.5784 116.955L58.5074 120.577L59.9915 121.401L56.1682 127.942C55.4509 129.169 55.4463 130.637 56.1559 131.868C56.8655 133.1 58.1398 133.835 59.5643 133.835H63.9804C64.9335 133.835 65.7061 133.064 65.7061 132.114C65.7061 131.164 64.9335 130.393 63.9804 130.393Z" fill="white"/>
<path d="M63.9802 134.304H59.5641C57.969 134.304 56.5423 133.481 55.7477 132.102C54.953 130.723 54.9581 129.079 55.7613 127.705L59.3429 121.578L58.278 120.987C58.2058 120.947 58.1454 120.888 58.103 120.818C58.0605 120.747 58.0375 120.666 58.0362 120.584C58.0349 120.502 58.0554 120.42 58.0956 120.348C58.1358 120.276 58.1943 120.216 58.2653 120.174L64.3363 116.552C64.4072 116.51 64.4881 116.487 64.5707 116.486C64.6533 116.485 64.7348 116.505 64.807 116.545C64.8792 116.585 64.9395 116.644 64.9819 116.714C65.0244 116.785 65.0473 116.866 65.0486 116.948L65.1584 124.001C65.1597 124.083 65.1392 124.165 65.099 124.237C65.0588 124.309 65.0003 124.369 64.9294 124.411C64.8585 124.453 64.7777 124.476 64.6951 124.478C64.6125 124.479 64.531 124.458 64.4588 124.418L63.1815 123.709L59.5564 129.911L59.5638 129.93L63.98 129.924C65.1912 129.924 66.1764 130.906 66.1764 132.114C66.1764 133.322 65.1912 134.304 63.9802 134.304ZM59.4483 120.562L60.2202 120.991C60.2749 121.021 60.323 121.062 60.3616 121.111C60.4003 121.16 60.4287 121.217 60.4452 121.277C60.4618 121.337 60.4661 121.4 60.458 121.462C60.4499 121.524 60.4295 121.583 60.398 121.637L56.5746 128.178C55.9432 129.258 55.9392 130.55 56.564 131.634C57.1887 132.718 58.3103 133.366 59.5643 133.366H63.9803C64.6724 133.366 65.2354 132.804 65.2354 132.114C65.2354 131.424 64.6724 130.863 63.9803 130.863H59.5641C59.2147 130.863 58.9144 130.689 58.7405 130.387C58.5665 130.085 58.5674 129.739 58.7434 129.438L62.6008 122.839C62.6629 122.733 62.7642 122.655 62.883 122.623C63.0019 122.59 63.1287 122.606 63.2364 122.665L64.2047 123.203L64.1201 117.775L59.4483 120.562Z" fill="#222433"/>
<path d="M79.1553 114.594L74.959 107.415C74.2467 106.196 72.977 105.469 71.5629 105.469C70.1485 105.469 68.8788 106.196 68.1667 107.415L65.8621 111.358C65.382 112.179 65.6606 113.232 66.484 113.711C67.3071 114.189 68.3639 113.912 68.8439 113.091L71.1485 109.148C71.2632 108.952 71.437 108.911 71.5629 108.911C71.6885 108.911 71.8624 108.952 71.977 109.148L76.1661 116.315L74.1608 117.469L81.1291 121.481V113.458L79.1553 114.594Z" fill="white"/>
<path d="M81.1285 121.95C81.0459 121.95 80.9647 121.928 80.8932 121.887L73.9249 117.876C73.8533 117.834 73.7939 117.775 73.7526 117.704C73.7113 117.632 73.6895 117.551 73.6895 117.469C73.6895 117.387 73.7113 117.306 73.7526 117.234C73.7939 117.163 73.8533 117.104 73.9249 117.063L75.5209 116.144L71.5697 109.384L71.5493 109.381L69.2498 113.327C68.6398 114.37 67.2924 114.725 66.2462 114.116C65.1999 113.508 64.8447 112.165 65.4547 111.121L67.7593 107.179C68.5566 105.814 69.9784 105 71.5621 105C73.1459 105 74.5675 105.815 75.3649 107.179L79.3252 113.954L80.8933 113.051C80.9649 113.01 81.046 112.988 81.1286 112.988C81.2113 112.988 81.2924 113.01 81.364 113.051C81.4355 113.092 81.4949 113.152 81.5362 113.223C81.5776 113.294 81.5993 113.375 81.5993 113.458V121.481C81.5993 121.542 81.5871 121.603 81.5635 121.66C81.5398 121.717 81.5051 121.769 81.4614 121.813C81.4177 121.856 81.3658 121.891 81.3087 121.914C81.2515 121.938 81.1903 121.95 81.1285 121.95ZM75.1015 117.469L80.6578 120.668V114.271L79.3899 115C79.282 115.062 79.154 115.079 79.0337 115.048C78.9134 115.016 78.8106 114.938 78.7479 114.83L74.5516 107.651C73.9247 106.579 72.8072 105.939 71.5621 105.939C70.3171 105.939 69.1994 106.579 68.5725 107.651L66.2678 111.594C65.9194 112.19 66.1222 112.958 66.7201 113.305C67.3179 113.653 68.0879 113.45 68.4365 112.854L70.7411 108.912C70.9159 108.613 71.2151 108.441 71.562 108.441C71.9088 108.441 72.208 108.613 72.3828 108.912L76.572 116.078C76.6033 116.132 76.6236 116.191 76.632 116.252C76.6403 116.313 76.6364 116.375 76.6205 116.435C76.6045 116.495 76.577 116.551 76.5393 116.6C76.5016 116.649 76.4545 116.69 76.4008 116.721L75.1015 117.469Z" fill="#222433"/>
<path d="M86.9566 127.942L85.4247 125.321C84.9448 124.5 83.8885 124.222 83.0648 124.701C82.2413 125.179 81.9629 126.233 82.4428 127.054L83.9748 129.675C84.0902 129.872 84.0393 130.044 83.9762 130.153C83.9131 130.263 83.7898 130.393 83.5606 130.393H76.4087V128.07L69.4404 132.082L76.4087 136.093V133.835H83.5606C84.9851 133.835 86.2592 133.1 86.969 131.868C87.6787 130.637 87.6739 129.169 86.9566 127.942Z" fill="white"/>
<path d="M76.4087 136.563C76.3261 136.563 76.2449 136.541 76.1733 136.5L69.205 132.488C69.1335 132.447 69.0741 132.388 69.0328 132.316C68.9915 132.245 68.9697 132.164 68.9697 132.082C68.9697 131.999 68.9915 131.919 69.0328 131.847C69.0741 131.776 69.1335 131.717 69.205 131.675L76.1733 127.664C76.2449 127.623 76.3261 127.601 76.4087 127.601C76.4913 127.601 76.5724 127.623 76.644 127.664C76.7155 127.705 76.775 127.764 76.8163 127.836C76.8576 127.907 76.8793 127.988 76.8793 128.07V129.924H83.5605L83.5736 129.908L82.0361 127.29C81.4262 126.247 81.7814 124.903 82.8277 124.295C83.8745 123.687 85.2218 124.042 85.8313 125.084L87.3632 127.705C88.1664 129.079 88.1714 130.723 87.3767 132.102C86.582 133.481 85.1553 134.304 83.5602 134.304H76.879V136.093C76.879 136.218 76.8295 136.337 76.7413 136.425C76.6531 136.513 76.5334 136.563 76.4087 136.563ZM70.3817 132.082L75.938 135.28V133.835C75.938 133.71 75.9876 133.591 76.0759 133.503C76.1641 133.415 76.2838 133.365 76.4087 133.365H83.5605C84.8145 133.365 85.9361 132.718 86.5608 131.634C87.1856 130.55 87.1817 129.258 86.5502 128.178L85.0183 125.557C84.67 124.961 83.8999 124.759 83.3018 125.106C82.7041 125.454 82.5011 126.221 82.8495 126.817L84.3815 129.438C84.5576 129.739 84.5585 130.085 84.3845 130.387C84.2104 130.689 83.9102 130.863 83.5608 130.863H76.409C76.2842 130.863 76.1644 130.813 76.0762 130.725C75.9879 130.637 75.9383 130.518 75.9383 130.393V128.883L70.3817 132.082Z" fill="#222433"/>
</g>
<g clip-path="url(#clip2_1343_2699)">
<path d="M254.54 79.5152C253.667 78.1986 253.079 76.7105 252.814 75.1473C252.549 73.5842 252.613 71.9808 253.001 70.4413L255.014 61.8762C255.234 60.9708 255.09 60.0161 254.613 59.2208C254.136 58.4255 253.366 57.8542 252.47 57.6316C251.573 57.4142 250.626 57.564 249.835 58.0482C249.045 58.5324 248.475 59.3116 248.25 60.2157L246.237 68.7811C245.869 70.3256 245.183 71.7763 244.225 73.0391C243.266 74.3019 242.056 75.3487 240.673 76.1115C239.344 76.8255 238.179 77.8134 237.252 79.0106C236.326 80.2079 235.66 81.5877 235.297 83.0598L227.985 112.848C226.569 118.619 231.201 119.811 236.918 121.215C242.636 122.618 247.358 123.722 248.774 117.951L256.086 88.1627C256.447 86.69 256.495 85.1587 256.229 83.6686C255.962 82.1785 255.387 80.7632 254.54 79.5152Z" fill="#00BE1E"/>
<path d="M255.15 56.8306L250.466 55.681C249.48 55.4389 248.483 56.0497 248.238 57.0452L248.044 57.8381C247.799 58.8336 248.401 59.8369 249.387 60.0789L254.07 61.2286C255.056 61.4706 256.054 60.8598 256.298 59.8643L256.493 59.0714C256.737 58.0759 256.136 57.0727 255.15 56.8306Z" fill="#00BE1E"/>
</g>
<g clip-path="url(#clip3_1343_2699)">
<path d="M239.057 85.354C237.586 84.7774 236.25 83.8967 235.136 82.7691C234.021 81.6415 233.153 80.2922 232.587 78.8085L229.317 70.6403C228.976 69.7731 228.31 69.0744 227.463 68.697C226.616 68.3197 225.657 68.2942 224.796 68.6262C223.937 68.9633 223.248 69.6298 222.878 70.4803C222.509 71.3308 222.49 72.296 222.825 73.1652L226.096 81.3335C226.681 82.8094 226.953 84.3908 226.893 85.9751C226.833 87.5594 226.444 89.1113 225.749 90.5302C225.072 91.8775 224.685 93.3555 224.614 94.8676C224.543 96.3797 224.79 97.8919 225.338 99.3054L236.457 127.892C238.611 133.43 243.088 131.746 248.574 129.612C254.061 127.478 258.561 125.671 256.407 120.132L245.288 91.5457C244.738 90.1332 243.898 88.8516 242.824 87.7847C241.751 86.7177 240.467 85.8895 239.057 85.354Z" fill="#00BE1E"/>
<path d="M226.53 66.4317L222.036 68.1798C221.089 68.5479 220.623 69.6208 220.995 70.5761L221.291 71.337C221.663 72.2924 222.731 72.7685 223.677 72.4004L228.172 70.6522C229.118 70.2842 229.584 69.2113 229.213 68.2559L228.917 67.4951C228.545 66.5397 227.477 66.0636 226.53 66.4317Z" fill="#00BE1E"/>
</g>
<g clip-path="url(#clip4_1343_2699)">
<path d="M114.386 118.027H105.415L103.951 107.188H115.85L114.386 118.027ZM109.844 162.764C124.281 162.764 136.094 165.393 136.094 151.804V142.915C136.094 129.325 124.281 118.206 109.844 118.206C95.4063 118.206 83.5938 129.325 83.5938 142.915V151.804C83.5938 165.393 95.4063 162.764 109.844 162.764Z" fill="#FBDE3F"/>
<path d="M114.712 119.409H105.242C104.748 119.409 104.344 119.005 104.344 118.51V115.03C104.344 114.536 104.748 114.132 105.242 114.132H114.712C115.206 114.132 115.61 114.536 115.61 115.03V118.511C115.61 119.005 115.206 119.409 114.712 119.409Z" fill="white"/>
<path d="M114.712 119.878H105.243C104.489 119.878 103.875 119.265 103.875 118.51V115.03C103.875 114.276 104.489 113.662 105.243 113.662H114.712C115.466 113.662 116.08 114.276 116.08 115.03V118.51C116.08 119.265 115.466 119.878 114.712 119.878ZM105.243 114.601C105.129 114.601 105.02 114.646 104.939 114.727C104.859 114.807 104.813 114.916 104.813 115.03V118.51C104.813 118.624 104.859 118.733 104.939 118.814C105.02 118.894 105.129 118.94 105.243 118.94H114.712C114.826 118.94 114.935 118.894 115.016 118.814C115.096 118.733 115.141 118.624 115.141 118.51V115.03C115.141 114.916 115.096 114.807 115.016 114.727C114.935 114.646 114.826 114.601 114.712 114.601H105.243Z" fill="#222433"/>
<path d="M104.044 123.348C103.959 123.348 103.875 123.324 103.802 123.28C103.729 123.236 103.67 123.174 103.63 123.098C103.59 123.023 103.571 122.938 103.576 122.853C103.58 122.768 103.608 122.686 103.656 122.616L105.812 119.421C105.846 119.37 105.891 119.326 105.942 119.292C105.993 119.258 106.051 119.234 106.111 119.223C106.172 119.211 106.234 119.211 106.294 119.223C106.355 119.236 106.412 119.26 106.463 119.294C106.514 119.329 106.558 119.373 106.592 119.424C106.626 119.476 106.65 119.533 106.661 119.594C106.673 119.654 106.673 119.717 106.66 119.777C106.648 119.837 106.624 119.895 106.59 119.946L104.433 123.141C104.39 123.205 104.332 123.257 104.264 123.293C104.196 123.329 104.121 123.348 104.044 123.348ZM109.954 122.868C109.829 122.868 109.71 122.819 109.622 122.731C109.534 122.643 109.485 122.523 109.485 122.399V119.443C109.485 119.319 109.534 119.2 109.622 119.112C109.71 119.024 109.829 118.974 109.954 118.974C110.078 118.974 110.198 119.024 110.286 119.112C110.374 119.2 110.423 119.319 110.423 119.443V122.399C110.423 122.523 110.374 122.643 110.286 122.731C110.198 122.819 110.078 122.868 109.954 122.868ZM112.593 114.487C112.525 114.487 112.457 114.472 112.395 114.443C112.333 114.414 112.278 114.372 112.234 114.32C112.19 114.267 112.158 114.206 112.14 114.14C112.122 114.074 112.119 114.005 112.13 113.937L112.789 110.139C112.81 110.016 112.879 109.907 112.981 109.835C113.083 109.764 113.209 109.735 113.331 109.757C113.454 109.778 113.563 109.847 113.635 109.949C113.706 110.051 113.735 110.177 113.713 110.299L113.055 114.098C113.036 114.206 112.979 114.305 112.895 114.376C112.81 114.447 112.704 114.486 112.593 114.487ZM106.401 114.504C106.285 114.504 106.174 114.461 106.088 114.383C106.002 114.306 105.947 114.199 105.935 114.084L105.526 110.251C105.52 110.19 105.525 110.128 105.543 110.069C105.56 110.01 105.589 109.955 105.628 109.907C105.667 109.859 105.714 109.819 105.768 109.79C105.823 109.76 105.882 109.742 105.943 109.735C106.004 109.728 106.066 109.734 106.126 109.751C106.185 109.769 106.24 109.798 106.288 109.836C106.336 109.875 106.376 109.923 106.405 109.977C106.435 110.031 106.453 110.091 106.459 110.152L106.868 113.985C106.875 114.05 106.868 114.117 106.848 114.179C106.828 114.242 106.794 114.3 106.75 114.349C106.706 114.398 106.652 114.437 106.592 114.464C106.532 114.49 106.467 114.504 106.401 114.504ZM109.706 114.448C109.583 114.448 109.464 114.399 109.376 114.312C109.289 114.226 109.238 114.108 109.237 113.984L109.2 111.029C109.199 110.967 109.211 110.906 109.233 110.849C109.256 110.792 109.29 110.74 109.333 110.696C109.376 110.651 109.428 110.616 109.484 110.592C109.541 110.568 109.602 110.555 109.663 110.554C109.92 110.553 110.135 110.758 110.138 111.017L110.175 113.973C110.176 114.034 110.165 114.095 110.142 114.153C110.119 114.21 110.085 114.262 110.042 114.306C109.999 114.35 109.948 114.385 109.891 114.41C109.834 114.434 109.774 114.447 109.712 114.448H109.706Z" fill="#222433"/>
</g>
<g clip-path="url(#clip5_1343_2699)">
<path d="M202.971 80.2462H264.998L260.089 162.969H207.879L202.971 80.2462Z" fill="#FBDE3F"/>
<path d="M203.11 79.0625H264.859C266.597 79.0625 267.914 80.1814 267.613 81.4025L265.868 88.4838C265.633 89.4375 264.472 90.1331 263.114 90.1331H204.855C203.497 90.1331 202.335 89.4375 202.1 88.4838L200.355 81.4025C200.055 80.1814 201.372 79.0625 203.11 79.0625Z" fill="#FBDE3F"/>
<path d="M263.858 90.6019H204.112C203.987 90.6019 203.868 90.5525 203.78 90.4645C203.692 90.3766 203.643 90.2573 203.643 90.1329C203.643 90.0085 203.692 89.8892 203.78 89.8013C203.868 89.7133 203.987 89.6639 204.112 89.6639H263.858C263.982 89.6639 264.101 89.7133 264.189 89.8013C264.277 89.8892 264.327 90.0085 264.327 90.1329C264.327 90.2573 264.277 90.3766 264.189 90.4645C264.101 90.5525 263.982 90.6019 263.858 90.6019Z" fill="black"/>
</g>
<g clip-path="url(#clip6_1343_2699)">
<path d="M93.877 56.9557L101.491 61.3547C104.13 62.8794 107.513 61.9629 109.047 59.3075L119.991 40.3652C121.525 37.7098 120.63 34.3211 117.99 32.7964L110.377 28.3975C107.737 26.8727 104.354 27.7893 102.82 30.4447L91.8763 49.3869C90.3421 52.0423 91.2379 55.431 93.877 56.9557Z" fill="#FBDE3F"/>
<path d="M100.208 35.5703C106.715 36.7266 112.603 40.1282 116.854 45.1876L116.855 45.188L111.841 53.8671C107.589 48.8073 101.701 45.4055 95.1941 44.2495L100.208 35.5703Z" fill="white"/>
<path d="M109.611 38.5131C112.495 40.1786 115.068 42.3346 117.213 44.8855C117.275 44.9589 117.312 45.0496 117.32 45.1454C117.329 45.2412 117.307 45.3374 117.259 45.4208L112.245 54.0999C112.207 54.1649 112.154 54.2199 112.091 54.2604C112.028 54.3008 111.956 54.3254 111.882 54.3322C111.807 54.339 111.732 54.3277 111.663 54.2993C111.594 54.2709 111.533 54.2262 111.485 54.1691C107.3 49.1963 101.51 45.8513 95.1115 44.7093C95.0379 44.6962 94.9686 44.6656 94.9095 44.6199C94.8504 44.5742 94.8032 44.5148 94.7719 44.4468C94.7406 44.3789 94.7261 44.3042 94.7296 44.2292C94.7331 44.1543 94.7546 44.0811 94.7922 44.0161L99.8065 35.3369C99.8547 35.2535 99.9273 35.1869 100.014 35.1462C100.102 35.1054 100.199 35.0926 100.293 35.1093C103.575 35.6942 106.727 36.8458 109.611 38.5131ZM116.287 45.2421C112.19 40.489 106.611 37.2654 100.447 36.0902L95.9275 43.912C102.066 45.1546 107.625 48.3663 111.767 53.0635L116.287 45.2421Z" fill="#222433"/>
<path d="M99.6183 55.8074C96.1254 53.7894 92.7399 53.1124 92.0564 54.2954C91.373 55.4783 93.6505 58.0732 97.1434 60.0912C100.636 62.1092 104.022 62.7862 104.705 61.6032C105.389 60.4203 103.111 57.8254 99.6183 55.8074Z" fill="white"/>
<path d="M99.8528 55.4019C101.585 56.4026 103.086 57.5763 104.079 58.7088C105.493 60.3192 105.419 61.2986 105.108 61.8364C104.798 62.3741 103.986 62.9268 101.885 62.506C100.408 62.2116 98.6412 61.4974 96.9092 60.4968C95.1773 59.4961 93.6763 58.3224 92.683 57.1896C91.2687 55.5792 91.3425 54.5997 91.6532 54.062C91.9638 53.5242 92.7756 52.9722 94.877 53.3922C96.354 53.6877 98.1209 54.4013 99.8528 55.4019ZM97.3778 59.6857C99.024 60.6368 100.692 61.313 102.072 61.589C103.464 61.8674 104.144 61.6452 104.302 61.3704C104.711 60.6625 102.999 58.3013 99.3842 56.213C97.7375 55.2616 96.0706 54.5857 94.6906 54.3097C93.298 54.0313 92.6184 54.2534 92.4597 54.5283C92.0506 55.2362 93.7633 57.5974 97.3778 59.6857Z" fill="#222433"/>
<path d="M100.077 58.2662C99.0871 57.6941 98.1176 57.5191 97.9118 57.8753C97.706 58.2315 98.3419 58.984 99.3321 59.5561C100.322 60.1282 101.292 60.3032 101.498 59.947C101.703 59.5908 101.068 58.8383 100.077 58.2662Z" fill="white"/>
<path d="M100.312 57.8607C101.405 58.4923 102.32 59.454 101.901 60.18C101.481 60.906 100.191 60.5932 99.0979 59.9617C98.0048 59.3302 97.0893 58.3685 97.5088 57.6425C97.9283 56.9165 99.2187 57.2293 100.312 57.8607ZM101.012 59.6662C100.874 59.4425 100.494 59.0476 99.8431 58.6718C99.1925 58.296 98.6603 58.1642 98.3981 58.1563C98.5356 58.38 98.9162 58.7749 99.5664 59.1506C100.217 59.5263 100.749 59.6583 101.012 59.6662Z" fill="#222433"/>
</g>
<g clip-path="url(#clip7_1343_2699)">
<path d="M31.8561 162.436L35.9608 155.117C36.4383 154.261 36.13 153.18 35.2721 152.704C35.1656 152.645 35.0533 152.596 34.9368 152.56C34.5545 152.443 34.1439 152.459 33.7713 152.604C33.3988 152.749 33.086 153.015 32.8836 153.359L30.9832 156.595L31.0277 151.826C31.0289 151.616 30.9886 151.408 30.9093 151.214C30.83 151.02 30.7131 150.843 30.5654 150.694C30.4176 150.545 30.2419 150.426 30.0482 150.345C29.8546 150.263 29.6468 150.221 29.4366 150.22H29.4278C29.0152 150.219 28.6184 150.378 28.3203 150.663C28.0221 150.948 27.8457 151.336 27.8278 151.748L27.6287 156.893L26.0128 154.422C25.7906 154.085 25.4491 153.844 25.0567 153.749C24.6643 153.653 24.2501 153.709 23.8973 153.905L23.6858 154.024C23.3193 154.232 23.05 154.577 22.9365 154.982C22.823 155.387 22.8744 155.821 23.0796 156.189L26.6279 162.436" fill="white"/>
<path d="M31.8557 162.969C31.9506 162.969 32.0438 162.944 32.1257 162.896C32.2076 162.848 32.2752 162.779 32.3216 162.697L36.4263 155.377C36.5749 155.113 36.6694 154.821 36.7044 154.52C36.7394 154.219 36.7142 153.914 36.6302 153.622C36.5478 153.331 36.4083 153.058 36.2198 152.821C36.0312 152.583 35.7973 152.385 35.5316 152.239C35.3931 152.162 35.247 152.099 35.0957 152.052C34.0653 151.738 32.9678 152.164 32.4238 153.089L31.5353 154.603L31.5611 151.831C31.5675 150.655 30.6159 149.694 29.4398 149.688H29.4378C28.2807 149.688 27.3449 150.582 27.2952 151.724L27.1606 155.203L26.4596 154.131C25.8472 153.203 24.6083 152.9 23.6377 153.44L23.4244 153.56C22.4095 154.137 22.047 155.432 22.6139 156.448L26.164 162.699C26.198 162.761 26.244 162.815 26.2993 162.859C26.3545 162.903 26.418 162.936 26.4859 162.955C26.5539 162.974 26.625 162.98 26.6951 162.971C26.7652 162.963 26.833 162.941 26.8944 162.906C26.9559 162.871 27.0098 162.824 27.053 162.769C27.0963 162.713 27.128 162.649 27.1464 162.581C27.1647 162.513 27.1694 162.442 27.16 162.372C27.1506 162.302 27.1274 162.235 27.0918 162.174L23.5435 155.926C23.2621 155.422 23.4434 154.774 23.9495 154.487L24.1588 154.369C24.6421 154.1 25.2616 154.251 25.5672 154.714L27.1819 157.184C27.2438 157.279 27.3341 157.351 27.44 157.391C27.5458 157.431 27.6616 157.436 27.7707 157.406C27.8797 157.376 27.9764 157.312 28.0466 157.224C28.1169 157.135 28.1571 157.027 28.1614 156.914L28.3605 151.768C28.3725 151.494 28.4901 151.235 28.6887 151.046C28.8873 150.857 29.1516 150.751 29.4263 150.752H29.4273C30.0218 150.756 30.4977 151.236 30.4945 151.823L30.45 156.59C30.4489 156.708 30.4867 156.822 30.5575 156.916C30.6282 157.009 30.728 157.077 30.8413 157.108C30.9546 157.139 31.075 157.132 31.1839 157.088C31.2928 157.044 31.3841 156.965 31.4436 156.864L33.3439 153.628C33.4851 153.386 33.7039 153.2 33.9649 153.098C34.2258 152.997 34.5135 152.987 34.781 153.069C34.8616 153.094 34.9393 153.128 35.013 153.169C35.3033 153.33 35.5135 153.595 35.6045 153.914C35.6955 154.233 35.6566 154.568 35.495 154.858L31.3908 162.176C31.3454 162.257 31.3219 162.349 31.3228 162.442C31.3237 162.535 31.3489 162.625 31.3959 162.706C31.4429 162.786 31.51 162.852 31.5907 162.898C31.6713 162.945 31.7627 162.969 31.8557 162.969Z" fill="#222433"/>
</g>
<g clip-path="url(#clip8_1343_2699)">
<path d="M138.706 28.9304C136.313 28.9304 134.374 26.9926 134.374 24.6022C134.374 22.2118 136.313 20.274 138.706 20.274C141.098 20.274 143.037 22.2118 143.037 24.6022C143.037 26.9926 141.098 28.9304 138.706 28.9304Z" fill="white"/>
<path d="M138.705 29.4204C139.659 29.4204 140.591 29.1378 141.384 28.6084C142.177 28.0789 142.795 27.3264 143.16 26.446C143.525 25.5656 143.621 24.5969 143.435 23.6622C143.249 22.7276 142.789 21.8691 142.115 21.1953C141.441 20.5214 140.581 20.0625 139.646 19.8766C138.711 19.6907 137.741 19.7861 136.86 20.1508C135.979 20.5155 135.226 21.133 134.696 21.9254C134.166 22.7177 133.883 23.6493 133.883 24.6022C133.885 25.8796 134.393 27.1043 135.297 28.0076C136.201 28.9109 137.427 29.4189 138.705 29.4204ZM138.705 20.764C139.465 20.764 140.208 20.9891 140.839 21.4109C141.471 21.8326 141.963 22.4321 142.254 23.1334C142.545 23.8347 142.621 24.6065 142.473 25.351C142.325 26.0955 141.959 26.7794 141.422 27.3162C140.884 27.853 140.2 28.2185 139.455 28.3666C138.71 28.5147 137.937 28.4387 137.235 28.1482C136.534 27.8577 135.934 27.3658 135.512 26.7346C135.089 26.1034 134.864 25.3613 134.864 24.6022C134.865 23.5846 135.27 22.609 135.991 21.8895C136.711 21.1699 137.687 20.7652 138.705 20.764Z" fill="#222433"/>
<path d="M140.109 82.7589L135.753 89.5562C135.852 90.8922 135.533 92.226 134.84 93.3728C133.099 96.1608 130.974 97.5426 132.654 102.451C133.413 104.664 134.89 107.862 132.77 108.505C131.299 108.951 129.419 105.283 127.937 102.625C128.264 106.988 128.697 112.701 126.734 112.966C124.771 113.23 124.076 109.108 123.685 103.452C123.031 109.728 123.541 113.132 121.626 113.163C119.587 113.198 119.112 107.991 119.408 102.989L121.708 91.7784C122.152 90.3266 122.625 88.8743 123.209 87.4259C123.298 87.136 123.408 86.8533 123.54 86.5801L132.072 68.5081L132.292 64.0254L141.402 66.9855L140.109 82.7589Z" fill="white"/>
<path d="M121.606 113.653H121.634C123.327 113.626 123.577 111.836 123.774 108.822C124.171 111.138 124.711 112.451 125.467 113.067C125.649 113.222 125.862 113.337 126.092 113.403C126.322 113.469 126.563 113.486 126.8 113.451C128.864 113.174 128.859 109.058 128.584 104.795C129.988 107.267 131.43 109.422 132.913 108.974C133.17 108.906 133.41 108.784 133.617 108.617C133.824 108.449 133.994 108.24 134.114 108.003C134.734 106.766 134.031 104.825 133.411 103.113C133.308 102.829 133.208 102.554 133.118 102.292C131.822 98.5059 132.856 97.0585 134.286 95.0555C134.605 94.6088 134.935 94.1472 135.256 93.6324C135.976 92.4466 136.324 91.0718 136.253 89.6863L140.523 83.0233C140.566 82.9559 140.592 82.8789 140.599 82.7991L141.892 67.0256C141.901 66.9156 141.873 66.8058 141.811 66.7139C141.75 66.622 141.66 66.5534 141.555 66.5193L132.444 63.5597C132.373 63.5364 132.297 63.5299 132.222 63.5408C132.148 63.5516 132.076 63.5795 132.014 63.6223C131.952 63.665 131.901 63.7215 131.864 63.7873C131.828 63.8531 131.807 63.9264 131.803 64.0016L131.588 68.387L123.097 86.3706C122.959 86.6587 122.842 86.9566 122.747 87.2619C122.123 88.8135 121.635 90.3425 121.24 91.6349C121.235 91.6496 121.231 91.6647 121.228 91.6795L118.929 102.89C118.924 102.913 118.921 102.937 118.92 102.96C118.775 105.403 118.625 111.279 120.363 113.09C120.52 113.264 120.711 113.404 120.926 113.501C121.14 113.598 121.371 113.65 121.606 113.653ZM123.685 102.962C123.564 102.962 123.447 103.007 123.357 103.088C123.267 103.169 123.21 103.281 123.198 103.401C123.018 105.124 122.928 106.604 122.848 107.909C122.646 111.202 122.519 112.659 121.618 112.673C121.513 112.674 121.409 112.651 121.314 112.605C121.219 112.56 121.136 112.494 121.07 112.412C120.083 111.383 119.623 107.712 119.896 103.053L122.184 91.8995C122.574 90.6266 123.054 89.123 123.665 87.6092C123.67 87.5961 123.675 87.5828 123.679 87.5692C123.761 87.303 123.862 87.0433 123.983 86.7923L132.516 68.7177C132.543 68.6596 132.559 68.5967 132.562 68.5325L132.751 64.6902L140.883 67.3322L139.632 82.5979L135.341 89.2925C135.284 89.3816 135.257 89.4867 135.265 89.5922C135.358 90.8272 135.063 92.0605 134.421 93.1201C134.119 93.6032 133.799 94.0523 133.488 94.4866C132.009 96.5583 130.732 98.3472 132.191 102.61C132.288 102.89 132.388 103.169 132.489 103.447C133.015 104.898 133.669 106.704 133.238 107.564C133.176 107.682 133.09 107.786 132.985 107.867C132.88 107.949 132.758 108.007 132.629 108.037C131.653 108.332 129.823 105.021 128.729 103.043C128.606 102.819 128.484 102.6 128.366 102.387C128.312 102.29 128.226 102.214 128.122 102.172C128.018 102.13 127.904 102.125 127.797 102.157C127.69 102.189 127.597 102.256 127.534 102.348C127.47 102.44 127.44 102.551 127.449 102.663L127.451 102.696C127.615 104.88 127.8 107.356 127.705 109.324C127.576 111.967 127.001 112.436 126.669 112.481C126.565 112.496 126.46 112.488 126.359 112.458C126.259 112.429 126.166 112.377 126.087 112.308C124.854 111.304 124.406 106.754 124.175 103.419C124.167 103.296 124.113 103.182 124.024 103.097C123.935 103.013 123.817 102.965 123.694 102.962L123.685 102.962Z" fill="#222433"/>
<path d="M164.124 104.224L164.192 141.74L146.857 141.737L140.508 108.83L139.932 105.858L164.124 104.224Z" fill="white"/>
<path d="M164.192 142.231C164.322 142.231 164.447 142.179 164.539 142.087C164.631 141.995 164.683 141.87 164.683 141.741L164.614 104.224C164.614 104.157 164.6 104.091 164.573 104.03C164.546 103.968 164.507 103.913 164.458 103.867C164.409 103.821 164.351 103.786 164.288 103.764C164.225 103.741 164.158 103.732 164.091 103.736L139.899 105.37C139.83 105.374 139.762 105.394 139.701 105.427C139.64 105.459 139.586 105.505 139.544 105.56C139.501 105.615 139.471 105.678 139.455 105.746C139.439 105.813 139.438 105.883 139.451 105.952L140.027 108.924L146.375 141.83C146.397 141.941 146.457 142.042 146.545 142.115C146.632 142.187 146.743 142.227 146.857 142.227L164.192 142.231ZM163.634 104.748L163.701 141.25L147.262 141.247L140.989 108.737L140.519 106.309L163.634 104.748Z" fill="#222433"/>
<path d="M146.159 140.746C146.582 145.705 143.251 149.896 138.526 151.472C136.528 152.138 132.722 153.967 130.752 154.709C127.16 156.061 124.783 158.981 125.096 162.655H164.698L164.684 140.78L146.159 140.746Z" fill="#00BE1E"/>
<path d="M159.945 113.184C160.485 114.151 162.827 116.791 162.827 116.791L185.674 142.774L202.52 134.979L183.845 105.185" fill="white"/>
<path d="M185.674 143.264C185.745 143.264 185.816 143.249 185.88 143.219L202.725 135.423C202.789 135.394 202.845 135.352 202.89 135.299C202.936 135.247 202.97 135.185 202.989 135.118C203.009 135.051 203.015 134.981 203.005 134.912C202.996 134.843 202.972 134.777 202.935 134.718L184.26 104.924C184.191 104.814 184.081 104.736 183.954 104.707C183.827 104.678 183.694 104.7 183.584 104.769C183.474 104.838 183.395 104.948 183.366 105.075C183.337 105.201 183.36 105.334 183.429 105.445L201.808 134.768L185.801 142.176L163.195 116.467C162.551 115.742 160.794 113.7 160.373 112.946C160.341 112.89 160.299 112.84 160.249 112.8C160.198 112.76 160.14 112.731 160.078 112.713C160.016 112.696 159.951 112.69 159.888 112.698C159.824 112.705 159.762 112.725 159.705 112.757C159.649 112.788 159.6 112.83 159.56 112.88C159.52 112.931 159.49 112.989 159.473 113.051C159.455 113.113 159.45 113.177 159.457 113.241C159.465 113.305 159.485 113.367 159.516 113.423C160.075 114.424 162.362 117.006 162.459 117.116L185.306 143.098C185.352 143.15 185.408 143.192 185.472 143.221C185.535 143.249 185.604 143.264 185.674 143.264Z" fill="#222433"/>
<path d="M151.857 89.8286L159.538 113.33L183.681 104.695L173.392 81.2436C173.47 80.7687 173.526 80.2856 173.56 79.7944C173.942 74.2449 171.293 69.2373 167.115 66.6216L162.86 66.5979L140.654 67.4724L139.276 106.676H157.363" fill="white"/>
<path d="M159.538 113.82C159.594 113.82 159.65 113.81 159.703 113.791L183.846 105.156C183.909 105.133 183.967 105.098 184.016 105.052C184.065 105.006 184.104 104.95 184.131 104.889C184.157 104.827 184.171 104.76 184.171 104.693C184.171 104.626 184.157 104.56 184.13 104.498L173.899 81.1789C173.968 80.7309 174.019 80.2802 174.05 79.8279C174.434 74.2437 171.876 69.0243 167.375 66.2064C167.298 66.158 167.209 66.1321 167.118 66.1316L162.863 66.1079H162.841L140.635 66.9825C140.511 66.9874 140.394 67.0388 140.306 67.1264C140.219 67.214 140.168 67.3313 140.164 67.4549L138.786 106.658C138.784 106.724 138.795 106.79 138.818 106.851C138.842 106.913 138.878 106.969 138.923 107.016C138.969 107.063 139.024 107.101 139.085 107.127C139.145 107.152 139.211 107.166 139.276 107.166H157.008L159.072 113.482C159.104 113.58 159.166 113.666 159.25 113.726C159.334 113.787 159.435 113.82 159.538 113.82V113.82ZM183.02 104.41L159.848 112.699L157.833 106.535C157.831 106.527 157.829 106.52 157.826 106.513L152.323 89.6765C152.28 89.557 152.191 89.4591 152.077 89.4035C151.963 89.3478 151.831 89.3388 151.71 89.3783C151.589 89.4178 151.488 89.5027 151.429 89.6152C151.369 89.7276 151.356 89.8587 151.391 89.9808L156.687 106.186H139.784L141.128 67.944L162.869 67.0872L166.972 67.1101C171.093 69.7527 173.428 74.5859 173.072 79.7601C173.039 80.2295 172.985 80.7015 172.908 81.1632C172.893 81.2568 172.905 81.3528 172.943 81.4396L183.02 104.41Z" fill="#222433"/>
<path d="M184.711 142.469C192.862 150.859 186.849 154.704 186.849 154.704C185.115 155.144 183.595 156.186 182.558 157.642C181.521 159.099 181.036 160.876 181.188 162.656H195.553L214.062 148.595L202.751 134.265L184.711 142.469Z" fill="#00BE1E"/>
<path d="M127.96 156.267C128.043 156.327 128.143 156.359 128.245 156.359H164.692V155.379H129.298C128.828 155.637 128.381 155.934 127.96 156.267Z" fill="#222433"/>
<path d="M137.291 155.865C137.291 155.995 137.342 156.12 137.434 156.212C137.526 156.304 137.651 156.355 137.781 156.355H144.851C146.603 156.354 148.283 155.658 149.522 154.421C150.761 153.183 151.457 151.504 151.458 149.753C151.46 149.224 151.672 148.716 152.047 148.342C152.422 147.968 152.93 147.757 153.461 147.756H164.688L164.686 146.776H153.46C152.67 146.777 151.913 147.091 151.354 147.649C150.795 148.206 150.48 148.963 150.477 149.752C150.476 151.243 149.883 152.672 148.828 153.726C147.773 154.78 146.343 155.373 144.851 155.375H137.782C137.652 155.377 137.529 155.43 137.438 155.521C137.346 155.613 137.294 155.736 137.291 155.865H137.291ZM182.106 158.359C182.18 158.404 182.265 158.427 182.351 158.426H187.463C188.778 158.425 190.052 157.97 191.07 157.137L197.244 152.079L200.154 149.696L209.129 142.345L208.521 141.576C208.517 141.577 208.514 141.579 208.511 141.582L201.527 147.304L199.531 148.938L196.621 151.321C196.618 151.323 196.615 151.325 196.613 151.328C196.61 151.331 196.607 151.333 196.605 151.336L190.447 156.38C189.605 157.068 188.551 157.445 187.463 157.446H182.701C182.482 157.736 182.283 158.041 182.106 158.359Z" fill="#222433"/>
<path d="M196.552 152.011C196.598 152.067 196.656 152.112 196.722 152.143C196.788 152.174 196.86 152.19 196.933 152.19C197.046 152.191 197.156 152.151 197.243 152.079L200.153 149.696C200.926 149.065 201.425 148.159 201.545 147.168C201.664 146.177 201.396 145.179 200.795 144.382C200.567 144.077 200.402 143.731 200.308 143.362C200.215 142.994 200.195 142.611 200.25 142.235C200.305 141.858 200.434 141.497 200.629 141.17C200.824 140.844 201.082 140.559 201.387 140.333L205.253 137.465C205.258 137.462 205.262 137.458 205.266 137.453L204.659 136.684L200.803 139.546C200.395 139.848 200.05 140.228 199.789 140.664C199.528 141.1 199.355 141.582 199.28 142.085C199.206 142.587 199.231 143.1 199.355 143.592C199.478 144.085 199.698 144.549 200.001 144.957C200.002 144.958 200.014 144.973 200.016 144.975C200.463 145.57 200.662 146.315 200.572 147.054C200.481 147.793 200.108 148.469 199.53 148.939L196.621 151.321C196.618 151.323 196.615 151.325 196.612 151.328C196.515 151.411 196.454 151.529 196.442 151.657C196.431 151.785 196.47 151.912 196.552 152.011Z" fill="#222433"/>
<path d="M128.223 90.1313C127.773 92.7366 125.581 94.6911 124.042 97.2787C121.913 100.852 120.219 102.941 119.239 102.915C116.986 102.855 120.364 97.2756 121.709 91.7787" fill="white"/>
<path d="M119.262 103.405C120.062 103.405 121.384 102.697 124.462 97.5292C124.972 96.703 125.523 95.9031 126.113 95.1323C127.283 93.5528 128.387 92.0618 128.705 90.2146C128.717 90.1507 128.717 90.0851 128.703 90.0216C128.689 89.9581 128.663 89.8979 128.626 89.8446C128.589 89.7912 128.542 89.7458 128.487 89.7109C128.432 89.676 128.371 89.6523 128.307 89.6413C128.243 89.6302 128.177 89.632 128.114 89.6466C128.05 89.6611 127.991 89.6881 127.938 89.7259C127.885 89.7637 127.84 89.8117 127.806 89.867C127.772 89.9223 127.749 89.9838 127.739 90.048C127.46 91.6649 126.423 93.0663 125.325 94.5496C124.715 95.3464 124.146 96.1738 123.62 97.0284C120.572 102.143 119.463 102.425 119.257 102.425H119.251C119.082 102.42 119.05 102.372 119.039 102.357C118.703 101.858 119.541 99.6294 120.28 97.6626C120.942 95.9008 121.693 93.9041 122.184 91.895C122.2 91.8322 122.204 91.7668 122.194 91.7025C122.185 91.6383 122.163 91.5765 122.13 91.5208C122.097 91.4651 122.053 91.4166 122 91.378C121.948 91.3395 121.889 91.3117 121.826 91.2963C121.762 91.2809 121.697 91.2782 121.633 91.2883C121.569 91.2984 121.507 91.3212 121.452 91.3552C121.396 91.3893 121.348 91.434 121.311 91.4867C121.273 91.5395 121.246 91.5992 121.231 91.6625C120.754 93.6145 120.014 95.5823 119.362 97.3182C118.305 100.129 117.607 101.987 118.225 102.904C118.337 103.064 118.487 103.194 118.661 103.281C118.836 103.368 119.029 103.411 119.224 103.404C119.237 103.405 119.249 103.405 119.262 103.405Z" fill="#222433"/>
<path d="M167.116 66.6199L168.011 55.8875L171.636 45.34C172.02 44.2205 172.128 43.025 171.95 41.8549C171.773 40.6849 171.315 39.5749 170.617 38.6192C169.919 37.6635 169 36.8903 167.938 36.3653C166.877 35.8403 165.704 35.579 164.52 35.6036C164.097 35.5888 163.674 35.6048 163.254 35.6514L156.768 35.9534L144.345 36.7701L143.333 36.8259C142.65 36.8983 141.531 36.8913 140.37 37.3564C138.487 38.111 135.602 39.5037 135.113 43.5352L134.159 51.389L140.586 66.6589L167.116 66.6199Z" fill="white"/>
<path d="M140.585 67.149L167.116 67.1099C167.239 67.1097 167.357 67.0634 167.448 66.9802C167.538 66.897 167.594 66.7829 167.604 66.6606L168.494 55.989L172.099 45.4993C172.508 44.3064 172.623 43.0325 172.435 41.7856C172.246 40.5387 171.76 39.3555 171.016 38.3364C170.273 37.3173 169.295 36.4923 168.165 35.9312C167.035 35.3702 165.786 35.0897 164.524 35.1135C164.087 35.099 163.65 35.1154 163.216 35.1625L156.744 35.4638L144.312 36.2804L143.306 36.336C143.297 36.336 143.289 36.3371 143.281 36.3379C143.154 36.3513 143.012 36.3618 142.856 36.3732C142.155 36.4256 141.194 36.497 140.186 36.9009C138.688 37.5013 135.179 38.9071 134.625 43.4755L133.671 51.3292C133.66 51.4138 133.672 51.4996 133.705 51.5782L140.132 66.8481C140.169 66.9374 140.232 67.0136 140.313 67.0672C140.394 67.1207 140.489 67.1492 140.585 67.149ZM166.665 66.1306L140.911 66.1685L134.661 51.319L135.6 43.5936C136.027 40.0752 138.343 38.6959 140.553 37.8105C141.42 37.4631 142.257 37.4007 142.93 37.3507C143.078 37.3405 143.225 37.3282 143.372 37.3138L144.371 37.2586L156.799 36.442L163.276 36.141C163.286 36.141 163.296 36.1397 163.305 36.1387C163.702 36.0949 164.101 36.0798 164.5 36.0933H164.53C165.338 36.077 166.143 36.2029 166.907 36.4652C167.76 36.7576 168.547 37.2151 169.222 37.8114C169.898 38.4077 170.45 39.1312 170.846 39.9405C171.242 40.7499 171.474 41.6292 171.53 42.5284C171.586 43.4275 171.464 44.3289 171.171 45.181L167.547 55.7283C167.534 55.7666 167.525 55.8065 167.522 55.8469L166.665 66.1306Z" fill="#222433"/>
<path d="M105.719 45.283C106.901 45.4136 108.063 45.5933 109.462 45.8319C108.23 45.3922 107.106 45.0316 106.102 44.718L102.902 43.7054C101.144 43.0896 100.276 42.5412 100.499 41.5465C101.191 38.4645 113.633 42.0871 117.597 44.4864C120.084 45.9939 122.626 47.3357 125.06 49.063C125.441 49.0942 125.818 49.1631 126.185 49.2686L150.856 56.319L151.432 54.955L151.422 54.9583C152.182 53.1628 153.625 51.7424 155.432 51.0096C156.328 50.6467 157.286 50.4636 158.251 50.4707C159.217 50.4777 160.173 50.6748 161.062 51.0507C161.952 51.4266 162.759 51.9739 163.437 52.6614C164.115 53.3489 164.651 54.1631 165.014 55.0575C165.748 56.8639 165.733 58.8874 164.973 60.6829L161.867 68.0326L161.727 68.3675C161.013 70.0439 159.672 71.3751 157.99 72.077C156.307 72.7789 154.417 72.7957 152.722 72.124L123.408 60.5041C122.255 60.9224 121.007 61.0051 119.81 60.7424C118.612 60.4797 117.513 59.8825 116.642 59.0202C114.339 56.6732 113.496 54.2838 108.326 54.7623C105.995 54.9779 102.536 55.659 102.408 53.4557C102.32 51.9253 106.331 50.96 109.265 50.145C106.787 49.7413 104.008 48.9067 102.01 48.2029L99.7129 47.186C98.5146 46.4356 99.1571 44.5826 100.563 44.7325L105.719 45.283Z" fill="white"/>
<path d="M155.299 73.1091C156.766 73.1069 158.199 72.6746 159.422 71.8658C160.645 71.057 161.603 69.9073 162.178 68.5593L162.32 68.2223L165.426 60.8736C166.236 58.9584 166.252 56.8 165.469 54.8732C164.687 52.9464 163.171 51.4091 161.254 50.5994C159.337 49.7897 157.177 49.774 155.249 50.5556C153.321 51.3373 151.782 52.8524 150.972 54.7676C150.96 54.7946 150.951 54.8227 150.945 54.8514L150.574 55.7286L126.321 48.7968C125.966 48.6952 125.604 48.6249 125.237 48.5868C123.564 47.4086 121.825 46.3967 120.142 45.4183C119.389 44.9802 118.61 44.5271 117.852 44.0677C114.439 42.0016 104.34 38.8492 101.141 40.2111C100.37 40.5395 100.107 41.0604 100.022 41.4394C99.6801 42.9584 101.178 43.6205 102.741 44.1678L104.193 44.6278L100.615 44.2461C100.205 44.2024 99.7926 44.2989 99.4445 44.5197C99.0964 44.7406 98.8335 45.0728 98.6987 45.4622C98.5638 45.8516 98.565 46.2752 98.7021 46.6638C98.8392 47.0524 99.104 47.3831 99.4534 47.6019C99.4732 47.6142 99.4938 47.6251 99.515 47.6346L101.812 48.6515C101.823 48.6567 101.835 48.6614 101.848 48.6655C103.586 49.2775 105.355 49.7973 107.148 50.2227C104.353 51.0155 101.829 51.9157 101.92 53.4845C101.926 53.7496 101.988 54.0104 102.102 54.2499C102.215 54.4894 102.379 54.7023 102.58 54.8746C103.637 55.7665 105.692 55.5405 107.504 55.3414C107.804 55.3087 108.096 55.276 108.372 55.2509C112.36 54.8811 113.524 56.2256 115.136 58.0861C115.496 58.5011 115.868 58.9301 116.293 59.3638C117.209 60.2672 118.357 60.9005 119.611 61.1939C120.864 61.4874 122.174 61.4297 123.397 61.0271L152.541 72.58C153.419 72.929 154.355 73.1085 155.299 73.1091ZM158.207 50.9604C159.34 50.9619 160.455 51.2433 161.452 51.7795C162.449 52.3158 163.298 53.0903 163.923 54.0339C164.549 54.9776 164.93 56.0611 165.035 57.188C165.139 58.3148 164.963 59.4499 164.522 60.4922L161.275 68.1779C160.619 69.7427 159.373 70.9865 157.806 71.6398C156.239 72.2931 154.478 72.3034 152.903 71.6685L123.589 60.0486C123.477 60.0044 123.353 60.0026 123.241 60.0434C122.175 60.4267 121.023 60.5013 119.916 60.2586C118.81 60.0159 117.795 59.4657 116.988 58.6714C116.589 58.2646 116.227 57.8471 115.877 57.4434C114.21 55.5196 112.769 53.8585 108.281 54.2737C108 54.2997 107.702 54.3323 107.396 54.366C105.86 54.535 103.947 54.7452 103.213 54.1249C103.113 54.0379 103.034 53.9305 102.98 53.81C102.925 53.6895 102.898 53.5588 102.898 53.4267C102.888 53.2498 103.032 52.7675 104.581 52.1108C105.743 51.618 107.305 51.1902 108.683 50.8131L109.397 50.6171C109.505 50.5872 109.599 50.5214 109.664 50.4307C109.729 50.34 109.762 50.2297 109.755 50.1182C109.749 50.0067 109.705 49.9007 109.631 49.8176C109.556 49.7346 109.455 49.6795 109.345 49.6615C106.475 49.1941 103.4 48.1721 102.191 47.7473L99.947 46.7536C99.7918 46.6479 99.6763 46.4935 99.6189 46.3147C99.5616 46.136 99.5656 45.9432 99.6304 45.767C99.6952 45.5908 99.817 45.4413 99.9765 45.3422C100.136 45.2431 100.324 45.2001 100.511 45.22L105.668 45.7701C106.71 45.8844 107.785 46.0428 109.379 46.3146C109.5 46.3353 109.625 46.3099 109.728 46.2434C109.831 46.177 109.906 46.0743 109.937 45.9557C109.968 45.837 109.953 45.711 109.896 45.6026C109.838 45.4942 109.742 45.4112 109.627 45.3701C108.311 44.9005 107.13 44.5249 106.248 44.25L103.051 43.2373C101.17 42.5785 100.865 42.1569 100.978 41.6531C101.011 41.5061 101.103 41.2913 101.525 41.1116C104.162 39.9888 113.794 42.7564 117.343 44.9046C118.109 45.3688 118.891 45.824 119.648 46.264C121.348 47.2534 123.107 48.2763 124.777 49.4616C124.849 49.5126 124.933 49.5432 125.021 49.5504C125.369 49.5791 125.714 49.6421 126.051 49.7386L150.721 56.7902C150.837 56.8232 150.96 56.8128 151.068 56.7612C151.176 56.7095 151.261 56.6201 151.308 56.5098L151.885 55.1457C151.896 55.1198 151.904 55.0929 151.911 55.0655C152.448 53.8444 153.33 52.8061 154.448 52.0772C155.566 51.3482 156.872 50.9602 158.207 50.9604Z" fill="#222433"/>
<path d="M152.666 57.3267C152.785 57.3268 152.9 57.2839 152.989 57.2059C153.079 57.1279 153.137 57.0202 153.153 56.9027C153.169 56.7852 153.142 56.6658 153.076 56.5669C153.011 56.4679 152.912 56.396 152.797 56.3644L150.981 55.8597C150.919 55.8425 150.855 55.8376 150.791 55.8455C150.727 55.8533 150.665 55.8736 150.609 55.9052C150.553 55.9369 150.503 55.9792 150.464 56.0299C150.424 56.0806 150.395 56.1386 150.378 56.2006C150.36 56.2626 150.355 56.3274 150.363 56.3913C150.371 56.4551 150.391 56.5168 150.423 56.5729C150.455 56.6289 150.497 56.6781 150.548 56.7178C150.599 56.7574 150.657 56.7867 150.719 56.8039L152.535 57.3086C152.578 57.3206 152.622 57.3267 152.666 57.3267ZM139.93 53.4758C140.06 53.4758 140.184 53.4242 140.276 53.3323C140.368 53.2404 140.42 53.1158 140.42 52.9858V47.3096C140.42 47.1796 140.368 47.055 140.276 46.9631C140.184 46.8712 140.06 46.8196 139.93 46.8196C139.8 46.8196 139.675 46.8712 139.583 46.9631C139.491 47.055 139.439 47.1796 139.439 47.3096V52.9858C139.439 53.1158 139.491 53.2404 139.583 53.3323C139.675 53.4242 139.8 53.4758 139.93 53.4758Z" fill="#222433"/>
<path d="M150.856 56.8093C150.954 56.8093 151.05 56.78 151.131 56.7251C151.213 56.6703 151.275 56.5923 151.312 56.5014L155.268 46.641C155.291 46.5813 155.303 46.5174 155.303 46.4531C155.302 46.3887 155.289 46.3252 155.263 46.266C155.238 46.2068 155.201 46.1532 155.155 46.1082C155.109 46.0632 155.055 46.0278 154.995 46.0038C154.935 45.9799 154.871 45.9679 154.807 45.9687C154.742 45.9694 154.679 45.9828 154.619 46.0081C154.56 46.0334 154.507 46.0701 154.462 46.1161C154.417 46.1622 154.381 46.2166 154.357 46.2763L150.401 56.1367C150.372 56.2111 150.36 56.2916 150.369 56.3713C150.377 56.451 150.405 56.5274 150.45 56.5938C150.495 56.6602 150.556 56.7146 150.627 56.7521C150.697 56.7897 150.776 56.8093 150.857 56.8093H150.856Z" fill="#222433"/>
<path d="M138.624 19.2941C138.788 20.4374 138.742 20.9577 138.95 21.4877C137.922 22.6292 137.224 24.0279 136.93 25.5347C136.635 27.0415 136.756 28.5999 137.278 30.0437C137.801 31.4874 138.706 32.7624 139.896 33.7327C141.087 34.7029 142.519 35.332 144.04 35.5528L145.601 40.4159C146.064 41.8604 147.077 43.0645 148.423 43.7671C149.768 44.4696 151.336 44.614 152.787 44.1689C154.239 43.7238 155.456 42.7252 156.175 41.3894C156.894 40.0537 157.057 38.4886 156.629 37.0334L153.73 27.2326C154.589 27.4166 155.483 27.3535 156.307 27.0506C157.132 26.7478 157.854 26.2177 158.389 25.5217C158.924 24.8257 159.251 23.9924 159.332 23.1183C159.413 22.2442 159.244 21.3652 158.845 20.5831C158.446 19.8011 157.833 19.148 157.078 18.6997C156.323 18.2513 155.456 18.0261 154.577 18.05C153.699 18.0739 152.846 18.3461 152.116 18.8349C151.387 19.3237 150.81 20.0091 150.455 20.8117L150.23 13.9043H138.951L138.624 19.2941Z" fill="white"/>
<path d="M155.531 24.2122C155.645 24.2124 155.757 24.1722 155.845 24.0988C155.933 24.0254 155.993 23.9233 156.014 23.8104C156.034 23.6976 156.015 23.581 155.958 23.4811C155.902 23.3812 155.812 23.3043 155.704 23.2638L153.959 22.6042L156.818 21.5282C156.94 21.4824 157.038 21.3902 157.092 21.2718C157.146 21.1534 157.15 21.0186 157.104 20.897C157.058 20.7754 156.966 20.6769 156.848 20.6233C156.729 20.5697 156.594 20.5654 156.473 20.6112L152.398 22.1446C152.304 22.1798 152.224 22.2425 152.167 22.3244C152.111 22.4063 152.08 22.5035 152.08 22.6031C152.08 22.7027 152.111 22.7999 152.167 22.8818C152.224 22.9637 152.304 23.0264 152.398 23.0616L155.358 24.1802C155.413 24.2012 155.472 24.2121 155.531 24.2122Z" fill="#222433"/>
<path d="M146.704 21.5171C146.174 21.5171 145.744 21.0878 145.744 20.5583C145.744 20.0288 146.174 19.5996 146.704 19.5996C147.234 19.5996 147.663 20.0288 147.663 20.5583C147.663 21.0878 147.234 21.5171 146.704 21.5171Z" fill="#222433"/>
<path d="M136.017 14.4028C136.019 13.1707 136.501 11.9877 137.36 11.1042C138.22 10.2207 139.39 9.70621 140.622 9.66954C140.813 8.78575 141.254 7.97526 141.892 7.33395C142.53 6.69264 143.339 6.24736 144.222 6.0508C145.105 5.85424 146.027 5.91462 146.877 6.22481C147.727 6.53499 148.47 7.08199 149.019 7.80108C149.724 7.39182 150.523 7.1714 151.338 7.16116C152.154 7.15093 152.958 7.35123 153.673 7.74267C154.389 8.13411 154.991 8.70343 155.421 9.39552C155.852 10.0876 156.096 10.879 156.131 11.6932C156.929 11.7958 157.689 12.0923 158.346 12.5566C159.003 13.0208 159.536 13.6388 159.899 14.3565C160.262 15.0742 160.443 15.8698 160.427 16.6736C160.411 17.4774 160.198 18.2651 159.807 18.9678C160.305 19.5193 160.672 20.1756 160.883 20.8882C161.093 21.6007 161.14 22.3514 161.021 23.0846C160.902 23.8178 160.619 24.515 160.195 25.1246C159.77 25.7342 159.213 26.2406 158.566 26.6066C158.568 26.6637 158.57 26.7225 158.57 26.7813C158.568 27.8145 158.229 28.8189 157.605 29.642C156.98 30.4651 156.103 31.0618 155.108 31.3414L153.893 27.2321C154.494 27.3606 155.114 27.3688 155.718 27.256C156.322 27.1433 156.898 26.912 157.412 26.5754C157.926 26.2389 158.368 25.8038 158.713 25.2953C159.057 24.7869 159.298 24.2152 159.42 23.6133C159.542 23.0115 159.543 22.3915 159.423 21.7891C159.304 21.1868 159.066 20.6142 158.723 20.1043C158.381 19.5945 157.941 19.1576 157.428 18.819C156.915 18.4803 156.34 18.2467 155.737 18.1315C155.655 18.1138 155.573 18.1002 155.49 18.0907C155.284 18.0625 155.076 18.0483 154.867 18.0482C152.971 18.0482 150.85 19.2064 150.127 20.8347L149.69 14.8682L139.855 14.9679C139.821 14.9682 139.787 14.961 139.756 14.9466C139.122 16.4501 138.903 18.0956 139.122 19.7122C138.488 19.7695 138.363 19.8481 138.363 19.8481C137.686 19.97 137.021 20.1532 136.377 20.3952C136.377 19.397 136.693 18.4243 137.281 17.617C136.468 16.7437 136.017 15.5952 136.017 14.4028Z" fill="#00BE1E"/>
<path d="M142.602 24.2547H142.641L144.703 24.2221C145.018 24.2117 145.322 24.0997 145.568 23.9027C145.815 23.7057 145.99 23.4344 146.07 23.1293C146.085 23.0669 146.089 23.002 146.08 22.9383C146.07 22.8746 146.049 22.8134 146.016 22.7581C145.983 22.7028 145.939 22.6545 145.888 22.616C145.836 22.5775 145.777 22.5495 145.715 22.5337C145.653 22.5178 145.588 22.5144 145.524 22.5237C145.46 22.5329 145.399 22.5546 145.344 22.5875C145.288 22.6204 145.24 22.6639 145.201 22.7154C145.163 22.767 145.135 22.8257 145.119 22.888C145.094 22.9866 145.037 23.0743 144.958 23.1382C144.878 23.2021 144.781 23.2386 144.679 23.2424L142.616 23.2751C142.598 23.2764 142.579 23.2749 142.56 23.2707C142.518 23.2606 142.482 23.2353 142.458 23.1997C142.434 23.1641 142.423 23.1209 142.429 23.0783L143.576 19.7583C143.619 19.6355 143.611 19.5008 143.554 19.3839C143.497 19.2669 143.396 19.1774 143.273 19.1349C143.15 19.0925 143.015 19.1005 142.898 19.1574C142.781 19.2142 142.691 19.3152 142.649 19.4381L141.492 22.7881C141.486 22.8032 141.482 22.8185 141.478 22.8341C141.437 23.0036 141.436 23.1801 141.473 23.3503C141.511 23.5205 141.586 23.68 141.695 23.8168C141.803 23.9536 141.94 24.0641 142.097 24.14C142.254 24.2159 142.426 24.2552 142.601 24.2551L142.602 24.2547ZM143.564 30.267C144.969 30.267 146.437 29.0899 146.526 26.8381C146.529 26.7709 146.517 26.7039 146.493 26.6412C146.469 26.5785 146.432 26.5215 146.384 26.4737C146.337 26.4265 146.28 26.3894 146.218 26.3644C146.155 26.3395 146.089 26.3274 146.021 26.3287L141.329 26.4693C141.264 26.4712 141.2 26.4859 141.141 26.5125C141.082 26.5391 141.029 26.5771 140.985 26.6244C140.941 26.6716 140.906 26.7271 140.884 26.7876C140.861 26.8482 140.851 26.9126 140.853 26.9772C140.938 29.2475 142.274 30.2653 143.561 30.267H143.564ZM145.49 27.3251C145.259 28.6154 144.394 29.287 143.564 29.287H143.562C142.881 29.286 142.08 28.7895 141.877 27.4333L145.49 27.3251Z" fill="#222433"/>
<path d="M140.813 21.6804C140.283 21.6804 139.853 21.2512 139.853 20.7217C139.853 20.1922 140.283 19.7629 140.813 19.7629C141.343 19.7629 141.772 20.1922 141.772 20.7217C141.772 21.2512 141.343 21.6804 140.813 21.6804Z" fill="#222433"/>
<path d="M151.1 44.9087C152.071 44.9078 153.03 44.6807 153.899 44.2455C154.767 43.8103 155.523 43.1789 156.105 42.4014C156.688 41.6238 157.081 40.7214 157.253 39.7658C157.426 38.8101 157.374 37.8273 157.1 36.8954L154.415 27.8167C154.512 27.822 154.609 27.8247 154.706 27.8249C155.631 27.8246 156.539 27.5748 157.333 27.1018C158.128 26.6288 158.78 25.9502 159.221 25.1376C159.662 24.325 159.875 23.4086 159.838 22.4851C159.8 21.5615 159.514 20.6652 159.01 19.8906C158.505 19.116 157.8 18.492 156.97 18.0844C156.14 17.6767 155.215 17.5006 154.293 17.5746C153.371 17.6486 152.486 17.97 151.732 18.5048C150.977 19.0396 150.381 19.768 150.007 20.6131C149.954 20.732 149.951 20.8669 149.998 20.9882C150.044 21.1094 150.138 21.2072 150.256 21.2598C150.375 21.3125 150.51 21.3158 150.632 21.269C150.753 21.2222 150.851 21.1292 150.904 21.0104C151.222 20.2932 151.737 19.681 152.39 19.2444C153.042 18.8079 153.805 18.565 154.589 18.5438C155.374 18.5227 156.149 18.7242 156.824 19.125C157.499 19.5258 158.046 20.1094 158.403 20.8084C158.759 21.5073 158.91 22.2929 158.839 23.0741C158.767 23.8552 158.475 24.6001 157.996 25.2222C157.518 25.8444 156.873 26.3184 156.136 26.5894C155.4 26.8604 154.601 26.9172 153.833 26.7533C153.75 26.7356 153.664 26.7399 153.583 26.7656C153.502 26.7913 153.429 26.8376 153.372 26.8999C153.314 26.9622 153.273 27.0384 153.254 27.121C153.235 27.2037 153.237 27.2899 153.261 27.3713L156.16 37.1721C156.551 38.5033 156.4 39.9346 155.742 41.156C155.084 42.3774 153.971 43.2905 152.643 43.6974C151.316 44.1043 149.882 43.9724 148.651 43.3301C147.421 42.6878 146.493 41.5869 146.069 40.266L144.508 35.4032C144.48 35.3159 144.428 35.2381 144.358 35.1788C144.288 35.1196 144.202 35.0811 144.111 35.0679C142.679 34.8601 141.329 34.2675 140.207 33.3534C139.085 32.4393 138.232 31.238 137.74 29.8776C137.247 28.5172 137.134 27.0487 137.411 25.6289C137.688 24.209 138.346 22.891 139.314 21.8154C139.375 21.7478 139.416 21.6647 139.432 21.5753C139.449 21.4859 139.44 21.3937 139.407 21.3091L139.34 21.1415C139.166 20.7684 139.089 20.3578 139.115 19.9471C139.115 19.8171 139.063 19.6925 138.971 19.6006C138.879 19.5087 138.755 19.4571 138.625 19.4571C138.494 19.4571 138.37 19.5087 138.278 19.6006C138.186 19.6925 138.134 19.8171 138.134 19.9471C138.109 20.441 138.195 20.9342 138.384 21.3911C137.373 22.5949 136.696 24.0432 136.421 25.5907C136.146 27.1383 136.282 28.7309 136.817 30.2091C137.352 31.6872 138.266 32.9991 139.468 34.0132C140.669 35.0274 142.117 35.7083 143.665 35.9878L145.134 40.565C145.541 41.8263 146.338 42.9261 147.41 43.7066C148.481 44.487 149.773 44.9079 151.1 44.9087Z" fill="#222433"/>
</g>
<g clip-path="url(#clip9_1343_2699)">
<path d="M285.52 163.546H11.3555C11.1465 163.546 10.9375 163.274 10.9375 163.003C10.9375 162.731 11.1465 162.459 11.3555 162.459H285.52C285.729 162.459 285.938 162.731 285.938 163.003C285.938 163.274 285.729 163.546 285.52 163.546Z" fill="#333333"/>
</g>
<g clip-path="url(#clip10_1343_2699)">
<path d="M274.222 162.655C274.117 162.663 274.011 162.642 273.917 162.595C273.822 162.549 273.742 162.477 273.685 162.389C273.628 162.301 273.596 162.199 273.592 162.094C273.588 161.989 273.613 161.885 273.664 161.793L276.398 156.849C276.474 156.715 276.599 156.616 276.748 156.574C276.897 156.532 277.056 156.549 277.192 156.623C277.327 156.697 277.428 156.821 277.472 156.968C277.517 157.115 277.501 157.274 277.428 157.41L274.694 162.353C274.647 162.439 274.579 162.511 274.497 162.564C274.415 162.616 274.32 162.647 274.223 162.655L274.222 162.655Z" fill="#222433"/>
<path d="M273.669 162.362L270.858 157.463C270.82 157.396 270.795 157.323 270.786 157.246C270.776 157.17 270.782 157.093 270.802 157.019C270.844 156.87 270.943 156.743 271.078 156.667C271.214 156.59 271.374 156.57 271.524 156.611C271.675 156.652 271.802 156.751 271.879 156.885L273.575 159.842L273.547 156.212C273.546 156.057 273.607 155.908 273.716 155.798C273.825 155.688 273.974 155.625 274.13 155.624C274.285 155.623 274.435 155.683 274.546 155.792C274.657 155.9 274.72 156.048 274.721 156.203L274.766 162.069C274.767 162.198 274.725 162.323 274.646 162.426C274.567 162.529 274.457 162.602 274.331 162.636C274.206 162.669 274.073 162.661 273.953 162.611C273.833 162.561 273.733 162.474 273.669 162.362Z" fill="#222433"/>
</g>
<g clip-path="url(#clip11_1343_2699)">
<path d="M174.843 162.967C174.743 162.975 174.642 162.955 174.552 162.911C174.462 162.866 174.386 162.798 174.331 162.713C174.277 162.629 174.246 162.532 174.243 162.432C174.239 162.331 174.263 162.232 174.311 162.144L176.918 157.42C176.99 157.292 177.11 157.197 177.252 157.157C177.393 157.116 177.545 157.133 177.675 157.204C177.804 157.274 177.9 157.393 177.942 157.533C177.985 157.674 177.969 157.826 177.9 157.955L175.293 162.679C175.248 162.761 175.184 162.83 175.105 162.88C175.027 162.93 174.937 162.96 174.844 162.967L174.843 162.967Z" fill="#222433"/>
<path d="M174.316 162.688L171.636 158.006C171.599 157.942 171.576 157.872 171.567 157.799C171.558 157.727 171.563 157.653 171.583 157.582C171.622 157.44 171.717 157.318 171.846 157.245C171.975 157.172 172.128 157.153 172.271 157.192C172.414 157.232 172.536 157.326 172.609 157.454L174.227 160.28L174.2 156.811C174.199 156.663 174.256 156.521 174.361 156.415C174.465 156.31 174.607 156.25 174.755 156.249C174.904 156.248 175.047 156.306 175.152 156.409C175.258 156.513 175.318 156.655 175.319 156.802L175.362 162.408C175.363 162.531 175.323 162.651 175.247 162.749C175.172 162.847 175.067 162.917 174.947 162.949C174.828 162.981 174.701 162.973 174.587 162.926C174.473 162.878 174.377 162.795 174.316 162.688Z" fill="#222433"/>
</g>
<g clip-path="url(#clip12_1343_2699)">
<path d="M49.7892 162.828C49.6593 162.789 49.5493 162.701 49.4815 162.583C49.4137 162.465 49.3931 162.325 49.4239 162.192L52.2599 149.924C52.2921 149.784 52.378 149.663 52.4986 149.587C52.6193 149.511 52.7648 149.486 52.9032 149.518C53.0416 149.55 53.1615 149.635 53.2366 149.757C53.3117 149.878 53.3358 150.024 53.3036 150.163L50.4674 162.431C50.4351 162.571 50.3492 162.692 50.2286 162.768C50.1079 162.844 49.9624 162.869 49.8241 162.837C49.812 162.834 49.8006 162.831 49.7892 162.828ZM53.5088 146.748C53.4232 146.722 53.3455 146.675 53.2828 146.612C53.22 146.548 53.1742 146.469 53.1494 146.383L51.7139 141.374C51.6745 141.237 51.691 141.089 51.7598 140.964C51.8285 140.838 51.9438 140.745 52.0804 140.705C52.2169 140.665 52.3635 140.681 52.4879 140.749C52.6123 140.818 52.7043 140.934 52.7436 141.071L54.1797 146.08C54.2065 146.173 54.2077 146.272 54.1833 146.366C54.1589 146.46 54.1098 146.545 54.0412 146.614C53.9725 146.682 53.8869 146.731 53.7933 146.754C53.6996 146.778 53.6015 146.776 53.5093 146.748L53.5088 146.748Z" fill="#222433"/>
<path d="M53.5088 146.748C53.3787 146.709 53.2686 146.621 53.2006 146.503C53.1326 146.385 53.112 146.245 53.1428 146.111L54.366 140.818C54.382 140.748 54.4113 140.683 54.4522 140.625C54.4932 140.568 54.545 140.519 54.6048 140.481C54.7254 140.405 54.8709 140.38 55.0093 140.412C55.1477 140.443 55.2676 140.529 55.3427 140.65C55.4178 140.772 55.4419 140.918 55.4097 141.057L54.6527 144.333L56.7589 141.995C56.8063 141.943 56.8635 141.9 56.9272 141.869C56.9909 141.839 57.0599 141.822 57.1302 141.818C57.2005 141.814 57.2707 141.825 57.3369 141.849C57.4031 141.872 57.4639 141.909 57.516 141.957C57.568 142.004 57.6101 142.061 57.64 142.125C57.6699 142.189 57.687 142.259 57.6903 142.329C57.6935 142.4 57.6829 142.471 57.659 142.538C57.6351 142.604 57.5984 142.666 57.551 142.718L54.0606 146.592C53.9924 146.668 53.9044 146.723 53.8067 146.75C53.709 146.778 53.6057 146.777 53.5088 146.748Z" fill="#222433"/>
<path d="M48.1561 149.634L48.5266 148.036C48.8492 146.638 48.6831 145.173 48.0562 143.888L47.5952 142.945L60.5671 145.93L59.7383 146.576C58.6095 147.457 57.8161 148.701 57.4928 150.1L57.1223 151.698C56.9854 152.291 56.7339 152.851 56.3823 153.347C56.0306 153.843 55.5856 154.265 55.0727 154.588C54.5598 154.912 53.9891 155.131 53.3931 155.233C52.7971 155.335 52.1875 155.317 51.5991 155.182L51.5967 155.182C50.4078 154.909 49.3774 154.171 48.732 153.131C48.0867 152.091 47.8793 150.834 48.1555 149.636L48.1561 149.634Z" fill="#FBDE3F"/>
</g>
<g clip-path="url(#clip13_1343_2699)">
<path d="M236.719 41.5625H181.875C193.645 41.5625 198.045 29.3028 204.248 29.2193C210.452 29.1359 212.883 38.0296 219.41 36.0188C228.833 33.1225 232.604 40.5117 236.719 41.5625Z" fill="#FBDE3F"/>
</g>
<g clip-path="url(#clip14_1343_2699)">
<path d="M54.8438 22.8125H88.4375C81.2278 22.8125 78.533 15.3635 74.733 15.3129C70.933 15.2622 69.4438 20.6659 65.4459 19.4441C59.6743 17.6844 57.3643 22.174 54.8438 22.8125Z" fill="#FBDE3F"/>
</g>
<g clip-path="url(#clip15_1343_2699)">
<path d="M248.49 151.631C249.915 151.631 251.069 150.468 251.069 149.033C251.069 147.597 249.915 146.434 248.49 146.434C247.066 146.434 245.911 147.597 245.911 149.033C245.911 150.468 247.066 151.631 248.49 151.631Z" fill="white"/>
<path d="M248.491 152.128C247.883 152.128 247.289 151.946 246.784 151.606C246.279 151.266 245.885 150.783 245.653 150.217C245.42 149.651 245.359 149.029 245.478 148.429C245.597 147.828 245.889 147.277 246.319 146.844C246.748 146.411 247.296 146.116 247.892 145.997C248.487 145.878 249.105 145.939 249.666 146.173C250.228 146.407 250.707 146.804 251.045 147.313C251.383 147.822 251.563 148.42 251.563 149.033C251.562 149.853 251.238 150.64 250.662 151.22C250.086 151.8 249.305 152.127 248.491 152.128ZM248.491 146.931C248.078 146.931 247.675 147.054 247.332 147.285C246.989 147.516 246.721 147.844 246.563 148.228C246.405 148.612 246.364 149.035 246.445 149.443C246.525 149.85 246.724 150.225 247.016 150.519C247.307 150.813 247.679 151.013 248.084 151.094C248.489 151.175 248.908 151.134 249.289 150.975C249.67 150.815 249.996 150.546 250.226 150.2C250.455 149.855 250.577 149.448 250.577 149.033C250.576 148.475 250.357 147.941 249.965 147.547C249.574 147.153 249.044 146.931 248.491 146.931Z" fill="#222433"/>
<path d="M240.655 154.197C241.78 154.197 242.692 153.278 242.692 152.144C242.692 151.011 241.78 150.092 240.655 150.092C239.53 150.092 238.618 151.011 238.618 152.144C238.618 153.278 239.53 154.197 240.655 154.197Z" fill="white"/>
<path d="M240.655 154.693C240.154 154.693 239.665 154.544 239.249 154.264C238.833 153.983 238.509 153.585 238.318 153.12C238.126 152.654 238.076 152.141 238.174 151.647C238.271 151.153 238.512 150.698 238.866 150.342C239.22 149.985 239.671 149.743 240.161 149.644C240.652 149.546 241.161 149.596 241.623 149.789C242.085 149.982 242.48 150.309 242.758 150.728C243.036 151.147 243.185 151.64 243.185 152.144C243.184 152.82 242.917 153.468 242.443 153.946C241.969 154.424 241.326 154.692 240.655 154.693ZM240.655 150.588C240.349 150.588 240.051 150.68 239.797 150.851C239.543 151.022 239.345 151.265 239.228 151.549C239.111 151.833 239.081 152.146 239.14 152.448C239.2 152.75 239.347 153.027 239.563 153.244C239.779 153.462 240.054 153.61 240.354 153.67C240.653 153.73 240.964 153.699 241.246 153.582C241.528 153.464 241.769 153.264 241.939 153.009C242.108 152.753 242.199 152.452 242.199 152.144C242.198 151.732 242.036 151.336 241.746 151.045C241.457 150.753 241.064 150.589 240.655 150.588ZM244.679 162.969C244.603 162.969 244.528 162.951 244.46 162.917C244.391 162.882 244.332 162.833 244.286 162.771C244.24 162.71 244.209 162.639 244.195 162.563C244.181 162.487 244.184 162.41 244.205 162.336L248.017 148.896C248.034 148.833 248.063 148.774 248.104 148.722C248.144 148.67 248.194 148.627 248.25 148.595C248.307 148.563 248.37 148.543 248.434 148.535C248.499 148.527 248.564 148.533 248.627 148.551C248.689 148.569 248.748 148.599 248.799 148.64C248.85 148.681 248.892 148.732 248.923 148.789C248.955 148.846 248.974 148.91 248.981 148.975C248.988 149.04 248.983 149.106 248.964 149.169L245.153 162.608C245.124 162.712 245.062 162.803 244.976 162.868C244.891 162.933 244.787 162.969 244.679 162.969Z" fill="#222433"/>
<path d="M244.68 162.969C244.581 162.969 244.484 162.939 244.402 162.883C244.321 162.827 244.257 162.747 244.221 162.654L240.196 152.326C240.148 152.204 240.151 152.067 240.203 151.946C240.255 151.825 240.353 151.73 240.474 151.682C240.596 151.634 240.732 151.636 240.852 151.689C240.972 151.741 241.066 151.84 241.114 151.962L245.138 162.29C245.168 162.365 245.179 162.447 245.17 162.527C245.161 162.608 245.132 162.685 245.087 162.752C245.042 162.819 244.981 162.873 244.91 162.911C244.839 162.949 244.76 162.969 244.68 162.969Z" fill="#222433"/>
</g>
<g clip-path="url(#clip16_1343_2699)">
<path d="M279.255 123.109L263.454 119.963C260.766 119.427 259.022 116.799 259.559 114.093C260.096 111.387 262.711 109.627 265.399 110.163L281.197 113.309C283.886 113.844 285.63 116.471 285.093 119.178C284.557 121.884 281.943 123.644 279.255 123.109ZM264.622 114.082C264.365 114.036 264.101 114.093 263.886 114.24C263.671 114.388 263.522 114.615 263.471 114.872C263.42 115.129 263.472 115.396 263.614 115.614C263.757 115.833 263.979 115.987 264.234 116.042L280.032 119.188C280.288 119.234 280.552 119.177 280.768 119.03C280.983 118.882 281.132 118.655 281.183 118.398C281.233 118.141 281.182 117.874 281.039 117.656C280.897 117.437 280.674 117.283 280.42 117.228L264.622 114.082Z" fill="white"/>
<path d="M279.46 123.665C279.359 123.651 279.257 123.634 279.154 123.613L279.154 123.613L263.354 120.467C261.92 120.182 260.684 119.351 259.872 118.128C259.061 116.906 258.771 115.437 259.058 113.994C259.344 112.55 260.172 111.304 261.388 110.485C262.605 109.667 264.064 109.373 265.498 109.659L281.297 112.805C282.731 113.09 283.967 113.92 284.779 115.143C285.591 116.365 285.88 117.834 285.594 119.277C285.024 122.154 282.311 124.067 279.46 123.665ZM279.354 122.604C281.764 123.085 284.111 121.502 284.592 119.078C284.824 117.904 284.589 116.71 283.929 115.715C283.269 114.721 282.263 114.045 281.097 113.813L265.298 110.667C264.133 110.434 262.945 110.674 261.955 111.34C260.966 112.006 260.293 113.019 260.06 114.193C259.827 115.367 260.062 116.561 260.722 117.556C261.382 118.55 262.388 119.226 263.554 119.458L279.354 122.604ZM279.998 119.704C279.979 119.701 279.96 119.698 279.941 119.694L264.133 116.546C263.329 116.372 262.82 115.605 262.964 114.799C263.036 114.401 263.257 114.054 263.587 113.823C263.917 113.592 264.314 113.503 264.712 113.575L264.721 113.577L280.519 116.723C281.323 116.898 281.833 117.665 281.688 118.471C281.653 118.667 281.581 118.854 281.474 119.021C281.367 119.189 281.228 119.333 281.066 119.446C280.755 119.665 280.374 119.757 279.998 119.704ZM264.512 114.585C264.391 114.568 264.27 114.597 264.17 114.667C264.117 114.704 264.073 114.75 264.039 114.804C264.005 114.857 263.981 114.917 263.97 114.98C263.947 115.104 263.974 115.231 264.043 115.336C264.112 115.44 264.22 115.513 264.342 115.54L280.132 118.684C280.25 118.706 280.377 118.677 280.483 118.603C280.535 118.566 280.58 118.52 280.614 118.466C280.648 118.413 280.672 118.353 280.683 118.29C280.705 118.166 280.679 118.039 280.61 117.934C280.54 117.83 280.433 117.757 280.311 117.731L264.526 114.587L264.512 114.585Z" fill="#222433"/>
<path d="M275.658 136.06C273.861 135.703 269.396 131.408 269.396 131.408C269.396 131.408 275.16 129.15 276.959 129.509C278.755 129.867 279.921 131.624 279.562 133.433C279.202 135.242 277.454 136.418 275.658 136.06ZM261.834 133.308C263.631 133.665 269.396 131.408 269.396 131.408C269.396 131.408 264.932 127.114 263.134 126.755C261.344 126.36 259.572 127.5 259.175 129.302C258.779 131.104 259.909 132.886 261.699 133.281C261.744 133.291 261.789 133.3 261.834 133.308Z" fill="#00BE1E"/>
<path d="M263.165 162.97C263.097 162.961 263.03 162.937 262.971 162.901C262.912 162.864 262.86 162.816 262.82 162.759C262.78 162.702 262.751 162.637 262.737 162.569C262.722 162.501 262.722 162.43 262.736 162.361L270.853 121.436C270.865 121.369 270.891 121.305 270.928 121.248C270.965 121.191 271.013 121.142 271.069 121.104C271.125 121.065 271.188 121.039 271.254 121.025C271.32 121.011 271.389 121.011 271.455 121.024C271.521 121.038 271.585 121.064 271.641 121.102C271.697 121.14 271.745 121.189 271.782 121.246C271.819 121.302 271.845 121.366 271.857 121.433C271.87 121.5 271.869 121.569 271.855 121.635L263.738 162.561C263.712 162.689 263.639 162.804 263.532 162.88C263.426 162.956 263.295 162.988 263.165 162.97Z" fill="#222433"/>
</g>
<g clip-path="url(#clip17_1343_2699)">
<path d="M36.1212 112.346L32.6537 117.567L27.4351 114.072C26.6245 113.531 25.9275 112.836 25.3841 112.026C24.8406 111.216 24.4612 110.306 24.2675 109.35C24.0739 108.394 24.0698 107.41 24.2555 106.454C24.4412 105.497 24.813 104.588 25.3498 103.777L25.3627 103.757L28.8303 98.5361L34.0489 102.031C34.8595 102.572 35.5565 103.268 36.0999 104.078C36.6434 104.888 37.0228 105.797 37.2165 106.753C37.4101 107.709 37.4142 108.693 37.2285 109.65C37.0428 110.606 36.671 111.516 36.1342 112.327L36.1212 112.346Z" fill="white"/>
<path d="M32.8493 117.981C32.7782 118.015 32.6995 118.029 32.6209 118.024C32.5423 118.018 32.4665 117.991 32.4009 117.948L27.1822 114.452C25.4445 113.292 24.2351 111.489 23.82 109.44C23.405 107.39 23.8183 105.262 24.969 103.523L24.9821 103.503L28.45 98.2817C28.5169 98.1809 28.6211 98.1111 28.7396 98.0876C28.8581 98.064 28.9813 98.0887 29.082 98.1561L34.3007 101.651C36.0384 102.811 37.2477 104.614 37.6628 106.664C38.0778 108.714 37.6646 110.842 36.5139 112.58L36.5008 112.6L33.033 117.822C32.9873 117.891 32.9238 117.946 32.8493 117.981ZM28.9572 99.1705L25.7305 104.028C25.2264 104.789 24.8771 105.643 24.7025 106.54C24.528 107.438 24.5316 108.362 24.7132 109.259C24.8948 110.157 25.2509 111.01 25.761 111.77C26.2711 112.531 26.9253 113.184 27.6862 113.692L32.5255 116.933L35.7535 112.073C36.7706 110.536 37.1358 108.654 36.7688 106.843C36.4018 105.031 35.3326 103.437 33.7965 102.412L28.9572 99.1705Z" fill="#222433"/>
<path d="M41.957 163.314C41.9231 163.33 41.8873 163.341 41.8505 163.349C41.7918 163.36 41.7314 163.36 41.6726 163.349C41.6138 163.337 41.5579 163.314 41.508 163.28C41.4581 163.247 41.4153 163.204 41.3819 163.154C41.3485 163.104 41.3252 163.048 41.3134 162.989L30.4402 108.864C30.4163 108.745 30.4405 108.621 30.5074 108.521C30.5744 108.42 30.6786 108.35 30.7972 108.326C30.9158 108.303 31.039 108.328 31.1398 108.395C31.2405 108.462 31.3106 108.567 31.3345 108.686L42.2077 162.811C42.2279 162.911 42.2142 163.015 42.1687 163.106C42.1233 163.197 42.0487 163.27 41.957 163.314ZM29.0269 98.9498C28.993 98.9658 28.9572 98.9776 28.9205 98.9849C28.8618 98.9965 28.8013 98.9965 28.7425 98.9847C28.6837 98.973 28.6278 98.9497 28.5779 98.9163C28.5281 98.8829 28.4852 98.84 28.4518 98.79C28.4184 98.74 28.3951 98.684 28.3833 98.6251L27.3968 93.7149C27.3729 93.596 27.3971 93.4725 27.464 93.3717C27.531 93.2709 27.6352 93.201 27.7538 93.1775C27.8723 93.1539 27.9956 93.1786 28.0963 93.2461C28.197 93.3135 28.2671 93.4183 28.291 93.5373L29.2774 98.4474C29.2975 98.5474 29.2838 98.6511 29.2384 98.7421C29.193 98.8331 29.1186 98.9062 29.0269 98.9498Z" fill="#222433"/>
<path d="M29.0259 98.9502C28.9291 98.9959 28.8193 99.006 28.7156 98.9786C28.6119 98.9512 28.521 98.8881 28.4589 98.8004L25.569 94.7238C25.5331 94.6749 25.5072 94.6193 25.4929 94.5603C25.4786 94.5012 25.4761 94.44 25.4856 94.3801C25.4951 94.3202 25.5165 94.2628 25.5483 94.2114C25.5802 94.1599 25.622 94.1153 25.6713 94.0803C25.7206 94.0452 25.7764 94.0203 25.8354 94.0072C25.8944 93.994 25.9555 93.9927 26.0151 94.0034C26.0747 94.0142 26.1316 94.0367 26.1825 94.0697C26.2335 94.1027 26.2773 94.1455 26.3117 94.1956L29.2016 98.2723C29.2402 98.3268 29.2666 98.3892 29.2787 98.4549C29.2908 98.5207 29.2884 98.5883 29.2716 98.6529C29.2549 98.7175 29.2242 98.7776 29.1817 98.829C29.1393 98.8803 29.0861 98.9217 29.0259 98.9502Z" fill="#222433"/>
<path d="M29.0259 98.9498C28.9485 98.9865 28.8624 99.0005 28.7772 98.9903C28.6921 98.9801 28.6115 98.9461 28.5447 98.8921C28.4778 98.8381 28.4274 98.7664 28.3992 98.6852C28.371 98.6039 28.3662 98.5164 28.3853 98.4327L29.4974 93.5608C29.5278 93.4463 29.6013 93.3482 29.7026 93.2873C29.8038 93.2264 29.9248 93.2073 30.0401 93.2342C30.1554 93.2611 30.2559 93.3318 30.3204 93.4314C30.3849 93.5311 30.4084 93.6518 30.3859 93.7681L29.2745 98.6397C29.2593 98.707 29.229 98.7699 29.1859 98.8236C29.1428 98.8773 29.0881 98.9205 29.0259 98.9498Z" fill="#222433"/>
<path d="M34.9356 124.43C36.7395 123.574 37.505 121.411 36.6454 119.6C35.7859 117.788 33.6268 117.013 31.8229 117.868C30.019 118.724 29.2534 120.887 30.113 122.699C30.9725 124.51 33.1317 125.286 34.9356 124.43Z" fill="white"/>
<path d="M35.1319 124.843C34.4045 125.188 33.5907 125.309 32.7933 125.19C31.9959 125.071 31.2509 124.718 30.6523 124.175C30.0537 123.632 29.6285 122.924 29.4305 122.14C29.2324 121.356 29.2704 120.532 29.5397 119.771C29.809 119.01 30.2974 118.348 30.9432 117.867C31.589 117.386 32.3632 117.108 33.1678 117.069C33.9725 117.029 34.7715 117.23 35.4638 117.646C36.1561 118.062 36.7106 118.674 37.0572 119.404C37.5207 120.384 37.5783 121.507 37.2173 122.527C36.8564 123.546 36.1064 124.38 35.1319 124.843ZM32.0193 118.282C31.4548 118.55 30.9827 118.98 30.6627 119.518C30.3428 120.055 30.1894 120.677 30.2218 121.303C30.2543 121.929 30.4713 122.533 30.8453 123.037C31.2192 123.541 31.7334 123.922 32.3228 124.134C32.9123 124.346 33.5504 124.377 34.1566 124.225C34.7628 124.073 35.3097 123.744 35.7284 123.28C36.147 122.815 36.4185 122.236 36.5084 121.616C36.5984 120.996 36.5029 120.362 36.2339 119.795C35.8724 119.035 35.2257 118.449 34.4356 118.166C33.6455 117.882 32.7764 117.924 32.0192 118.282L32.0193 118.282Z" fill="#222433"/>
</g>
<g clip-path="url(#clip18_1343_2699)">
<path d="M61.1798 57.2343L61.1371 55.2182C61.1173 54.2975 61.8534 53.5352 62.7815 53.5154C63.0428 53.5098 63.3018 53.5648 63.5379 53.676L68.6311 56.0697L63.6453 58.6749C62.8231 59.1042 61.8058 58.791 61.3729 57.9752C61.2516 57.7464 61.1855 57.4928 61.1798 57.2343Z" fill="white"/>
<path d="M62.8646 59.3759C62.646 59.3759 62.4264 59.3432 62.2116 59.277C61.936 59.193 61.68 59.0556 61.4584 58.8728C61.2367 58.6899 61.0538 58.4652 60.9203 58.2118C60.7623 57.9133 60.6761 57.5826 60.6683 57.2455V57.2452L60.6256 55.229C60.6187 54.9434 60.669 54.6592 60.7735 54.3929C60.878 54.1267 61.0346 53.8836 61.2344 53.6778C61.4331 53.4709 61.6712 53.3051 61.9349 53.1902C62.1986 53.0752 62.4826 53.0132 62.7706 53.0079C63.1115 53.0008 63.4494 53.0726 63.7575 53.2175L68.8504 55.6106C68.9363 55.651 69.0092 55.7144 69.0608 55.7935C69.1124 55.8727 69.1409 55.9646 69.1429 56.0589C69.1449 56.1532 69.1204 56.2461 69.0721 56.3274C69.0239 56.4087 68.9538 56.475 68.8697 56.519L63.8841 59.1242C63.57 59.2892 63.22 59.3756 62.8646 59.3759ZM61.6919 57.2237C61.696 57.4033 61.742 57.5796 61.8263 57.7386C61.8976 57.8738 61.9951 57.9937 62.1134 58.0912C62.2316 58.1888 62.3682 58.2621 62.5152 58.3069C62.6619 58.3525 62.8163 58.3688 62.9695 58.3548C63.1226 58.3408 63.2715 58.2969 63.4074 58.2255L67.4871 56.0937L63.319 54.135C63.1546 54.0578 62.9744 54.0195 62.7926 54.0231C62.6391 54.0259 62.4877 54.059 62.3471 54.1203C62.2065 54.1816 62.0796 54.27 61.9738 54.3803C61.8672 54.49 61.7837 54.6195 61.728 54.7615C61.6723 54.9034 61.6455 55.0549 61.6492 55.2072L61.6919 57.2237Z" fill="#222433"/>
<path d="M67.4628 48.6755L69.495 48.6332C70.424 48.6169 71.1905 49.3508 71.2069 50.2725C71.2115 50.529 71.1564 50.783 71.046 51.015L68.6316 56.0697L66.0056 51.1182C65.5748 50.3015 65.8928 49.2929 66.7161 48.8655C66.9468 48.7456 67.2024 48.6806 67.4628 48.6755Z" fill="white"/>
<path d="M68.6308 56.5774C68.5376 56.5774 68.4461 56.5521 68.3663 56.5043C68.2865 56.4565 68.2214 56.3879 68.1779 56.3061L65.552 51.3546C64.9904 50.29 65.4061 48.972 66.4781 48.4154C66.779 48.2596 67.1121 48.1748 67.4514 48.1678L69.4836 48.1255C70.6951 48.1046 71.6966 49.0633 71.7181 50.2635C71.7237 50.5979 71.6519 50.9292 71.5083 51.2319L69.0934 56.2869C69.0526 56.3722 68.9888 56.4445 68.909 56.4958C68.8292 56.547 68.7366 56.5753 68.6415 56.5773L68.6308 56.5774ZM69.5244 49.1406L69.5034 49.1408L67.4729 49.1831H67.4724C67.2913 49.1869 67.1136 49.2321 66.953 49.3153C66.6782 49.4584 66.4718 49.7037 66.3791 49.9976C66.2864 50.2914 66.3151 50.6097 66.4587 50.8827L68.6072 54.9339L70.583 50.7975C70.6591 50.6376 70.6978 50.459 70.6947 50.2814C70.6888 49.9772 70.563 49.6873 70.3442 49.4741C70.1254 49.2608 69.8311 49.1411 69.5244 49.1406Z" fill="#222433"/>
</g>
<g clip-path="url(#clip19_1343_2699)">
<path d="M226.324 130.393H221.908C221.679 130.393 221.555 130.263 221.492 130.153C221.43 130.044 221.378 129.872 221.494 129.675L225.351 123.075L227.032 124.008L226.922 116.955L220.851 120.577L222.335 121.401L218.512 127.942C217.795 129.169 217.79 130.637 218.5 131.868C219.209 133.1 220.484 133.835 221.908 133.835H226.324C227.277 133.835 228.05 133.064 228.05 132.114C228.05 131.164 227.277 130.393 226.324 130.393Z" fill="white"/>
<path d="M226.324 134.304H221.908C220.313 134.304 218.886 133.481 218.091 132.102C217.297 130.723 217.302 129.079 218.105 127.705L221.687 121.578L220.622 120.987C220.55 120.947 220.489 120.888 220.447 120.818C220.404 120.747 220.381 120.666 220.38 120.584C220.379 120.502 220.399 120.42 220.439 120.348C220.48 120.276 220.538 120.216 220.609 120.174L226.68 116.552C226.751 116.51 226.832 116.487 226.914 116.486C226.997 116.485 227.079 116.505 227.151 116.545C227.223 116.585 227.283 116.644 227.326 116.714C227.368 116.785 227.391 116.866 227.392 116.948L227.502 124.001C227.503 124.083 227.483 124.165 227.443 124.237C227.403 124.309 227.344 124.369 227.273 124.411C227.202 124.453 227.121 124.476 227.039 124.478C226.956 124.479 226.875 124.458 226.803 124.418L225.525 123.709L221.9 129.911L221.908 129.93L226.324 129.924C227.535 129.924 228.52 130.906 228.52 132.114C228.52 133.322 227.535 134.304 226.324 134.304ZM221.792 120.562L222.564 120.991C222.619 121.021 222.667 121.062 222.705 121.111C222.744 121.16 222.772 121.217 222.789 121.277C222.806 121.337 222.81 121.4 222.802 121.462C222.794 121.524 222.773 121.583 222.742 121.637L218.918 128.178C218.287 129.258 218.283 130.55 218.908 131.634C219.532 132.718 220.654 133.366 221.908 133.366H226.324C227.016 133.366 227.579 132.804 227.579 132.114C227.579 131.424 227.016 130.863 226.324 130.863H221.908C221.558 130.863 221.258 130.689 221.084 130.387C220.91 130.085 220.911 129.739 221.087 129.438L224.945 122.839C225.007 122.733 225.108 122.655 225.227 122.623C225.346 122.59 225.472 122.606 225.58 122.665L226.548 123.203L226.464 117.775L221.792 120.562Z" fill="#222433"/>
<path d="M241.499 114.594L237.303 107.415C236.59 106.196 235.321 105.469 233.907 105.469C232.492 105.469 231.223 106.196 230.51 107.415L228.206 111.358C227.726 112.179 228.004 113.232 228.828 113.711C229.651 114.189 230.708 113.912 231.188 113.091L233.492 109.148C233.607 108.952 233.781 108.911 233.907 108.911C234.032 108.911 234.206 108.952 234.321 109.148L238.51 116.315L236.505 117.469L243.473 121.481V113.458L241.499 114.594Z" fill="white"/>
<path d="M243.472 121.95C243.39 121.95 243.308 121.928 243.237 121.887L236.269 117.876C236.197 117.834 236.138 117.775 236.096 117.704C236.055 117.632 236.033 117.551 236.033 117.469C236.033 117.387 236.055 117.306 236.096 117.234C236.138 117.163 236.197 117.104 236.269 117.063L237.865 116.144L233.913 109.384L233.893 109.381L231.594 113.327C230.984 114.37 229.636 114.725 228.59 114.116C227.544 113.508 227.188 112.165 227.798 111.121L230.103 107.179C230.9 105.814 232.322 105 233.906 105C235.49 105 236.911 105.815 237.709 107.179L241.669 113.954L243.237 113.051C243.309 113.01 243.39 112.988 243.472 112.988C243.555 112.988 243.636 113.01 243.708 113.051C243.779 113.092 243.839 113.152 243.88 113.223C243.921 113.294 243.943 113.375 243.943 113.458V121.481C243.943 121.542 243.931 121.603 243.907 121.66C243.884 121.717 243.849 121.769 243.805 121.813C243.761 121.856 243.71 121.891 243.652 121.914C243.595 121.938 243.534 121.95 243.472 121.95ZM237.445 117.469L243.002 120.668V114.271L241.734 115C241.626 115.062 241.498 115.079 241.377 115.048C241.257 115.016 241.154 114.938 241.092 114.83L236.895 107.651C236.268 106.579 235.151 105.939 233.906 105.939C232.661 105.939 231.543 106.579 230.916 107.651L228.612 111.594C228.263 112.19 228.466 112.958 229.064 113.305C229.662 113.653 230.432 113.45 230.78 112.854L233.085 108.912C233.26 108.613 233.559 108.441 233.906 108.441C234.253 108.441 234.552 108.613 234.727 108.912L238.916 116.078C238.947 116.132 238.967 116.191 238.976 116.252C238.984 116.313 238.98 116.375 238.964 116.435C238.948 116.495 238.921 116.551 238.883 116.6C238.845 116.649 238.798 116.69 238.745 116.721L237.445 117.469Z" fill="#222433"/>
<path d="M249.3 127.942L247.768 125.321C247.289 124.5 246.232 124.222 245.409 124.701C244.585 125.179 244.307 126.233 244.787 127.054L246.319 129.675C246.434 129.872 246.383 130.044 246.32 130.153C246.257 130.263 246.134 130.393 245.904 130.393H238.752V128.07L231.784 132.082L238.752 136.093V133.835H245.904C247.329 133.835 248.603 133.1 249.313 131.868C250.022 130.637 250.018 129.169 249.3 127.942Z" fill="white"/>
<path d="M238.752 136.563C238.67 136.563 238.589 136.541 238.517 136.5L231.549 132.488C231.477 132.447 231.418 132.388 231.377 132.316C231.335 132.245 231.313 132.164 231.313 132.082C231.313 131.999 231.335 131.919 231.377 131.847C231.418 131.776 231.477 131.717 231.549 131.675L238.517 127.664C238.589 127.623 238.67 127.601 238.752 127.601C238.835 127.601 238.916 127.623 238.988 127.664C239.059 127.705 239.119 127.764 239.16 127.836C239.201 127.907 239.223 127.988 239.223 128.07V129.924H245.904L245.917 129.908L244.38 127.29C243.77 126.247 244.125 124.903 245.171 124.295C246.218 123.687 247.566 124.042 248.175 125.084L249.707 127.705C250.51 129.079 250.515 130.723 249.72 132.102C248.926 133.481 247.499 134.304 245.904 134.304H239.223V136.093C239.223 136.218 239.173 136.337 239.085 136.425C238.997 136.513 238.877 136.563 238.752 136.563ZM232.725 132.082L238.282 135.28V133.835C238.282 133.71 238.331 133.591 238.42 133.503C238.508 133.415 238.628 133.365 238.752 133.365H245.904C247.158 133.365 248.28 132.718 248.905 131.634C249.529 130.55 249.525 129.258 248.894 128.178L247.362 125.557C247.014 124.961 246.244 124.759 245.646 125.106C245.048 125.454 244.845 126.221 245.193 126.817L246.725 129.438C246.901 129.739 246.902 130.085 246.728 130.387C246.554 130.689 246.254 130.863 245.905 130.863H238.753C238.628 130.863 238.508 130.813 238.42 130.725C238.332 130.637 238.282 130.518 238.282 130.393V128.883L232.725 132.082Z" fill="#222433"/>
</g>
<defs>
<clipPath id="clip0_1343_2699">
<rect width="67.3438" height="83.9062" fill="white" transform="translate(37.9688 79.0625)"/>
</clipPath>
<clipPath id="clip1_1343_2699">
<rect width="32.8125" height="31.5625" fill="white" transform="translate(55.1562 105)"/>
</clipPath>
<clipPath id="clip2_1343_2699">
<rect width="21.4062" height="66.875" fill="white" transform="translate(242.498 53.725) rotate(13.7914)"/>
</clipPath>
<clipPath id="clip3_1343_2699">
<rect width="21.4062" height="66.875" fill="white" transform="translate(214.389 71.1541) rotate(-21.2534)"/>
</clipPath>
<clipPath id="clip4_1343_2699">
<rect width="52.5" height="55.7812" fill="white" transform="translate(83.5938 107.188)"/>
</clipPath>
<clipPath id="clip5_1343_2699">
<rect width="67.3438" height="83.9062" fill="white" transform="translate(200.312 79.0625)"/>
</clipPath>
<clipPath id="clip6_1343_2699">
<rect width="20.1562" height="34.5313" fill="white" transform="translate(105.636 65.5385) rotate(-149.983)"/>
</clipPath>
<clipPath id="clip7_1343_2699">
<rect width="14.375" height="13.2812" fill="white" transform="matrix(-1 0 0 1 36.7188 149.688)"/>
</clipPath>
<clipPath id="clip8_1343_2699">
<rect width="115.469" height="156.719" fill="white" transform="matrix(-1 0 0 1 214.062 5.9375)"/>
</clipPath>
<clipPath id="clip9_1343_2699">
<rect width="275" height="1.5625" fill="white" transform="translate(10.9375 162.188)"/>
</clipPath>
<clipPath id="clip10_1343_2699">
<rect width="6.71875" height="7.03125" fill="white" transform="translate(270.781 155.625)"/>
</clipPath>
<clipPath id="clip11_1343_2699">
<rect width="6.40625" height="6.71875" fill="white" transform="translate(171.562 156.25)"/>
</clipPath>
<clipPath id="clip12_1343_2699">
<rect width="13.2812" height="22.9688" fill="white" transform="translate(48.915 138.571) rotate(16.7972)"/>
</clipPath>
<clipPath id="clip13_1343_2699">
<rect width="54.8438" height="12.3438" fill="white" transform="translate(181.875 29.2188)"/>
</clipPath>
<clipPath id="clip14_1343_2699">
<rect width="33.5938" height="7.5" fill="white" transform="matrix(-1 0 0 1 88.4375 15.3125)"/>
</clipPath>
<clipPath id="clip15_1343_2699">
<rect width="13.4375" height="17.0312" fill="white" transform="translate(238.125 145.938)"/>
</clipPath>
<clipPath id="clip16_1343_2699">
<rect width="27.0313" height="53.125" fill="white" transform="translate(259.774 108.843) rotate(8.01694)"/>
</clipPath>
<clipPath id="clip17_1343_2699">
<rect width="21.0938" height="69.5312" fill="white" transform="translate(11.7422 100.688) rotate(-25.3798)"/>
</clipPath>
<clipPath id="clip18_1343_2699">
<rect width="11.0938" height="11.25" fill="white" transform="translate(60.625 48.125)"/>
</clipPath>
<clipPath id="clip19_1343_2699">
<rect width="32.8125" height="31.5625" fill="white" transform="translate(217.5 105)"/>
</clipPath>
</defs>
</svg>
