<svg width="254" height="178" viewBox="0 0 254 178" fill="none" xmlns="http://www.w3.org/2000/svg">
<g clip-path="url(#clip0_1252_2516)">
<path d="M63.4102 79.542H94.7275V127.02H63.4102V79.542Z" fill="white"/>
<path d="M63.4101 79.9877H93.461C93.8611 79.9877 94.2739 80.0168 94.6731 79.9877C94.6909 79.9863 94.7093 79.9877 94.7273 79.9877L94.282 79.5419V125.093C94.282 125.706 94.2561 126.326 94.282 126.939C94.2832 126.966 94.282 126.993 94.282 127.02L94.7273 126.574H64.6764C64.2762 126.574 63.8635 126.545 63.4643 126.574C63.4465 126.576 63.428 126.574 63.4101 126.574L63.8553 127.02V81.4692C63.8553 80.8541 63.8663 80.2377 63.8553 79.6226C63.8549 79.5957 63.8553 79.5688 63.8553 79.5419C63.8553 78.9683 62.9648 78.9674 62.9648 79.5419V125.093C62.9648 125.708 62.9539 126.324 62.9648 126.939C62.9653 126.966 62.9648 126.993 62.9648 127.02C62.9648 127.261 63.1688 127.466 63.4101 127.466H90.8802C92.1425 127.466 93.4113 127.503 94.6731 127.466C94.6912 127.465 94.7093 127.466 94.7273 127.466C94.968 127.466 95.1725 127.262 95.1725 127.02V81.4692C95.1725 80.8541 95.1835 80.2377 95.1725 79.6226C95.1721 79.5957 95.1725 79.5688 95.1725 79.5419C95.1725 79.301 94.9686 79.0962 94.7273 79.0962H67.2572C65.9949 79.0962 64.7261 79.0588 63.4643 79.0962C63.4462 79.0968 63.428 79.0962 63.4101 79.0962C62.8371 79.0962 62.8362 79.9877 63.4101 79.9877Z" fill="#1B1464"/>
<path d="M127.636 106.054H34.5889V45.6031H127.636V106.054Z" fill="white"/>
<path d="M127.635 105.597H38.3655C37.1701 105.597 35.9399 105.513 34.7466 105.597C34.6944 105.601 34.6408 105.597 34.5884 105.597L35.045 106.054V46.5198C35.045 46.2559 35.08 45.9646 35.045 45.7025C35.0407 45.6706 35.045 45.6353 35.045 45.603L34.5884 46.06H123.858C125.053 46.06 126.284 46.1442 127.477 46.06C127.529 46.0562 127.583 46.06 127.635 46.06L127.179 45.603V98.6457C127.179 101.077 127.097 103.524 127.179 105.955C127.18 105.988 127.179 106.021 127.179 106.054C127.179 106.642 128.092 106.643 128.092 106.054V53.0116C128.092 50.5802 128.174 48.133 128.092 45.7026C128.091 45.6695 128.092 45.6362 128.092 45.6031C128.092 45.356 127.883 45.1461 127.635 45.1461H38.3656C37.1602 45.1461 35.9521 45.1231 34.7468 45.1461C34.6941 45.1471 34.6413 45.1461 34.5886 45.1461C34.3418 45.1461 34.132 45.3556 34.132 45.6031V98.6457C34.132 101.077 34.0503 103.524 34.132 105.955C34.1332 105.988 34.132 106.021 34.132 106.054C34.132 106.301 34.3413 106.511 34.5886 106.511H123.858C125.064 106.511 126.272 106.534 127.477 106.511C127.53 106.51 127.583 106.511 127.635 106.511C128.223 106.511 128.224 105.597 127.635 105.597Z" fill="#1B1464"/>
<path d="M123.256 93.1287H39.0459V49.3174H123.256V93.1287Z" fill="white"/>
<path d="M123.256 92.6716H42.4638C41.3806 92.6716 40.2702 92.6006 39.1887 92.6716C39.1413 92.6747 39.0929 92.6716 39.0454 92.6716L39.502 93.1286V51.1086C39.502 50.5572 39.5794 49.9414 39.502 49.3939C39.4985 49.3694 39.502 49.3421 39.502 49.3173L39.0454 49.7743H119.838C120.921 49.7743 122.031 49.8453 123.113 49.7743C123.16 49.7711 123.208 49.7743 123.256 49.7743L122.799 49.3173V87.7349C122.799 89.5026 122.732 91.2852 122.799 93.052C122.8 93.0775 122.799 93.1032 122.799 93.1286C122.799 93.7168 123.713 93.7179 123.713 93.1286V54.711C123.713 52.9433 123.78 51.1607 123.713 49.3939C123.711 49.3684 123.713 49.3427 123.713 49.3173C123.713 49.0702 123.503 48.8603 123.256 48.8603H42.4641C41.373 48.8603 40.2798 48.8393 39.1889 48.8603C39.1413 48.8612 39.0935 48.8603 39.0457 48.8603C38.7989 48.8603 38.5892 49.0697 38.5892 49.3173V87.7349C38.5892 89.5026 38.5217 91.2852 38.5892 93.052C38.5902 93.0775 38.5892 93.1032 38.5892 93.1286C38.5892 93.3757 38.7985 93.5856 39.0457 93.5856H119.838C120.929 93.5856 122.022 93.6066 123.113 93.5856C123.16 93.5847 123.208 93.5856 123.256 93.5856C123.843 93.5856 123.844 92.6716 123.256 92.6716ZM241.505 126.518C211.38 126.533 181.254 126.551 151.129 126.572C121.177 126.592 91.2253 126.614 61.2734 126.637C44.3721 126.65 27.4706 126.663 10.5692 126.677C10.0242 126.677 10.0234 127.525 10.5692 127.524C40.6802 127.501 70.7911 127.477 100.902 127.455C130.858 127.433 160.814 127.412 190.77 127.394C207.681 127.384 224.593 127.374 241.505 127.366C242.05 127.366 242.051 126.518 241.505 126.518L241.505 126.518ZM241.505 49.2396C230.121 49.2399 218.737 49.2436 207.353 49.2492C196.034 49.2549 184.715 49.2626 173.397 49.2711C167.01 49.2758 160.623 49.2809 154.236 49.2858C153.663 49.2862 153.662 50.1776 154.236 50.1772C165.615 50.1683 176.994 50.1594 188.372 50.1518C199.692 50.1442 211.012 50.138 222.333 50.1344C228.723 50.1323 235.114 50.1311 241.505 50.131C242.078 50.131 242.079 49.2396 241.505 49.2396Z" fill="#1B1464"/>
<path d="M28.5273 61.9594L41.8937 59.8579L43.6204 70.8642L30.2542 72.9657L28.5273 61.9594Z" fill="#FF89D8"/>
<path d="M139.835 127.341H156.584C157.356 127.341 158.132 127.365 158.904 127.341C158.915 127.341 158.925 127.341 158.936 127.341C159.509 127.341 159.51 126.45 158.936 126.45H142.188C141.416 126.45 140.64 126.426 139.868 126.45C139.857 126.45 139.846 126.45 139.835 126.45C139.262 126.45 139.261 127.341 139.835 127.341ZM166.115 50.1312C167.71 50.1104 169.302 50.2052 170.89 50.3326C172.334 50.4485 173.785 50.5455 175.223 50.7251C176.418 50.8745 177.634 51.1287 178.722 51.662C179.854 52.2172 180.711 53.0822 181.592 53.9644C182.418 54.7927 183.248 55.6226 184.202 56.306C185.189 57.0135 186.31 57.5034 187.506 57.7207C190.296 58.2277 193.178 57.8547 195.924 57.2642C197.27 56.9749 198.621 56.6489 199.933 56.2292C201.268 55.8018 202.561 55.2415 203.804 54.5938C205.037 53.9508 206.223 53.2185 207.372 52.4352C208.139 51.9118 208.865 51.3209 209.677 50.8669C210.394 50.4666 211.092 50.146 211.873 49.9147C212.275 49.7955 212.626 49.7172 212.995 49.7049C213.082 49.7019 213.168 49.7024 213.255 49.7076C213.297 49.7101 213.338 49.7134 213.38 49.7181C213.278 49.7063 213.408 49.7238 213.421 49.7266C213.497 49.7432 213.572 49.7632 213.646 49.7863C213.662 49.7917 213.771 49.8432 213.678 49.7976C213.716 49.8165 213.753 49.8377 213.791 49.8582C213.817 49.8727 213.842 49.8906 213.867 49.9082C213.782 49.8481 213.876 49.9177 213.889 49.9306C213.914 49.957 213.941 49.9824 213.965 50.0098C214.046 50.0979 213.922 49.9365 213.987 50.0392C214.008 50.0723 214.028 50.1059 214.047 50.1398C214.052 50.1478 214.105 50.2673 214.071 50.1824C214.106 50.2693 214.126 50.3598 214.148 50.4506C214.16 50.4968 214.154 50.5971 214.147 50.4265C214.149 50.4607 214.155 50.4953 214.158 50.5293C214.167 50.625 214.173 50.721 214.177 50.817C214.206 51.3924 214.204 51.9697 214.202 52.5457C214.197 54.1494 214.159 55.7531 214.124 57.3563C214.109 58.0359 214.093 58.7154 214.082 59.395C214.076 59.7588 214.054 60.1301 214.079 60.4938C214.101 60.8196 214.405 61.186 214.761 60.9464C215.234 60.628 214.789 59.8554 214.312 60.1766L214.311 60.1773L214.535 60.1164H214.534L214.759 60.1773L214.758 60.1768L214.918 60.3366C214.941 60.3706 214.968 60.5968 214.969 60.4843C214.969 60.425 214.965 60.3656 214.964 60.3063C214.962 60.1133 214.965 59.9203 214.967 59.7275C214.976 59.0928 214.99 58.4581 215.004 57.8235C215.039 56.2133 215.078 54.603 215.09 52.9925C215.095 52.3597 215.098 51.7264 215.079 51.0938C215.064 50.6122 215.05 50.1251 214.816 49.6899C213.971 48.1164 211.612 48.9907 210.398 49.5177C209.76 49.7951 209.125 50.1166 208.55 50.5117C207.485 51.2426 206.453 52.0075 205.352 52.6858C204.168 53.4156 202.941 54.0784 201.664 54.6318C200.402 55.1791 199.092 55.5669 197.762 55.9106C195.055 56.61 192.254 57.1796 189.444 57.047C188.191 56.9878 186.919 56.7953 185.787 56.2278C184.769 55.7174 183.905 54.9812 183.09 54.195C182.21 53.3449 181.392 52.401 180.415 51.6594C179.411 50.8975 178.225 50.417 177.003 50.135C175.715 49.838 174.394 49.7419 173.081 49.6284C171.525 49.4936 169.968 49.3497 168.406 49.2796C167.643 49.2441 166.879 49.2309 166.115 49.2397C165.543 49.2472 165.541 50.1387 166.115 50.1312Z" fill="#1B1464"/>
<path d="M215.144 67.6226L216.577 62.2684C216.926 60.9659 216.154 59.627 214.853 59.278C213.552 58.929 212.214 59.702 211.865 61.0045L210.432 66.3587C207.128 66.5361 204.166 68.8054 203.263 72.1791C202.997 73.1676 202.928 74.1986 203.058 75.2138L217.108 78.9825C217.728 78.1684 218.182 77.2408 218.446 76.2519C219.349 72.8783 217.918 69.4306 215.144 67.6228V67.6226Z" fill="#FF9300"/>
<path d="M216.289 126.966H161.092C158.929 126.966 157.173 125.208 157.173 123.043H219.919V123.333C219.919 125.338 218.292 126.966 216.289 126.966Z" fill="white"/>
<path d="M216.289 126.521H161.986C161.72 126.521 161.454 126.521 161.188 126.521C160.169 126.519 159.219 126.142 158.523 125.385C157.94 124.751 157.618 123.904 157.618 123.043L157.173 123.489H217.372C218.181 123.489 219.004 123.532 219.812 123.489C219.848 123.487 219.884 123.489 219.919 123.489L219.474 123.043C219.474 123.9 219.305 124.705 218.736 125.376C218.12 126.102 217.238 126.51 216.289 126.521C215.717 126.528 215.715 127.419 216.289 127.412C217.459 127.398 218.599 126.903 219.365 126.006C220.093 125.154 220.364 124.146 220.364 123.043C220.364 122.802 220.16 122.598 219.919 122.598H159.72C158.907 122.598 158.092 122.582 157.279 122.598C157.244 122.598 157.208 122.598 157.173 122.598C156.932 122.598 156.728 122.802 156.728 123.043C156.728 125.006 158.097 126.787 159.999 127.274C160.455 127.391 160.916 127.412 161.381 127.412H213.778C214.581 127.412 215.385 127.428 216.187 127.412C216.221 127.412 216.255 127.412 216.289 127.412C216.862 127.412 216.863 126.521 216.289 126.521Z" fill="#1B1464"/>
<path d="M174.469 126.967H218.331C219.353 126.967 220.235 126.254 220.452 125.254L227.503 92.6371C227.796 91.2841 226.766 90.0062 225.383 90.0062H184.21C183.714 90.0062 183.233 90.1761 182.848 90.4877C182.462 90.7992 182.194 91.2336 182.089 91.7185L174.469 126.967Z" fill="white"/>
<path d="M174.469 127.412H216.846C217.322 127.412 217.797 127.414 218.272 127.412C219.603 127.407 220.637 126.504 220.914 125.222L221.348 123.215L222.18 119.364L223.275 114.298L224.491 108.675L225.703 103.07L226.77 98.137L227.555 94.5065C227.677 93.9403 227.802 93.3747 227.922 92.808C228.278 91.1225 227.055 89.5671 225.323 89.5604C224.822 89.5585 224.321 89.5604 223.82 89.5604H184.319C183.014 89.5604 181.923 90.3987 181.642 91.6868C181.516 92.2619 181.393 92.8376 181.268 93.413L180.509 96.9236L179.474 101.713L178.281 107.23L177.048 112.935L175.89 118.288L174.929 122.733L174.272 125.773L174.04 126.848C173.919 127.407 174.777 127.646 174.899 127.085L175.144 125.951L175.803 122.9L176.764 118.457L177.918 113.121L179.14 107.467L180.322 101.998L181.352 97.2377L182.114 93.7119L182.496 91.9453C182.608 91.4247 182.861 90.9695 183.334 90.6913C183.652 90.5041 183.997 90.4519 184.356 90.4519H223.776C224.287 90.4519 224.798 90.4502 225.308 90.4519C226.497 90.4556 227.299 91.482 227.049 92.6357L226.64 94.528L225.833 98.2616L224.76 103.224L223.554 108.801L222.348 114.382L221.273 119.352L220.463 123.1L220.049 125.012C219.942 125.511 219.715 125.962 219.268 126.244C218.939 126.453 218.579 126.521 218.198 126.521H174.469C173.896 126.521 173.895 127.412 174.469 127.412H174.469Z" fill="#1B1464"/>
<path d="M200.69 111.005H203.398C204.249 111.005 205.053 110.308 205.185 109.456L205.546 107.133C205.679 106.282 205.091 105.585 204.24 105.585H201.532C200.682 105.585 199.877 106.282 199.745 107.133L199.384 109.456C199.251 110.308 199.839 111.005 200.69 111.005Z" fill="#FF9300"/>
<path d="M35.4606 119.753C37.8228 114.996 19.6216 113.539 23.6028 105.59C24.2572 104.284 26.2017 105.848 26.7467 104.207C27.722 101.271 21.6089 97.5542 19.9307 95.8621C19.1204 95.045 18.6956 94.7266 19.0724 93.6229C19.8844 91.2445 24.1153 92.0363 23.856 90.1161C23.6753 88.7777 20.9331 87.3043 20.0404 86.4037C18.0225 84.368 13.97 80.6938 18.821 79.8116C25.2155 78.6487 33.5181 88.6071 35.0799 93.9601C35.0799 93.9601 38.932 103.042 39.6318 108.086C40.3316 113.13 40.7515 116.072 40.7515 116.072" fill="white"/>
<path d="M35.8448 119.978C36.0777 119.504 36.1746 119.001 36.0709 118.479C35.9762 118.002 35.6968 117.577 35.3794 117.218C34.5937 116.331 33.4835 115.726 32.4534 115.173C31.1489 114.472 29.8068 113.845 28.5033 113.142C27.8542 112.793 27.2135 112.426 26.5968 112.021C26.3017 111.827 26.0127 111.623 25.7304 111.41C25.671 111.365 25.7938 111.46 25.6986 111.385C25.6666 111.359 25.6345 111.334 25.6027 111.309C25.5358 111.255 25.4693 111.2 25.4037 111.145C25.2787 111.039 25.1564 110.931 25.0371 110.819C24.8041 110.602 24.5856 110.37 24.3831 110.124C24.3598 110.096 24.3371 110.067 24.3139 110.038C24.2453 109.954 24.3633 110.108 24.2999 110.02C24.255 109.957 24.209 109.896 24.1653 109.832C24.0797 109.708 23.9998 109.579 23.9259 109.448C23.8554 109.321 23.7953 109.191 23.734 109.061C23.7097 109.009 23.7691 109.149 23.7486 109.095C23.7409 109.075 23.732 109.055 23.7242 109.035C23.7121 109.003 23.6993 108.971 23.6876 108.938C23.6136 108.735 23.5571 108.526 23.5185 108.313C23.5125 108.278 23.5084 108.244 23.5015 108.209C23.4893 108.149 23.5116 108.31 23.5001 108.198C23.4916 108.118 23.4852 108.039 23.4807 107.959C23.4734 107.81 23.4749 107.66 23.4851 107.51C23.4902 107.435 23.4992 107.361 23.5067 107.287C23.5126 107.226 23.492 107.38 23.5022 107.32C23.5055 107.301 23.5076 107.282 23.5108 107.263C23.5182 107.22 23.5251 107.177 23.5332 107.134C23.5984 106.79 23.7061 106.457 23.8376 106.133C23.8615 106.074 23.806 106.205 23.8323 106.146C23.8416 106.126 23.8505 106.105 23.8597 106.084C23.8786 106.042 23.8979 106 23.9175 105.958C23.9645 105.858 24.0111 105.757 24.0752 105.666C24.0306 105.729 24.1134 105.629 24.1331 105.608C24.1889 105.551 24.1437 105.596 24.1278 105.608C24.1465 105.594 24.1671 105.579 24.1875 105.568C24.2151 105.552 24.3308 105.501 24.2401 105.534C24.2962 105.513 24.3531 105.496 24.4116 105.483C24.442 105.476 24.5782 105.461 24.4746 105.47C24.5249 105.466 24.575 105.461 24.6254 105.459C24.736 105.455 24.8466 105.455 24.9571 105.46C25.174 105.466 25.3911 105.481 25.6081 105.471C26.1516 105.446 26.6393 105.26 26.9548 104.796C27.2154 104.413 27.3162 103.896 27.2934 103.438C27.2472 102.51 26.7683 101.668 26.2154 100.948C24.9208 99.2604 23.179 97.976 21.5338 96.6557C21.2101 96.396 20.887 96.1348 20.5769 95.8586C20.2215 95.5419 19.8463 95.204 19.5591 94.824C19.5898 94.8645 19.5162 94.758 19.5014 94.7341C19.4719 94.687 19.4454 94.6381 19.4221 94.5876C19.4545 94.6594 19.4053 94.5301 19.3982 94.502C19.3913 94.4753 19.3854 94.4483 19.3805 94.4211C19.397 94.5112 19.3791 94.3783 19.3788 94.3682C19.3715 94.1478 19.4577 93.8259 19.537 93.6428C19.5236 93.6737 19.5799 93.5562 19.5907 93.5359C19.6385 93.4457 19.6929 93.3592 19.7534 93.2771C19.7928 93.2227 19.71 93.3294 19.7529 93.2781C19.773 93.2542 19.793 93.2303 19.8138 93.2069C19.8801 93.1327 19.9515 93.0628 20.0266 92.9975C20.0443 92.9821 20.1563 92.8929 20.0821 92.9493C20.1321 92.9113 20.1838 92.8752 20.2363 92.8406C20.4129 92.7239 20.6008 92.625 20.7935 92.5378C20.8172 92.5271 20.8411 92.5165 20.8649 92.5061C20.9281 92.4783 20.8028 92.5314 20.8669 92.5052C20.9155 92.4853 20.9643 92.4659 21.0133 92.4471C21.1178 92.407 21.2233 92.3693 21.3292 92.3332C21.7352 92.195 22.1494 92.0831 22.5571 91.9503C23.2386 91.7282 24.1026 91.3959 24.2747 90.6046C24.5025 89.5577 23.6018 88.6779 22.8793 88.0659C22.4121 87.6702 21.9164 87.3091 21.4235 86.9465C21.0173 86.6475 20.7135 86.444 20.3546 86.0882C19.6711 85.411 18.9822 84.7346 18.3498 84.0086C18.1876 83.8236 18.0308 83.634 17.8795 83.4399C17.9161 83.4872 17.8339 83.3794 17.8173 83.3572C17.7831 83.3114 17.7494 83.2653 17.7162 83.2188C17.6433 83.1173 17.573 83.0139 17.5053 82.9088C17.3883 82.729 17.2826 82.5421 17.1887 82.3493C17.1676 82.3053 17.1473 82.2609 17.1279 82.2161C17.1013 82.1555 17.1549 82.2846 17.1316 82.2237C17.1233 82.2019 17.1145 82.1802 17.1064 82.1582C17.0727 82.0684 17.0439 81.9769 17.0201 81.8841C17.0096 81.8422 17.0011 81.8 16.9919 81.7578C16.9651 81.6349 16.9887 81.7949 16.9845 81.7211C16.9788 81.6309 16.9767 81.5406 16.978 81.4503C16.9805 81.3283 16.9612 81.4932 16.9793 81.4235C16.989 81.3861 16.9943 81.3476 17.0044 81.3102C17.0145 81.2727 17.0293 81.2368 17.0399 81.1996C17.0603 81.1279 17.0348 81.2136 17.0287 81.225C17.0427 81.1989 17.0544 81.1717 17.0687 81.1457C17.0881 81.1102 17.1099 81.0765 17.1319 81.0426C17.143 81.0253 17.1558 81.0089 17.1678 80.9922C17.1585 81.0051 17.1034 81.062 17.1577 81.0084C17.2263 80.9407 17.2894 80.8714 17.3637 80.8095C17.4136 80.768 17.3055 80.8511 17.36 80.8129C17.3805 80.7985 17.4008 80.7839 17.4216 80.77C17.4651 80.7407 17.5096 80.7132 17.5549 80.6869C17.6031 80.659 17.6521 80.6328 17.7018 80.6079C17.7205 80.5985 17.8701 80.5299 17.8202 80.551C18.0996 80.433 18.3968 80.3538 18.6925 80.2901C18.8523 80.2554 19.0134 80.2265 19.1753 80.2033C19.1575 80.2057 19.088 80.2139 19.1759 80.204C19.2355 80.1972 19.2952 80.1911 19.355 80.1859C19.8075 80.1468 20.2626 80.1616 20.713 80.2167C20.7289 80.2186 20.8004 80.229 20.7181 80.2173C20.8007 80.2291 20.8832 80.2422 20.9655 80.2566C21.0833 80.2774 21.2006 80.3009 21.3174 80.3269C21.5486 80.3785 21.7778 80.4398 22.0041 80.5097C22.2441 80.584 22.4812 80.6671 22.715 80.759C22.9507 80.8512 23.0883 80.9114 23.3418 81.0313C24.3252 81.496 25.2482 82.0838 26.1178 82.7355C26.9927 83.3912 27.8747 84.1805 28.6723 84.9813C29.5031 85.817 30.2841 86.7009 31.0113 87.6283C31.6829 88.4849 32.3047 89.3795 32.8735 90.3077C33.1411 90.7444 33.394 91.19 33.6318 91.6437C33.7448 91.8597 33.8536 92.0779 33.9581 92.2981C34.0288 92.4469 34.0971 92.5968 34.1631 92.7477C34.1738 92.7722 34.1846 92.7969 34.1952 92.8215C34.1993 92.8312 34.2416 92.9303 34.2197 92.8783C34.3489 93.1845 34.5085 93.6396 34.63 94.0126C34.6498 94.0732 34.6717 94.1312 34.6965 94.19L34.6668 94.1195L34.7262 94.2612C34.9303 94.7518 35.1305 95.244 35.3268 95.7378C36.0841 97.6391 36.7988 99.5583 37.4474 101.499C38.1509 103.605 38.825 105.757 39.165 107.957C39.5389 110.374 39.8415 112.804 40.1842 115.226C40.2298 115.548 40.2752 115.869 40.3211 116.191C40.355 116.429 40.658 116.56 40.8687 116.502C41.1247 116.431 41.2138 116.193 41.1796 115.954C40.9874 114.606 40.7984 113.259 40.6096 111.911C40.4061 110.459 40.2348 108.998 39.9966 107.551C39.8228 106.495 39.5652 105.453 39.2795 104.423C38.661 102.192 37.8992 100.002 37.0874 97.8351C36.6003 96.5354 36.0943 95.2418 35.5584 93.9614C35.5331 93.9012 35.4776 93.8082 35.4707 93.7529C35.4691 93.7468 35.4667 93.741 35.4634 93.7357C35.54 93.865 35.49 93.78 35.4733 93.7257C35.4579 93.6752 35.442 93.625 35.4258 93.5748C35.2851 93.1402 35.1149 92.7161 34.9319 92.2978C34.534 91.3889 34.0534 90.5168 33.5295 89.675C32.2993 87.6987 30.8234 85.8582 29.1705 84.2202C27.5669 82.6312 25.7464 81.1632 23.6862 80.2127C21.8361 79.359 19.6892 78.9139 17.7174 79.6395C16.8536 79.9573 16.0606 80.5805 16.0845 81.5846C16.1065 82.5047 16.68 83.3364 17.2226 84.036C17.8346 84.8252 18.5402 85.5359 19.2461 86.2402C19.5555 86.5489 19.8568 86.8606 20.2004 87.132C20.6531 87.4898 21.1247 87.8223 21.5856 88.1694C22.0255 88.5008 22.4845 88.866 22.875 89.2823C23.062 89.4817 23.1426 89.5745 23.2741 89.8035C23.3004 89.8492 23.3238 89.8959 23.3471 89.943C23.3775 90.0041 23.3234 89.8785 23.3473 89.9409C23.356 89.9639 23.3646 89.987 23.3725 90.0103C23.3878 90.0561 23.3977 90.1023 23.4105 90.1485C23.4377 90.2468 23.4152 90.0948 23.419 90.2082C23.4203 90.2471 23.4195 90.2859 23.4203 90.3247C23.4228 90.4466 23.4461 90.2629 23.4184 90.3547C23.4081 90.3877 23.3993 90.4211 23.3919 90.4548C23.375 90.5385 23.4375 90.3839 23.383 90.4759C23.367 90.503 23.3437 90.5331 23.3317 90.5618C23.313 90.607 23.3934 90.4988 23.3237 90.5714C23.2996 90.5964 23.2766 90.622 23.2514 90.6457C23.2239 90.6716 23.1088 90.7514 23.2173 90.6792C23.0745 90.7744 22.9302 90.8522 22.7754 90.9265C22.7101 90.9579 22.8461 90.9004 22.7306 90.9448C22.6884 90.961 22.6463 90.9775 22.6038 90.9931C22.5099 91.0276 22.4152 91.0598 22.3199 91.0908C21.4747 91.3663 20.5753 91.5627 19.8182 92.0503C19.4276 92.302 19.0803 92.628 18.8494 93.035C18.565 93.536 18.381 94.2108 18.5503 94.7785C18.7222 95.3545 19.2127 95.7771 19.6244 96.1864C19.8823 96.4428 20.1603 96.6784 20.4405 96.9099C21.2102 97.5455 22.0037 98.152 22.771 98.7907C23.612 99.4909 24.4384 100.222 25.1568 101.05C25.4721 101.414 25.7133 101.725 25.9693 102.171C26.048 102.308 26.1199 102.448 26.185 102.592C26.2206 102.669 26.192 102.606 26.1853 102.59C26.1998 102.625 26.2136 102.66 26.2268 102.695C26.2976 102.881 26.3471 103.071 26.3858 103.266C26.4066 103.371 26.3842 103.203 26.395 103.336C26.3987 103.381 26.4023 103.427 26.4038 103.472C26.4059 103.568 26.403 103.664 26.395 103.759C26.387 103.873 26.4119 103.696 26.3877 103.808C26.3781 103.852 26.3702 103.896 26.3592 103.94C26.3334 104.043 26.293 104.16 26.265 104.213C26.2381 104.265 26.2074 104.316 26.1731 104.364C26.2169 104.305 26.1308 104.404 26.1114 104.424C26.0542 104.481 26.0986 104.438 26.1146 104.426C26.09 104.444 26.0644 104.46 26.0381 104.476C26.0173 104.488 25.9956 104.499 25.9744 104.51C25.9282 104.535 26.0446 104.489 25.9643 104.514C25.9178 104.528 25.872 104.543 25.8243 104.554C25.7951 104.561 25.6603 104.578 25.7593 104.568C25.6439 104.58 25.5285 104.584 25.4126 104.583C24.9628 104.579 24.4893 104.512 24.053 104.657C23.5444 104.826 23.2756 105.209 23.0693 105.681C22.7762 106.35 22.5804 107.062 22.585 107.798C22.5892 108.453 22.7546 109.089 23.0408 109.676C23.633 110.892 24.7226 111.812 25.8139 112.567C27.0425 113.416 28.3796 114.099 29.7111 114.77C30.9578 115.398 32.2301 116 33.4057 116.757C33.5328 116.839 33.6581 116.923 33.7818 117.009C33.8653 117.068 33.9477 117.128 34.0292 117.189C34.0738 117.223 34.1262 117.266 34.0472 117.202C34.2513 117.367 34.451 117.534 34.6333 117.723C34.7136 117.806 34.7872 117.894 34.8621 117.982C34.9245 118.055 34.7998 117.894 34.8541 117.972C34.8691 117.993 34.8854 118.014 34.9007 118.035C34.9341 118.083 34.9663 118.131 34.9966 118.18C35.0499 118.268 35.0864 118.364 35.1388 118.451C35.0561 118.314 35.1342 118.441 35.1523 118.495C35.1694 118.545 35.1842 118.595 35.1967 118.647C35.2077 118.692 35.2124 118.739 35.2238 118.784C35.237 118.835 35.2151 118.655 35.2189 118.752C35.2198 118.775 35.2231 118.798 35.2244 118.821C35.2261 118.851 35.2057 119.099 35.2155 119.105C35.1955 119.093 35.2406 118.971 35.2183 119.076C35.2133 119.1 35.2094 119.125 35.2042 119.149C35.1928 119.202 35.179 119.254 35.1631 119.305C35.1476 119.356 35.128 119.404 35.1106 119.454C35.0794 119.544 35.1597 119.356 35.1156 119.442C35.1012 119.47 35.0891 119.499 35.0753 119.528C34.9692 119.744 35.0171 120.01 35.235 120.138C35.4312 120.252 35.7377 120.195 35.8442 119.978L35.8448 119.978Z" fill="#1B1464"/>
<path d="M42.1216 126.956H30.6583L28.0469 116.254H44.733L42.1216 126.956Z" fill="#FF9300"/>
</g>
<g clip-path="url(#clip1_1252_2516)">
<path d="M155.01 80.2644C154.855 80.0702 154.989 79.0211 155.008 78.6155C155.036 78.0567 155.188 77.4761 155.027 76.9084C154.862 76.3296 154.453 75.8833 154.33 75.2798C154.207 74.6734 154.3 73.9963 154.382 73.38C154.707 70.93 155.563 68.7011 155.563 66.1663C155.563 65.257 155.325 63.5335 155.809 62.7763C156.864 61.1287 157.548 63.7804 157.667 64.4558C157.867 65.5924 157.899 66.7104 157.899 67.8872C157.899 68.4113 157.847 68.9668 157.899 69.4882C157.925 69.7447 157.94 69.991 158.069 70.2271C158.289 70.6318 158.163 70.6581 158.528 70.4731C159.506 69.9774 159.841 68.0689 160.362 67.2235C161.049 66.1072 161.701 64.8391 162.573 63.8366C163.424 62.8588 164.277 61.8607 165.094 60.8193C165.972 59.6981 166.684 58.5258 167.791 57.5898C168.353 57.1143 169.467 56.3765 169.75 57.3572C169.994 58.1977 169.56 59.27 169.157 59.9879C169.629 59.0268 170.538 57.4603 171.793 57.5422C173.308 57.6412 172.066 59.7952 171.621 60.4407C170.107 62.6353 169.247 65.2005 167.799 67.4391C167.264 68.2655 166.658 69.3805 166.389 70.2928C166.889 70.2999 167.512 69.4007 167.859 69.0571C168.353 68.567 168.834 68.1154 169.273 67.576C170.115 66.539 170.971 65.5618 171.914 64.6249C172.384 64.1588 174.702 62.289 174.696 63.9492C174.692 65.0919 173.631 66.053 172.9 66.8401C172.05 67.7531 171.254 68.7149 170.516 69.7205C170.025 70.3876 168.689 71.551 168.728 72.3897C169.153 72.3897 169.84 71.9466 170.256 71.7528C170.822 71.4892 171.383 71.2594 171.916 70.9196C172.341 70.6486 174.538 68.7546 174.621 70.227C174.677 71.2281 172.481 72.553 171.854 73.0735C170.863 73.8977 169.914 74.796 168.842 75.509C168.437 75.7783 167.892 75.9742 167.551 76.325C167.13 76.759 167.317 77.1577 167.17 77.7516C166.873 78.9574 165.777 79.4 165.202 80.3876C164.666 81.307 165.095 82.4185 165.092 83.4526C165.089 84.5203 165.265 85.5844 165.206 86.6605C162.689 85.8804 159.858 86.1833 157.285 85.6696C156.764 85.5657 156.213 85.4541 155.687 85.3889C154.83 85.2828 154.945 85.2823 154.95 84.4547C154.958 83.2966 154.899 82.0124 155.012 80.8801C155.036 80.6425 155.062 80.428 155.063 80.1889C155.114 80.1489 154.974 80.1741 155.01 80.2644ZM98.8973 71.5739C100.705 70.7159 105.876 67.6374 106.585 66.4539C107.174 65.4686 108.464 63.9906 109.047 63.7313C109.553 63.5063 111.867 62.9508 112.35 62.8259L111.661 51.7887C111.483 51.8388 111.299 51.8714 111.109 51.8822C109.373 51.9818 107.865 50.3207 107.742 48.1719C107.671 46.9209 108.085 45.7812 108.785 45.0269C108.077 44.7257 107.633 44.2829 107.958 43.3641C108.089 43.0535 108.377 42.8856 108.36 42.5835C108.177 41.9879 107.707 41.5602 107.376 40.9731C107.028 40.0839 107.882 39.4288 108.44 38.7907C108.579 38.6311 108.701 38.1695 108.693 38.0185C107.874 36.7017 108.058 34.7214 109.687 34.6278C110.271 34.4427 111.046 35.0043 111.613 34.5172C111.883 34.0471 111.683 33.1494 112.258 32.8134C112.546 32.6453 112.834 32.4773 112.973 32.3177C113.183 32.1575 113.437 32.0638 113.701 32.0487C113.965 32.0335 114.227 32.0976 114.454 32.2328C114.62 32.5264 114.942 32.9624 115.238 32.9454C116.118 32.7434 116.066 31.8372 116.328 31.216C117.165 30.2588 118.515 30.4843 119.438 31.0374C120.057 31.4564 120.274 32.6562 120.997 32.3117C121.433 32.1351 121.529 31.2205 122.113 31.0354C123.429 30.6568 124.239 31.8225 124.752 33.0052C125.066 33.2902 125.649 33.1051 125.946 33.0882C126.521 32.7521 127.375 32.097 128.141 32.5075C129.065 33.0607 128.829 34.1348 128.733 35.0495C128.75 35.3516 129.055 35.4856 129.203 35.4771C130.048 34.6709 130.972 35.2241 131.607 35.9452C132.565 37.1024 131.589 38.2191 131.048 39.1593C131.536 39.8889 132.416 39.6869 133.043 40.2571C134.001 41.4143 132.171 43.3376 131.449 44.2297L131.407 44.2315C132.091 44.9273 132.557 45.9677 132.625 47.1522C132.751 49.3624 131.446 51.2348 129.709 51.3346C129.471 51.3479 129.233 51.3273 129 51.2734L128.933 62.7566C129.735 62.7852 130.239 62.6707 131.024 62.8111C132.655 63.1027 133.137 66.6226 134.739 66.9996C135.878 67.2673 147.783 71.6396 145.996 74.2146C142.774 78.8562 136.953 79.2281 131.793 79.378C126.181 79.5409 120.615 80.3545 115.01 80.5272C112.426 80.6069 109.871 80.9704 107.295 81.1106C102.809 81.3549 98.3364 81.1741 93.8524 81.1274C93.2765 81.1216 97.255 72.3535 98.8973 71.5739Z" fill="white"/>
<path d="M167.979 83.2653C167.121 82.2965 165.849 82.1935 165.054 82.0835C165.123 82.639 165.213 83.7322 165.336 84.2177C161.898 83.933 159.437 83.784 156.918 82.109C156.228 81.6503 155.534 80.6782 154.814 80.0389C154.68 82.0519 153.314 84.7563 152.779 87.3887C150.818 82.7053 153.719 73.4495 147.198 70.9064C146.913 70.795 134.883 66.9998 134.883 66.9998C134.883 66.9998 133.49 70.223 131.232 70.9585C127.239 72.2594 124.604 73.3019 120.439 73.1259C119.278 73.2896 118.175 73.0174 117.162 72.9611C110.219 72.574 104.615 68.6089 104.615 68.6089C104.615 68.6089 98.5038 70.931 96.0554 72.6831C94.2789 73.9544 91.8319 75.2832 91.2665 77.1553C90.0209 81.2791 90.1625 86.0444 89.1738 90.7882C88.3236 94.8611 87.3265 97.3212 85.9483 101.121C84.7526 104.411 84.086 108.13 82.2861 111.958C81.7175 113.167 79.7853 117.314 79.8472 118.183C79.9758 119.987 80.1518 121.942 81.0206 123.565C81.9452 125.292 83.564 126.244 85.3881 126.875C86.072 127.112 92.9304 126.967 100.286 127.057C100.286 127.057 146.451 127.249 146.44 127.058C147.044 126.976 155.118 127.189 158.566 126.885C159.191 126.83 159.767 126.989 160.298 126.796C166.566 124.51 166.534 112.902 166.498 107.15C166.473 103.153 166.487 98.9983 166.595 95.2163C166.694 91.743 167.204 87.7633 167.979 83.2653Z" fill="#FF9300"/>
<path d="M155.598 76.4051C155.478 76.3563 155.325 75.7129 155.28 75.5586C155.143 75.0941 155.052 74.6107 154.994 74.1303C154.855 72.9722 155.2 71.6949 155.382 70.5533C155.488 69.8863 155.665 69.2532 155.846 68.6044C156.042 67.9038 156.006 67.1573 156.046 66.4375C156.097 65.5119 156.127 64.5686 156.201 63.6443C156.225 63.3452 156.274 62.8727 156.546 62.6864C156.829 62.4925 156.96 63.0254 157.018 63.198C157.282 63.9756 157.349 64.8319 157.395 65.6466C157.444 66.5004 157.402 67.3758 157.323 68.2261C157.237 69.1658 157.014 70.367 157.575 71.2063C157.71 71.4089 157.946 71.4748 158.164 71.361C159.605 70.6094 160.23 68.7929 160.978 67.4703C161.428 66.6753 161.991 65.9349 162.522 65.1944C163.925 63.242 165.364 61.3028 166.897 59.4503C167.424 58.8122 168.351 57.5454 169.198 57.6931C169.563 57.7569 168.915 58.8181 168.842 58.9498C168.326 59.8795 167.657 60.7151 167.137 61.6433C165.989 63.6882 164.887 65.7435 163.62 67.7258C163.494 67.925 163.364 68.1211 163.229 68.3142C162.908 68.7695 163.655 69.1998 163.973 68.7496C165.254 66.9358 166.406 64.9512 167.441 62.9873C167.751 62.3988 168.023 61.8079 168.383 61.2443C168.899 60.439 169.473 59.6735 169.888 58.808C170.344 57.8557 170.219 56.8782 168.994 56.8107C168.016 56.757 167.144 57.8517 166.551 58.5286C165.917 59.2533 165.333 60.0254 164.745 60.7875C163.289 62.6728 161.827 64.5738 160.523 66.5687C159.672 67.8708 159.193 69.8522 157.729 70.6159L158.318 70.7706C157.982 70.2671 158.078 69.5487 158.117 68.9748C158.165 68.275 158.231 67.5852 158.25 66.8832C158.273 65.9819 158.237 65.1143 158.115 64.219C158.021 63.5254 157.881 62.317 157.192 61.9204C156.417 61.4746 155.716 62.1361 155.478 62.8418C155.162 63.7779 155.383 64.8218 155.248 65.7849C155.128 66.6442 155.218 67.5284 155.016 68.3746C154.795 69.2966 154.566 70.1824 154.43 71.1254C154.245 72.4062 154.019 73.5655 154.236 74.8452C154.365 75.6019 154.553 76.9045 155.369 77.2365C155.883 77.4467 156.105 76.6119 155.598 76.4051Z" fill="#1B1464"/>
<path d="M165.2 66.7938C166.289 65.2175 167.421 63.6711 168.528 62.1071C169.024 61.4064 169.521 60.7058 169.996 59.9911C170.463 59.2899 170.813 58.4175 171.544 57.9453C172.096 57.5883 172.228 58.2821 172.122 58.6711C171.993 59.1425 171.691 59.5749 171.431 59.9821C170.748 61.0522 170.189 62.2047 169.623 63.341C169.078 64.4344 168.497 65.5102 167.919 66.5862C167.61 67.1614 167.299 67.7354 166.976 68.3025C166.588 68.9836 166.107 69.6004 165.808 70.3285C165.686 70.6273 166.049 70.9635 166.338 70.8591C167.99 70.2624 169.074 68.5858 170.218 67.3482C170.925 66.5843 171.665 65.8434 172.442 65.1515C172.765 64.8633 173.049 64.5467 173.348 64.2333C173.584 63.9866 174.702 63.2402 174.445 64.1085C174.339 64.4657 174.063 64.7967 173.846 65.0924C173.443 65.6403 173.035 66.1725 172.583 66.682C172.079 67.2504 171.548 67.7952 171.034 68.3538C170.392 69.0495 169.763 69.7565 169.163 70.4884C168.74 71.0049 168.25 71.5584 168.026 72.1984C167.977 72.3392 168.033 72.517 168.137 72.6181C168.699 73.1642 169.708 72.5464 170.25 72.2667C171.043 71.8582 171.768 71.3147 172.571 70.9296C173.05 70.6997 173.461 70.3392 173.938 70.0988C174.401 69.8649 174.359 70.1472 174.178 70.4529C173.704 71.2561 172.801 71.8782 172.074 72.429C170.527 73.6004 168.704 74.5248 167.282 75.8484C166.887 76.2159 166.746 76.7588 166.651 77.2699C166.567 77.7226 166.51 78.1458 166.285 78.5557C166.048 78.9884 165.657 79.3443 165.327 79.7056C164.852 80.227 164.568 80.7169 164.483 81.4208C164.389 82.2031 164.648 83.0087 164.685 83.7879C164.712 84.3416 165.574 84.3442 165.547 83.7879C165.512 83.0598 165.34 82.3478 165.335 81.6172C165.328 80.645 166.241 80.0783 166.768 79.3673C167.296 78.6539 167.375 77.936 167.565 77.0944C167.669 76.6332 167.932 76.3988 168.284 76.1334C170.035 74.8144 171.937 73.7158 173.614 72.2946C174.21 71.789 174.872 71.194 175.132 70.4329C175.449 69.5089 174.536 68.9591 173.737 69.2524C172.896 69.5608 172.087 70.187 171.317 70.6562C170.823 70.9568 170.326 71.2515 169.816 71.5219C169.573 71.6501 169.326 71.7693 169.07 71.8667C168.972 71.9038 168.871 71.9312 168.77 71.9565C168.632 71.9911 168.634 71.8999 168.746 72.0082L168.857 72.4279C169.109 71.7099 169.803 71.0508 170.286 70.4855C170.907 69.7581 171.555 69.0532 172.208 68.3551C173.014 67.495 173.81 66.6331 174.489 65.6665C174.883 65.106 175.715 64.1199 175.25 63.3831C174.685 62.4889 173.662 62.8238 172.994 63.3797C172.601 63.7068 172.307 64.1367 171.917 64.4677C171.531 64.7954 171.169 65.1538 170.808 65.5082C170.016 66.2848 169.278 67.0975 168.57 67.9495C167.942 68.7043 167.049 69.6875 166.109 70.0269L166.639 70.5574C167.003 69.6698 167.658 68.8611 168.123 68.0192C168.421 67.4803 168.709 66.9359 168.999 66.3928C169.63 65.2137 170.249 64.0305 170.826 62.8243C171.388 61.6485 172.178 60.5953 172.744 59.4245C173.176 58.5322 173.207 57.2957 172.03 57.0176C171.018 56.7786 170.226 57.9837 169.777 58.6954C169.31 59.4354 168.842 60.1643 168.339 60.8824C167.056 62.7152 165.728 64.5166 164.457 66.3576C164.14 66.8173 164.887 67.2481 165.2 66.7938ZM158.437 71.6809C159.293 72.0154 160.065 72.4535 160.694 73.1341C161.352 73.8461 162.099 74.8708 161.85 75.8839C161.717 76.4241 162.547 76.6532 162.681 76.1133C163.278 73.6888 160.623 71.613 158.666 70.8488C158.148 70.6466 157.926 71.4812 158.437 71.6809ZM117.801 43.1272C117.197 43.2993 116.566 42.9758 115.949 42.9746C115.653 42.974 115.349 43.1085 115.074 43.2041C114.703 43.3334 114.333 43.4654 113.96 43.591C113.785 43.6503 113.608 43.7058 113.431 43.7591C113.132 43.8487 113.028 43.7442 113.28 43.9571C112.859 43.6005 112.246 44.2078 112.671 44.5672C113.174 44.9932 114.255 44.403 114.766 44.2247C115.123 44.0999 115.479 43.9609 115.843 43.8579C116.249 43.7435 116.748 43.9617 117.152 44.027C117.458 44.0765 117.736 44.0428 118.03 43.9592C118.564 43.8072 118.337 42.9748 117.801 43.1272ZM121.438 43.303C121.071 43.9239 120.697 44.1457 120.698 44.8788C120.699 45.6286 120.808 46.3835 120.885 47.1279C120.973 47.9755 121.059 48.8238 121.096 49.6754C121.112 50.0311 121.11 50.3873 121.088 50.7427C121.074 50.9609 120.995 51.4904 120.794 51.2623C120.426 50.8443 119.819 51.4569 120.185 51.8724C120.696 52.4526 121.687 52.0169 121.861 51.3676C122.082 50.5385 121.964 49.5872 121.9 48.746C121.825 47.7607 121.702 46.7798 121.614 45.7957C121.582 45.434 121.553 45.0702 121.561 44.7069C121.568 44.358 122.002 44.0431 122.182 43.7389C122.466 43.2586 121.721 42.8248 121.438 43.303Z" fill="#1B1464"/>
<path d="M110.771 44.9448C110.794 43.2616 110.993 41.5605 111.803 40.0589C112.634 38.5164 114.166 37.5218 115.757 36.8972C119.415 35.4617 123.275 35.8041 126.489 38.1143C126.941 38.4394 127.371 37.6905 126.924 37.3693C125.235 36.1552 123.309 35.4127 121.245 35.1749C119.169 34.9357 117.007 35.4462 115.096 36.2398C113.43 36.932 111.967 38.0449 111.059 39.6233C110.142 41.2171 109.934 43.1403 109.909 44.9448C109.902 45.5014 110.763 45.5007 110.771 44.9448ZM125.373 43.2515C126.035 43.9804 127.392 43.8665 128.284 43.9377C128.838 43.982 128.834 43.1188 128.284 43.0749C127.892 43.0436 127.5 43.0286 127.108 42.9888C126.761 42.9534 126.232 42.9172 125.982 42.6414C125.607 42.2291 125 42.841 125.373 43.2515ZM117.102 45.8222C116.88 45.0948 116.328 44.8223 115.601 44.9687C115.273 45.0348 114.956 45.1925 114.663 45.3503C114.529 45.4237 114.398 45.502 114.27 45.5849C114.238 45.6051 114.054 45.7093 114.127 45.6863C113.854 45.7727 113.971 46.2025 114.245 46.1157C114.552 46.018 114.842 45.7509 115.134 45.6075C115.716 45.3218 116.439 45.1728 116.673 45.9405C116.757 46.2142 117.186 46.0974 117.102 45.8222Z" fill="#1B1464"/>
<path d="M115.744 45.1708C115.341 45.2075 115.052 45.6569 115.099 46.1746C115.145 46.6922 115.511 47.082 115.915 47.0453C116.318 47.0085 116.607 46.5591 116.56 46.0415C116.514 45.5239 116.148 45.134 115.744 45.1708Z" fill="#1B1464"/>
<path d="M117.19 46.2579C116.545 46.3314 115.383 46.373 114.535 46.4101C114.988 47.7529 116.27 47.3034 117.316 46.9408C117.202 46.7 117.068 46.4917 117.19 46.2579Z" fill="white"/>
<path d="M111.324 45.0651C110.478 44.3847 109.45 44.6148 108.59 45.1641C107.608 45.7909 107.18 46.9613 107.143 48.0815C107.063 50.4992 109.176 51.8561 111.286 52.2309C111.829 52.3273 112.061 51.4959 111.515 51.3989C110.048 51.1385 108.67 50.5494 108.158 49.0371C107.852 48.1324 108.02 47.1751 108.532 46.3859C108.917 45.7924 110.07 45.1565 110.716 45.6753C111.144 46.0198 111.758 45.4134 111.324 45.0651ZM122.149 53.1477C119.963 54.4504 117.286 53.1314 116.512 50.818C116.336 50.2933 115.504 50.5183 115.681 51.0473C116.628 53.8784 119.902 55.4906 122.584 53.8927C123.061 53.6087 122.628 52.8625 122.149 53.1477Z" fill="#1B1464"/>
<path d="M111.008 51.739C110.954 52.9 111.104 54.0854 111.213 55.2392C111.273 55.876 111.327 56.5169 111.431 57.1483C111.543 57.8309 111.997 58.4553 112.361 59.0232C113.837 61.3303 116.551 62.5695 119.08 63.3769C120.451 63.8146 121.664 63.7558 122.958 63.1095C123.976 62.601 124.821 61.9072 125.658 61.1474C126.362 60.5084 127.026 59.8175 127.753 59.2042C128.929 58.2113 128.803 56.7638 129.038 55.3828C129.131 54.8388 128.301 54.6059 128.207 55.1535C127.998 56.3799 128.153 57.6918 127.144 58.5941C126.523 59.1493 125.924 59.7289 125.313 60.2949C124.627 60.9297 123.947 61.5342 123.144 62.0152C122.469 62.4201 121.774 62.7738 120.977 62.8375C120.351 62.8876 119.697 62.6689 119.109 62.4811C116.749 61.7275 114.347 60.5307 112.983 58.3973C112.627 57.8414 112.297 57.2983 112.219 56.6288C112.15 56.0252 112.089 55.4209 112.035 54.8158C111.942 53.8007 111.822 52.7593 111.869 51.7384C111.895 51.1825 111.034 51.1851 111.008 51.739ZM111.254 48.8836L111.322 47.7547C111.355 47.1986 110.493 47.2019 110.46 47.7547L110.393 48.8836C110.359 49.4396 111.221 49.4363 111.254 48.8836Z" fill="#1B1464"/>
<path d="M121.647 61.3181L121.715 60.1892C121.748 59.6332 120.887 59.6365 120.854 60.1892L120.786 61.3181C120.752 61.874 121.614 61.8709 121.647 61.3181ZM111.411 57.0612L112.006 65.7771C112.043 66.329 112.905 66.3327 112.867 65.7771L112.273 57.0612C112.235 56.5093 111.373 56.5056 111.411 57.0612ZM128.122 61.9162C128.306 62.964 127.969 64.4577 128.141 65.6553C128.22 66.2043 129.05 65.9699 128.972 65.426C128.802 64.2426 129.167 62.9024 128.952 61.6868C128.856 61.1395 128.026 61.3722 128.122 61.9162ZM114.299 72.656C114.687 72.1803 115.031 71.6729 115.394 71.1786C115.834 70.5796 116.4 70.108 116.91 69.5722C117.321 69.1395 117.767 68.5795 118.357 68.3977C118.749 68.2768 119.002 68.7365 119.15 69.0166C119.8 70.2453 119.838 71.8812 120.024 73.2405C120.099 73.7896 120.928 73.5549 120.854 73.0111C120.632 71.3808 120.603 69.2971 119.493 67.9911C118.724 67.0855 117.635 67.6914 116.934 68.3224C116.359 68.8392 115.813 69.4227 115.273 69.9755C114.666 70.5963 114.236 71.3751 113.69 72.0459C113.342 72.4731 113.948 73.0873 114.299 72.656Z" fill="#1B1464"/>
<path d="M134.11 67.2092C133.964 69.1496 131.552 70.2506 130.008 70.8868C128.227 71.6205 126.33 72.1155 124.436 72.4523C121.487 72.9767 118.113 72.801 115.094 72.3104C113.263 72.0127 111.475 71.5194 109.738 70.8696C108.802 70.5193 107.872 70.1627 106.97 69.7289C106.207 69.3615 105.669 69.0755 105.272 68.2833C105.023 67.786 104.28 68.2231 104.529 68.7188C105.258 70.1732 106.87 70.671 108.297 71.2396C110.27 72.026 112.273 72.6601 114.362 73.0541C117.671 73.678 121.257 73.8645 124.588 73.2975C126.697 72.9386 128.79 72.3478 130.755 71.5C132.573 70.7159 134.805 69.4123 134.971 67.2092C135.013 66.6539 134.152 66.6581 134.11 67.2092ZM109.161 64.1472C109.965 63.8149 110.82 63.6361 111.655 63.4041C112.19 63.2555 111.963 62.4231 111.426 62.5721C110.591 62.8042 109.736 62.9829 108.933 63.3152C108.427 63.5244 108.648 64.3596 109.161 64.1472Z" fill="#1B1464"/>
<path d="M128.739 63.3634C129.192 63.2927 129.643 63.2841 130.088 63.4076C130.341 63.478 129.845 63.8725 129.776 63.9402C129.257 64.4528 128.694 64.9237 128.129 65.3846C126.827 66.4479 125.187 66.8744 123.674 67.5445C123.532 67.6074 123.472 67.7758 123.461 67.9169C123.327 69.5748 123.369 71.1627 123.413 72.8218C123.428 73.3769 124.29 73.3784 124.275 72.8218C124.23 71.1627 124.188 69.5748 124.322 67.9169L124.109 68.2893C125.219 67.7977 126.381 67.4349 127.462 66.8758C128.317 66.4337 129.056 65.7482 129.773 65.1158C130.181 64.7561 131.321 63.9462 131.07 63.2583C130.714 62.2833 129.328 62.4039 128.509 62.5315C127.962 62.6169 128.195 63.4481 128.739 63.3634Z" fill="#1B1464"/>
<path d="M124.162 68.3353C125.67 69.3985 126.933 70.8087 128.482 71.8143C128.95 72.1179 129.381 71.3707 128.917 71.0694C127.369 70.0647 126.105 68.6535 124.597 67.5903C124.142 67.2692 123.712 68.0177 124.162 68.3353ZM124.772 45.5002C124.915 44.7182 125.567 44.7548 126.195 44.9446C126.523 45.0439 126.854 45.3056 127.186 45.3659C127.466 45.4168 127.586 44.9877 127.304 44.9365C127.213 44.9201 126.927 44.7533 126.781 44.6909C126.456 44.552 126.122 44.4416 125.771 44.3938C125.041 44.2946 124.479 44.6409 124.344 45.3818C124.293 45.6625 124.721 45.7823 124.772 45.5002Z" fill="#1B1464"/>
<path d="M125.657 46.4854C126.062 46.4757 126.38 46.0466 126.368 45.527C126.356 45.0074 126.017 44.5941 125.612 44.6038C125.206 44.6135 124.888 45.0426 124.9 45.5622C124.913 46.0818 125.251 46.4951 125.657 46.4854Z" fill="#1B1464"/>
<path d="M124.299 45.8497C124.949 45.8489 126.108 45.7573 126.954 45.697C126.658 47.0829 125.333 46.7831 124.252 46.5427C124.339 46.2902 124.448 46.068 124.299 45.8497Z" fill="white"/>
<path d="M130.092 45.102C130.795 44.5875 131.607 45.4599 131.928 46.0428C132.342 46.7934 132.315 47.7355 132.099 48.536C131.739 49.8676 130.896 50.5249 129.546 50.6342C128.996 50.6786 128.992 51.5418 129.546 51.4969C130.397 51.4281 131.167 51.2355 131.838 50.6871C132.57 50.0898 132.925 49.0219 133.068 48.1253C133.24 47.0408 132.965 45.9016 132.29 45.0393C131.694 44.2789 130.518 43.727 129.658 44.357C129.214 44.6818 129.643 45.4308 130.092 45.102Z" fill="#1B1464"/>
<path d="M130.18 48.0998L130.285 46.9687C130.307 46.7342 130.073 46.5374 129.855 46.5374C129.603 46.5374 129.446 46.7347 129.424 46.9687L129.319 48.0998C129.297 48.3343 129.531 48.5312 129.749 48.5312C130.001 48.5312 130.158 48.3339 130.18 48.0998ZM131.753 44.5346C132.527 43.5896 133.493 42.6035 133.715 41.355C133.791 40.9279 133.722 40.2466 133.347 39.9519C132.744 39.4758 131.83 39.4574 131.353 38.8541L131.42 39.3768C131.813 38.7148 132.359 38.0192 132.425 37.2225C132.496 36.352 132.042 35.6122 131.343 35.1147C130.793 34.723 130.02 34.4448 129.38 34.8245C129.074 35.0059 129.161 35.0661 129.184 34.8645C129.205 34.6751 129.227 34.4862 129.245 34.2965C129.284 33.8895 129.257 33.4865 129.142 33.0943C128.97 32.5108 128.373 31.9747 127.752 31.9532C127.402 31.9409 127.076 32.0013 126.754 32.1453C126.416 32.2965 126.049 32.634 125.688 32.6878C125.089 32.7771 125.025 32.5331 124.758 32.0568C124.581 31.7412 124.354 31.4542 124.105 31.1931C123.631 30.6956 122.882 30.4144 122.202 30.572C121.55 30.7232 121.292 31.1758 120.979 31.7255C120.724 32.173 120.489 31.6565 120.329 31.4128C120.152 31.1452 119.942 30.8264 119.656 30.6648C119.038 30.3162 118.378 30.1141 117.665 30.134C117.072 30.1506 116.142 30.4931 115.913 31.1012C115.711 31.6362 115.49 33.1049 114.826 32.0148C114.462 31.4177 113.428 31.6069 112.923 31.8361C112.58 31.9918 112.216 32.3111 111.913 32.5359C111.689 32.702 111.58 32.9331 111.48 33.1853C111.363 33.4796 111.365 33.8282 111.299 34.1365C111.231 34.4567 110.117 34.1604 109.868 34.1615C108.745 34.1667 107.894 34.9859 107.803 36.0935C107.755 36.6692 107.852 37.2478 108.086 37.7763C108.22 38.0795 108.281 38.1503 108.135 38.4709C107.983 38.8053 107.549 39.1084 107.32 39.4016C106.925 39.9079 106.776 40.4665 106.96 41.088C107.057 41.4141 107.354 41.7219 107.551 41.993C107.636 42.1102 107.97 42.5231 107.891 42.6817C107.811 42.8438 107.674 42.9854 107.586 43.1466C106.912 44.3814 108.052 45.2394 109.071 45.5932C109.597 45.776 109.821 44.9424 109.3 44.7613C108.94 44.636 108.543 44.5033 108.329 44.1638C108.074 43.7593 108.545 43.2983 108.709 42.9687C109.153 42.0705 107.813 41.3796 107.725 40.5788C107.644 39.8293 108.755 39.3298 108.984 38.6681C109.061 38.4452 109.174 38.1447 109.108 37.9041C109.003 37.5215 108.765 37.1952 108.681 36.7906C108.539 36.1099 108.747 35.3157 109.463 35.0949C110.282 34.8425 111.056 35.4024 111.83 34.89C112.39 34.5193 111.968 33.5623 112.476 33.1862C112.792 32.9521 113.312 32.5313 113.701 32.4804C114.242 32.4094 114.33 32.9807 114.722 33.2063C115.239 33.5032 115.813 33.3143 116.165 32.8409C116.618 32.2305 116.448 31.4106 117.238 31.0901C117.952 30.8007 119.041 31.0973 119.492 31.7132C119.778 32.1024 120.131 32.8612 120.732 32.8043C121.328 32.7479 121.598 32.3916 121.871 31.8946C122.489 30.7689 123.573 31.7708 124.014 32.4927C124.432 33.1758 124.536 33.6344 125.45 33.584C125.755 33.5672 126.05 33.5288 126.312 33.3711C126.772 33.0944 127.267 32.7219 127.833 32.8425C129.247 33.1433 127.433 35.7014 129.099 35.8965C129.453 35.9381 129.583 35.6623 129.911 35.5377C130.468 35.3254 131.111 35.9921 131.393 36.3796C131.987 37.1964 131.084 38.2554 130.676 38.9419C130.569 39.1229 130.622 39.3111 130.744 39.4645C131.046 39.8476 131.423 40.0338 131.879 40.1841C132.572 40.4127 133.021 40.6438 132.816 41.4361C132.571 42.3877 131.748 43.187 131.144 43.9248C130.795 44.351 131.401 44.9652 131.753 44.5346Z" fill="#1B1464"/>
<path opacity="0.5" d="M115.377 49.2383C115.354 49.2383 115.332 49.2376 115.309 49.2362C114.703 49.1971 113.774 49.0875 112.698 48.5897C112.452 48.4722 112.261 48.262 112.168 48.0047C112.075 47.7475 112.088 47.4639 112.202 47.2156C112.317 46.9673 112.524 46.7743 112.78 46.6784C113.036 46.5826 113.319 46.5917 113.568 46.7037C114.321 47.052 114.965 47.1321 115.442 47.1627C115.711 47.18 115.962 47.3013 116.143 47.5009C116.324 47.7005 116.421 47.9628 116.412 48.2323C116.404 48.5018 116.291 48.7574 116.098 48.9452C115.904 49.1329 115.646 49.238 115.377 49.2383ZM125.511 49.2625C125.252 49.262 125.003 49.1646 124.812 48.9894C124.621 48.8142 124.503 48.5738 124.48 48.3156C124.457 48.0573 124.531 47.7998 124.688 47.5935C124.845 47.3873 125.073 47.2473 125.328 47.2011C125.799 47.116 126.43 46.9628 127.137 46.5307C127.372 46.3905 127.652 46.3488 127.918 46.4146C128.183 46.4805 128.412 46.6485 128.554 46.8822C128.696 47.116 128.741 47.3965 128.678 47.6629C128.614 47.9292 128.449 48.1599 128.217 48.3047C127.205 48.9226 126.294 49.1377 125.697 49.2458C125.636 49.2569 125.573 49.2624 125.511 49.2625Z" fill="#FF89D8"/>
<path d="M100.712 111.286C100.586 108.946 100.64 106.589 100.647 104.247C100.656 101.044 101.04 97.8582 100.758 94.6541C100.579 92.6149 100.172 90.4853 99.4838 88.5543C99.1603 87.6462 97.9218 84.5489 96.4681 85.3789C94.9145 86.266 95.7932 88.1151 96.4051 89.3141C96.8474 90.1809 97.3536 91.0616 97.9015 91.865C98.4536 92.6744 99.2367 93.2941 99.6913 94.1726C99.947 94.6666 100.69 94.2302 100.435 93.7372C100.11 93.1098 99.6379 92.5972 99.1717 92.0732C98.5418 91.3653 98.0969 90.5364 97.6184 89.7231C97.1576 88.9399 96.6879 88.104 96.4584 87.219C96.3721 86.8862 96.47 86.5092 96.6952 86.2574C97.0927 85.8132 97.7336 86.9623 97.8896 87.2054C98.8253 88.6631 99.1041 90.3696 99.4855 92.0246C99.9484 94.0335 100.04 96.1061 100.011 98.1606C99.9783 100.455 99.7877 102.738 99.7836 105.033C99.78 107.114 99.7388 109.207 99.851 111.286C99.8808 111.839 100.742 111.842 100.712 111.286Z" fill="#1B1464"/>
<path d="M117.299 112.731C115.308 112.69 113.304 112.353 111.334 112.092C108.659 111.739 105.988 111.357 103.312 111.016C102.27 110.883 101.226 110.755 100.18 110.659C99.6031 110.605 99.0057 110.534 98.4286 110.616C96.5666 110.881 94.6824 110.991 92.8414 111.393C91.347 111.72 89.7164 112.14 88.3357 112.81C87.4072 113.261 86.6867 114 86.0957 114.832C85.5766 115.563 85.0033 116.252 84.4882 116.986C84.0085 117.67 83.5375 118.491 83.5798 119.355C83.6111 119.995 84.0508 120.581 84.7008 120.641C85.3235 120.699 85.8845 120.011 86.2133 119.581C86.7216 118.916 87.1301 118.183 87.523 117.446C88.6504 115.329 90.233 113.55 91.8628 111.808C92.2422 111.403 91.6342 110.791 91.2537 111.198C89.9636 112.577 88.6966 113.987 87.6319 115.551C86.9272 116.586 86.4381 117.748 85.7338 118.785C85.5301 119.085 85.1177 119.751 84.7008 119.778C84.5064 119.791 84.4407 119.346 84.4347 119.224C84.4166 118.855 84.6095 118.478 84.7737 118.161C85.1007 117.53 85.5562 116.963 85.9946 116.408C86.4398 115.844 86.8265 115.227 87.2957 114.685C88.3558 113.46 89.9142 113.1 91.4067 112.687C93.3084 112.16 95.1741 111.864 97.1353 111.646C98.0858 111.54 98.6924 111.412 99.6215 111.476C100.571 111.541 101.518 111.657 102.462 111.772C105.265 112.114 108.06 112.518 110.858 112.892C112.985 113.176 115.15 113.549 117.299 113.594C117.855 113.605 117.854 112.743 117.299 112.731ZM154.645 79.8077C154.001 81.7339 153.417 83.68 152.797 85.6137C152.463 86.653 152.122 87.6896 151.759 88.7192C151.617 89.1218 152.032 89.4243 152.324 89.5956C152.834 89.8937 153.401 90.0999 153.933 90.3512C154.306 90.5271 155.079 90.8086 155.246 91.2321C155.378 91.5655 153.898 91.0558 153.791 91.0104C153.135 90.7321 152.519 90.3739 151.885 90.0516C151.6 89.906 151.237 90.0823 151.238 90.424C151.239 92.319 150.838 94.1682 150.487 96.0212C150.145 97.8274 150.059 99.6328 149.836 101.452C149.628 103.154 149.154 104.818 148.452 106.381C147.702 108.049 146.671 109.572 145.905 111.236C144.632 113.999 144.132 116.84 144.745 119.828C145.153 121.814 146.141 124.334 148.451 124.567C149.003 124.623 148.998 123.76 148.451 123.705C146.293 123.486 145.664 120.377 145.411 118.662C144.935 115.434 146.169 112.382 147.697 109.603C148.446 108.241 149.208 106.923 149.754 105.462C150.293 104.022 150.582 102.509 150.752 100.985C150.951 99.2165 151.082 97.4816 151.418 95.7274C151.753 93.974 152.101 92.2165 152.099 90.424L151.451 90.7964C152.554 91.3576 154.156 92.5417 155.462 92.1746C155.973 92.0313 156.238 91.411 156.05 90.9336C155.829 90.3741 155.221 90.0448 154.718 89.7796C154.105 89.4564 153.453 89.2154 152.839 88.8948C152.758 88.8523 152.666 88.8073 152.594 88.7505C152.503 88.6509 152.502 88.7169 152.59 88.9484C152.634 88.8221 152.679 88.6957 152.723 88.5691C152.937 87.9535 153.142 87.3343 153.345 86.7149C154.072 84.4946 154.735 82.253 155.475 80.037C155.652 79.5079 154.82 79.2829 154.645 79.8077Z" fill="#1B1464"/>
<path d="M145.383 90.4547C146.43 89.2097 147.066 87.7685 147.778 86.3127C148.263 85.3203 148.532 84.3641 148.615 83.2585C148.675 82.463 148.627 81.3913 147.771 81.0505C147.37 80.8908 146.881 81.1327 146.547 81.3332C145.888 81.7288 145.805 82.9273 145.666 83.605C144.84 87.6299 145.475 91.8017 145.35 95.8712C145.263 98.7044 145.138 101.517 145.156 104.356C145.174 107.101 145.222 109.846 145.3 112.589C145.316 113.144 146.178 113.146 146.162 112.589C146.062 109.095 146.008 105.598 146.011 102.102C146.014 99.1122 146.275 96.13 146.218 93.143C146.177 91.0455 146.07 88.9495 146.158 86.8517C146.201 85.8385 146.308 84.8307 146.497 83.8344C146.613 83.2234 146.682 81.8983 147.502 81.8722C148.038 81.8551 147.648 84.1143 147.592 84.3795C147.291 85.8152 146.404 87.1332 145.762 88.4367C145.506 88.9559 145.144 89.404 144.774 89.8446C144.419 90.2672 145.025 90.8807 145.383 90.4547Z" fill="#1B1464"/>
<path d="M118.311 112.161C119.45 111.534 122.738 111.323 123.903 111.718C125.011 112.094 126.802 115.13 127.323 116.325C128.273 118.508 126.815 119.911 125.538 122.025C124.404 123.902 123.088 125.742 122.234 127.704C119.745 126.646 118.122 127.023 115.505 126.965C114.622 122.458 114.531 114.244 118.311 112.161Z" fill="white"/>
<path d="M125.558 113.038C125.111 112.329 124.603 111.479 123.798 111.147C123.439 110.998 122.963 111.153 122.606 111.225C121.921 111.363 121.202 111.417 120.505 111.405C119.783 111.393 119.022 111.442 118.314 111.587C117.459 111.762 116.843 112.748 116.423 113.428C115.072 115.615 114.561 118.136 114.466 120.678C114.428 121.684 114.584 122.684 114.652 123.685C114.718 124.635 114.764 125.604 114.97 126.537C115.09 127.08 115.92 126.849 115.8 126.307C115.475 124.832 115.45 123.229 115.342 121.722C115.174 119.401 115.622 116.913 116.644 114.826C117.007 114.083 117.423 113.342 118.012 112.755C118.527 112.24 119.368 112.309 120.043 112.276C120.984 112.23 121.901 112.212 122.835 112.057C123.315 111.977 123.579 111.889 123.948 112.287C124.282 112.647 124.553 113.059 124.814 113.474C125.109 113.943 125.855 113.511 125.558 113.038Z" fill="#1B1464"/>
<path d="M122.26 116.514C121.965 116.966 121.493 117.591 121.649 118.164C121.795 118.7 122.626 118.472 122.48 117.935C122.48 117.987 122.48 117.985 122.48 117.929C122.48 117.996 122.506 117.839 122.505 117.842C122.537 117.734 122.592 117.635 122.644 117.537C122.752 117.334 122.878 117.142 123.004 116.95C123.308 116.482 122.562 116.05 122.26 116.514ZM120.719 120.106C120.41 120.549 120.293 121.114 120.377 121.645C120.414 121.877 120.7 122.003 120.907 121.946C121.152 121.878 121.245 121.647 121.208 121.415C121.161 121.119 121.295 120.782 121.463 120.542C121.598 120.349 121.499 120.063 121.309 119.952C121.094 119.825 120.854 119.914 120.719 120.106ZM119.673 123.765C119.525 124.163 119.492 124.601 119.567 125.017C119.608 125.249 119.886 125.376 120.096 125.318C120.338 125.252 120.438 125.019 120.397 124.788C120.352 124.535 120.412 124.24 120.503 123.994C120.585 123.773 120.414 123.522 120.203 123.463C119.961 123.397 119.755 123.545 119.673 123.765ZM121.711 113.955C122.213 114.553 122.948 114.944 123.622 115.311C124.539 115.81 125.494 116.237 126.415 116.729C126.905 116.99 127.339 116.246 126.849 115.984C126.054 115.559 125.237 115.176 124.435 114.765C123.699 114.387 122.862 113.99 122.321 113.345C121.963 112.918 121.357 113.532 121.711 113.955Z" fill="#1B1464"/>
<path d="M125.289 118.846L129.65 121.205C130.336 121.576 131.193 121.32 131.564 120.633C131.935 119.945 131.679 119.087 130.992 118.715L126.631 116.356" fill="white"/>
<path d="M125.072 119.219L128.339 120.986L129.432 121.578C130.353 122.076 131.399 121.704 131.936 120.85C132.419 120.082 132.111 119.059 131.459 118.513C131.106 118.217 130.626 118.027 130.225 117.811L126.849 115.984C126.36 115.72 125.925 116.465 126.414 116.729L128.97 118.112C129.767 118.543 131.751 119.188 131.192 120.415C130.632 121.644 128.88 120.299 128.186 119.923L125.506 118.474C125.018 118.209 124.583 118.954 125.072 119.219Z" fill="#1B1464"/>
<path d="M122.468 123.758L126.829 126.117C127.515 126.488 128.372 126.232 128.743 125.544C129.113 124.857 128.857 123.998 128.171 123.627L123.81 121.268" fill="white"/>
<path d="M122.25 124.13L125.518 125.898L126.611 126.489C127.532 126.987 128.577 126.615 129.114 125.762C129.597 124.994 129.289 123.971 128.638 123.425C128.285 123.129 127.804 122.939 127.404 122.722L124.027 120.896C123.539 120.631 123.104 121.376 123.593 121.641L126.149 123.023C126.946 123.455 128.929 124.099 128.371 125.327C127.811 126.555 126.059 125.21 125.365 124.835L122.685 123.385C122.196 123.121 121.762 123.866 122.25 124.13Z" fill="#1B1464"/>
<path d="M122.59 123.88L126.318 125.897C126.97 126.249 127.212 127.063 126.861 127.716C126.509 128.368 125.71 128.325 124.978 128.675L121.339 129.936L120.911 129.604C120.641 129.394 120.453 129.095 120.381 128.761C120.308 128.426 120.355 128.076 120.514 127.773L120.773 127.278" fill="white"/>
<path d="M122.373 124.253L124.546 125.428C125.278 125.824 126.99 126.379 126.489 127.498C126.278 127.969 125.256 128.122 124.807 128.278L123.633 128.685L121.224 129.52L121.643 129.631C121.363 129.413 121.081 129.226 120.89 128.918C120.591 128.437 120.923 127.921 121.145 127.496C121.403 127.004 120.659 126.567 120.401 127.06C119.966 127.892 119.713 128.657 120.253 129.525C120.542 129.99 121.121 130.468 121.664 130.279C122.943 129.836 124.22 129.386 125.495 128.932C126.509 128.572 127.293 128.351 127.45 127.158C127.556 126.351 126.933 125.739 126.293 125.393L122.807 123.508C122.319 123.243 121.884 123.988 122.373 124.253Z" fill="#1B1464"/>
<path d="M119.922 126.569L122.624 127.46L119.922 126.569Z" fill="white"/>
<path d="M119.807 126.985L122.51 127.876C123.039 128.051 123.264 127.217 122.739 127.044L120.036 126.153C119.507 125.979 119.282 126.812 119.807 126.985Z" fill="#1B1464"/>
<path d="M123.607 121.129L128.626 123.844C129.313 124.215 130.17 123.959 130.54 123.271C130.911 122.584 130.655 121.725 129.969 121.354L124.95 118.639" fill="white"/>
<path d="M123.39 121.501L126.994 123.451L128.392 124.208C129.319 124.709 130.367 124.355 130.912 123.489C131.469 122.604 130.993 121.491 130.186 120.982C129.772 120.72 129.315 120.511 128.884 120.278L125.167 118.267C124.678 118.002 124.243 118.747 124.732 119.012L127.617 120.572C128.435 121.015 130.75 121.776 130.168 123.054C129.585 124.334 127.539 122.766 126.833 122.384L123.825 120.757C123.336 120.492 122.901 121.237 123.39 121.501ZM165.399 82.4891C166.112 82.4543 167.108 82.6875 167.485 83.357C167.714 83.7624 168.336 83.3986 168.108 82.9925C167.605 82.1004 166.367 81.7195 165.399 81.7668C164.936 81.7895 164.934 82.5118 165.399 82.4891ZM120.26 126.619C113.146 126.608 106.031 126.61 98.916 126.612C95.56 126.614 92.2039 126.616 88.8479 126.618C87.7539 126.619 86.6012 126.453 85.5269 126.274C84.6101 126.121 83.6842 125.911 82.8911 125.408C82.1372 124.93 81.6596 124.12 81.279 123.337C80.3402 121.406 80.0951 119.467 80.5955 117.374C81.0822 115.339 82.0927 113.462 82.9373 111.563C83.8975 109.403 84.62 107.136 85.3532 104.892C86.9882 99.8863 88.5851 94.8353 89.8696 89.7258C90.2384 88.2586 90.2849 86.7262 90.4316 85.224C90.5565 83.9391 90.6846 82.6544 90.8159 81.3701C90.9346 80.2143 90.9807 79.024 91.4484 77.9444C92.1964 76.218 93.729 74.9003 95.1941 73.79C96.9119 72.4881 98.8156 71.465 100.764 70.556C101.549 70.1894 102.373 69.7427 103.208 69.5067C103.722 69.3613 104.222 69.26 104.678 68.9741C105.825 68.2556 106.686 67.0257 107.477 65.946C107.92 65.3411 108.355 64.6878 108.908 64.1759C108.99 64.1207 108.929 64.1308 108.725 64.2061C108.802 64.2575 108.88 64.3082 108.958 64.3581C109.196 64.512 109.44 64.6583 109.683 64.8041C110.222 65.127 110.771 65.4317 111.325 65.7282C112.406 66.3075 113.516 66.8234 114.68 67.2135C116.028 67.6655 117.431 68.1286 118.816 68.4506C119.33 68.57 119.548 67.7789 119.033 67.6593C118.129 67.4489 117.263 67.1153 116.37 66.8627C115.324 66.5666 114.293 66.248 113.302 65.7986C111.828 65.1314 110.378 64.3331 109.036 63.4286C108.379 62.9856 107.377 64.7149 107.1 65.0855C106.257 66.2114 105.432 67.443 104.265 68.2655C103.875 68.5403 103.358 68.6113 102.905 68.7394C102.033 68.9859 101.172 69.4688 100.35 69.8474C98.3958 70.7475 96.5075 71.7914 94.7808 73.0814C93.3886 74.1214 92.0783 75.2929 91.1438 76.7739C90.4455 77.8806 90.2395 79.0877 90.1027 80.3592C89.8459 82.7463 89.6194 85.1369 89.3891 87.5267C89.2532 88.9376 88.9262 90.1398 88.5257 91.5895C87.0507 96.9301 85.4272 102.246 83.6228 107.484C83.3002 108.421 82.9692 109.355 82.6007 110.275C81.8581 112.128 80.9102 113.889 80.2291 115.769C79.5727 117.579 79.2813 119.489 79.6907 121.389C80.0179 122.907 80.8007 124.624 81.9401 125.698C83.2353 126.919 85.2474 127.096 86.9274 127.29C87.8599 127.398 88.7881 127.439 89.7256 127.438C93.1618 127.435 96.5981 127.433 100.034 127.432C106.776 127.43 113.519 127.428 120.261 127.44C120.789 127.441 120.789 126.62 120.26 126.619Z" fill="#1B1464"/>
<path d="M154.705 79.9151C155.068 82.173 157.941 83.0739 159.8 83.6544C160.958 84.0159 162.183 84.4628 163.389 84.5978C165.051 84.7839 166.543 84.2878 168.003 83.5291L167.387 83.1748C167.573 84.8581 166.898 86.5092 166.671 88.1634C166.458 89.709 166.323 91.2667 166.225 92.8234C166.092 94.9338 166.15 97.0565 166.145 99.1701C166.14 101.612 166.129 104.055 166.132 106.497C166.138 110.192 166.249 113.856 165.513 117.5C164.859 120.744 163.534 123.964 160.949 126.145C160.239 126.744 159.568 126.61 158.664 126.611L148.145 126.614L127.358 126.619H127.354C126.826 126.619 126.826 127.44 127.354 127.44L147.869 127.434L158.55 127.431C159.29 127.431 160.034 127.484 160.745 127.22C161.855 126.809 162.713 125.551 163.402 124.652C164.332 123.439 164.973 122.144 165.489 120.702C166.999 116.475 167.029 111.918 166.957 107.486C166.924 105.461 166.954 103.433 166.959 101.408C166.971 96.4155 166.703 91.2635 167.845 86.3683C168.089 85.3231 168.326 84.2526 168.206 83.1744C168.172 82.863 167.886 82.6664 167.59 82.8201C166.322 83.4791 165.054 83.9131 163.61 83.8015C162.509 83.7165 161.386 83.2722 160.33 82.9576C158.683 82.4672 155.82 81.7192 155.494 79.6965C155.411 79.1757 154.621 79.3976 154.705 79.9151Z" fill="#1B1464"/>
</g>
<defs>
<clipPath id="clip0_1252_2516">
<rect width="231.775" height="82.3886" fill="white" transform="translate(10.1602 45.1357)"/>
</clipPath>
<clipPath id="clip1_1252_2516">
<rect width="95.885" height="100.189" fill="white" transform="translate(79.502 30.1328)"/>
</clipPath>
</defs>
</svg>
