<svg width="24" height="24" viewBox="0 0 24 24" fill="none" xmlns="http://www.w3.org/2000/svg">
<path d="M11.317 1.43994C9.84103 1.43994 8.64047 2.68335 8.64047 4.21119C8.64047 6.35151 12.481 9.1922 12.9192 9.509C13.0032 9.56996 13.1016 9.59994 13.2005 9.59994C13.2993 9.59994 13.3987 9.56903 13.4827 9.50807C13.9204 9.18983 17.7605 6.33567 17.7605 4.21119C17.7605 2.68335 16.5599 1.43994 15.0839 1.43994C14.2444 1.43994 13.662 1.77817 13.2108 2.18713C12.6741 1.69081 12.039 1.43994 11.317 1.43994ZM11.9986 10.0799C11.8599 10.0804 11.7197 10.1005 11.5805 10.1428L5.57859 11.9718C5.30691 12.0549 5.04222 12.1587 4.78734 12.284L0.748594 14.2678C0.584434 14.3484 0.480469 14.5161 0.480469 14.699V21.8399C0.480469 22.0156 0.662839 22.1318 0.821719 22.0574L5.64891 19.6734L14.4408 22.4915C14.879 22.6321 15.3597 22.5546 15.7317 22.2815L22.8886 17.0334C23.4507 16.6215 23.6864 15.8631 23.3873 15.2334C22.9851 14.3871 21.9449 14.1542 21.2283 14.6784L15.8498 18.6224L9.16547 16.0762C8.84915 15.9557 8.64047 15.6524 8.64047 15.314C8.64047 15.0049 8.81541 14.7229 9.09141 14.5846L12.5752 12.8428C13.2241 12.5183 13.5948 11.7719 13.372 11.0812C13.1738 10.4658 12.6077 10.0785 11.9986 10.0799ZM14.8805 10.0799C14.783 10.0795 14.684 10.0883 14.5852 10.1099C13.6698 10.3101 13.2059 11.2706 13.5558 12.0871L14.5252 14.3465L11.9058 16.0921L15.2095 17.3512L17.1192 16.0781C17.6967 15.6931 17.9178 14.9507 17.6442 14.3128L16.2248 11.0024C15.9901 10.4552 15.456 10.0838 14.8805 10.0799Z" fill="black"/>
</svg>
